SplineFontDB: 3.2
FontName: Kingdom_Hand
FullName: Kingdom Hand
FamilyName: Kingdom_Hand
Weight: Regular
Copyright: Copyright (c) 2026, dingus
UComments: "2026-1-17: Created with FontForge (http://fontforge.org)"
Version: 001.000
ItalicAngle: 0
UnderlinePosition: -12
UnderlineWidth: 6
Ascent: 104
Descent: 24
InvalidEm: 0
LayerCount: 2
Layer: 0 0 "Back" 1
Layer: 1 0 "Fore" 0
XUID: [1021 412 1039766594 7467249]
StyleMap: 0x0000
FSType: 0
OS2Version: 0
OS2_WeightWidthSlopeOnly: 0
OS2_UseTypoMetrics: 1
CreationTime: 1768658370
ModificationTime: 1768672760
OS2TypoAscent: 0
OS2TypoAOffset: 1
OS2TypoDescent: 0
OS2TypoDOffset: 1
OS2TypoLinegap: 12
OS2WinAscent: 0
OS2WinAOffset: 1
OS2WinDescent: 0
OS2WinDOffset: 1
HheadAscent: 0
HheadAOffset: 1
HheadDescent: 0
HheadDOffset: 1
Lookup: 3 0 0 "'salt' Stylistic Alternatives in Latin lookup 0" { "'salt' Stylistic Alternatives in Latin lookup 0-1"  } ['salt' ('DFLT' <'dflt' > 'latn' <'dflt' > ) ]
Lookup: 1 0 0 "'zero' Slashed Zero in Latin lookup 1" { "'zero' Slashed Zero in Latin lookup 1-1"  } ['zero' ('DFLT' <'dflt' > 'latn' <'dflt' > ) ]
MarkAttachClasses: 1
DEI: 91125
LangName: 1033
Encoding: Custom
UnicodeInterp: none
NameList: AGL For New Fonts
DisplaySize: -72
AntiAlias: 1
FitToEm: 0
WinInfo: 0 25 10
BeginPrivate: 0
EndPrivate
BeginChars: 183 183

StartChar: zero
Encoding: 16 48 1
Width: 56
VWidth: 104
Flags: HW
LayerCount: 2
Fore
SplineSet
32.0029296875 80 m 0
 23.3359375 80 15.96484375 72.69921875 10.08984375 63.0859375 c 0
 4.21484375 53.47265625 0.0029296875 40.888671875 0.0029296875 28 c 0
 0.0029296875 22.5009765625 -0.1689453125 16.0703125 2.3310546875 10.2880859375 c 0
 4.83203125 4.5068359375 10.919921875 -0.0009765625 20.0029296875 -0.0009765625 c 0
 29.1845703125 -0.0009765625 36.8662109375 4.52734375 41.4462890625 12.28125 c 0
 46.0263671875 20.03515625 48.0029296875 30.6748046875 48.0029296875 44 c 0
 48.0029296875 57.119140625 47.1240234375 65.4267578125 44.69140625 71.23046875 c 0
 43.4755859375 74.1318359375 41.7353515625 76.4765625 39.4443359375 77.9775390625 c 0
 37.1533203125 79.4775390625 34.517578125 80 32.0029296875 80 c 0
32.0029296875 71.9990234375 m 0
 33.48828125 71.9990234375 34.3525390625 71.75 35.0615234375 71.2861328125 c 0
 35.7705078125 70.8212890625 36.529296875 70.0078125 37.3134765625 68.1376953125 c 0
 38.880859375 64.3974609375 40.0029296875 56.7060546875 40.0029296875 44 c 0
 40.0029296875 31.5009765625 37.978515625 22.1396484375 34.55859375 16.349609375 c 0
 31.138671875 10.5595703125 26.822265625 8 20.0029296875 8 c 0
 13.0869140625 8 11.173828125 9.9951171875 9.673828125 13.462890625 c 0
 8.1748046875 16.931640625 8.0029296875 22.5009765625 8.0029296875 28 c 0
 8.0029296875 39.111328125 11.791015625 50.5283203125 16.916015625 58.9140625 c 0
 22.041015625 67.30078125 28.669921875 71.9990234375 32.0029296875 71.9990234375 c 0
EndSplineSet
Substitution2: "'zero' Slashed Zero in Latin lookup 1-1" zero.slashed
EndChar

StartChar: one
Encoding: 17 49 2
Width: 56
VWidth: 104
Flags: HW
LayerCount: 2
Fore
SplineSet
36 80 m 2
 21.3330078125 80 12.671875 66.21875 12.671875 66.21875 c 1
 19.328125 61.78125 l 1
 19.328125 61.78125 24.435546875 68.77734375 31.51171875 71.158203125 c 1
 30.3857421875 64.26171875 27.3701171875 54.6533203125 24.19140625 44.71875 c 0
 20.181640625 32.189453125 16 19.06640625 16 8 c 2
 8 8 l 1
 8 0 l 1
 32 0 l 1
 32 8 l 1
 24 8 l 1
 24 16.93359375 27.8203125 29.810546875 31.810546875 42.28125 c 0
 35.80078125 54.751953125 40 66.6669921875 40 76 c 2
 40 80 l 1
 36 80 l 2
EndSplineSet
EndChar

StartChar: two
Encoding: 18 50 3
Width: 56
VWidth: 104
Flags: HW
LayerCount: 2
Fore
SplineSet
32 80 m 0
 23.77734375 80 17.322265625 74.00390625 12.52734375 68.67578125 c 0
 7.7314453125 63.3466796875 4.5703125 58.0576171875 4.5703125 58.0576171875 c 1
 11.4296875 53.9423828125 l 1
 11.4296875 53.9423828125 14.2685546875 58.65234375 18.4736328125 63.32421875 c 0
 22.677734375 67.99609375 28.2216796875 71.9990234375 32 71.9990234375 c 0
 34.6669921875 71.9990234375 36.2412109375 70.927734375 37.671875 68.78125 c 0
 39.103515625 66.634765625 40 63.333984375 40 60 c 0
 40 55.3330078125 37.7001953125 51.3564453125 34.171875 47.828125 c 0
 30.642578125 44.2998046875 25.97265625 41.4580078125 22.2109375 39.5771484375 c 0
 14.5224609375 35.7333984375 0 25.712890625 0 4 c 2
 0 -0.0009765625 l 1
 39.9990234375 -0.0009765625 l 1
 40 16 l 1
 32.0009765625 16 l 1
 32 8 l 1
 8.2119140625 8 l 1
 9.712890625 23.294921875 19.6767578125 29.3662109375 25.7890625 32.421875 c 0
 30.02734375 34.541015625 35.3564453125 37.7001953125 39.828125 42.171875 c 0
 44.2998046875 46.642578125 48 52.6669921875 48 60 c 0
 48 64.6669921875 46.8974609375 69.365234375 44.328125 73.21875 c 0
 41.759765625 77.072265625 37.3330078125 80 32 80 c 0
EndSplineSet
EndChar

StartChar: three
Encoding: 19 51 4
Width: 56
VWidth: 104
Flags: HW
LayerCount: 2
Fore
SplineSet
32.0009765625 80 m 2
 24.22265625 80 18.36328125 75.060546875 14.490234375 70.6337890625 c 0
 10.6171875 66.2080078125 8.4228515625 61.7890625 8.4228515625 61.7890625 c 1
 15.578125 58.2109375 l 1
 15.578125 58.2109375 17.3837890625 61.7919921875 20.5107421875 65.3662109375 c 0
 23.6376953125 68.939453125 27.7783203125 71.9990234375 32.0009765625 71.9990234375 c 0
 35.333984375 71.9990234375 37.1142578125 71.228515625 38.171875 70.171875 c 0
 39.228515625 69.1142578125 40 67.3330078125 40 64 c 0
 40 61.166015625 38.8828125 59.0400390625 36.796875 56.9541015625 c 0
 34.7099609375 54.8671875 31.62890625 53.0498046875 28.4248046875 51.6767578125 c 0
 22.0166015625 48.9296875 15.4345703125 47.9599609375 15.4345703125 47.9599609375 c 1
 15.4345703125 40.0400390625 l 1
 15.4345703125 40.0400390625 22.0166015625 39.0703125 28.4248046875 36.3232421875 c 0
 31.62890625 34.9501953125 34.7099609375 33.1328125 36.796875 31.0458984375 c 0
 38.8828125 28.9599609375 40 26.8330078125 40 23.9990234375 c 0
 40 19.3330078125 37.767578125 15.552734375 34.044921875 12.6572265625 c 0
 30.322265625 9.76171875 25.111328125 8 20.0009765625 8 c 0
 14.4453125 8 11.3818359375 9.0166015625 9.9990234375 10.123046875 c 0
 8.6162109375 11.2294921875 8.0009765625 12.666015625 8.0009765625 16 c 1
 0 16 l 1
 0 11.3330078125 1.3837890625 6.7705078125 5.0009765625 3.8759765625 c 0
 8.6181640625 0.982421875 13.5556640625 -0.0009765625 20.0009765625 -0.0009765625 c 0
 26.8896484375 -0.0009765625 33.6787109375 2.23828125 38.9560546875 6.3427734375 c 0
 44.232421875 10.447265625 48 16.6669921875 48 24 c 0
 48 29.1669921875 45.6171875 33.5400390625 42.453125 36.7041015625 c 0
 39.2890625 39.8671875 35.3720703125 42.0498046875 31.576171875 43.6767578125 c 0
 31.275390625 43.8056640625 30.9970703125 43.8779296875 30.697265625 44 c 1
 30.9970703125 44.1220703125 31.275390625 44.1943359375 31.576171875 44.3232421875 c 0
 35.3720703125 45.9501953125 39.2900390625 48.1318359375 42.4541015625 51.2958984375 c 0
 45.6181640625 54.4599609375 48 58.8330078125 48 63.9990234375 c 0
 48 68.666015625 46.771484375 72.8857421875 43.828125 75.828125 c 0
 40.8857421875 78.7705078125 36.6669921875 80 32.0009765625 80 c 2
 32.0009765625 80 l 2
EndSplineSet
EndChar

StartChar: four
Encoding: 20 52 5
Width: 56
VWidth: 104
Flags: HW
LayerCount: 2
Fore
SplineSet
36 80 m 1
 34.25 80 33.5693359375 79.4287109375 32.8603515625 78.9853515625 c 0
 32.1513671875 78.5419921875 31.5234375 78.0400390625 30.849609375 77.4541015625 c 0
 29.5029296875 76.28125 28.01171875 74.7626953125 26.3544921875 72.9423828125 c 0
 23.041015625 69.3037109375 19.11328125 64.4853515625 15.2998046875 59.400390625 c 0
 11.4853515625 54.314453125 7.80078125 48.984375 5.00390625 44.30078125 c 0
 3.6044921875 41.958984375 2.427734375 39.78515625 1.552734375 37.8046875 c 0
 0.6767578125 35.8232421875 0 34.1669921875 0 32 c 0
 0 28.77734375 0.162109375 25.80078125 1.80859375 23.0224609375 c 0
 3.4541015625 20.2451171875 6.4716796875 18.5087890625 10.029296875 17.619140625 c 0
 12.322265625 17.0458984375 15.220703125 16.720703125 18.4697265625 16.4794921875 c 1
 16.958984375 10.771484375 15.9990234375 5.1748046875 15.9990234375 0 c 1
 24 0 l 1
 24 4.6005859375 25.1044921875 10.19140625 26.7919921875 16.107421875 c 0
 32.494140625 15.9931640625 39.2490234375 16 48 16 c 1
 48 24 l 1
 40.4375 24 34.509765625 24.0458984375 29.3388671875 24.140625 c 1
 31.2197265625 29.470703125 33.4228515625 34.853515625 35.6552734375 39.8759765625 c 0
 38.6181640625 46.5419921875 41.59375 52.619140625 43.85546875 57.33203125 c 0
 44.986328125 59.6875 45.9375 61.6962890625 46.6416015625 63.33203125 c 0
 46.994140625 64.1494140625 47.2861328125 64.869140625 47.5185546875 65.556640625 c 0
 47.751953125 66.244140625 48 66.75 48 68 c 0
 48 71.3330078125 46.45703125 74.2001953125 44.328125 76.328125 c 0
 42.2001953125 78.45703125 39.3330078125 80 36 80 c 1
 36 80 l 1
37.1025390625 72.2021484375 m 0
 37.087890625 72.193359375 37.0234375 72.13671875 37.0048828125 72.125 c 1
 37.173828125 72.1904296875 37.1767578125 72.248046875 37.1025390625 72.2021484375 c 0
36.6279296875 71.8310546875 m 2
 37.26953125 71.662109375 38.017578125 71.3251953125 38.671875 70.6708984375 c 0
 39.482421875 69.8603515625 39.8935546875 68.8525390625 39.9521484375 68.17578125 c 0
 39.9443359375 68.15234375 39.9501953125 68.1494140625 39.9404296875 68.1240234375 c 0
 39.822265625 67.7744140625 39.59765625 67.201171875 39.2939453125 66.49609375 c 0
 38.685546875 65.0849609375 37.76171875 63.1240234375 36.642578125 60.79296875 c 0
 34.404296875 56.1298828125 31.380859375 49.9580078125 28.3427734375 43.1240234375 c 0
 25.71484375 37.208984375 23.080078125 30.8330078125 20.9013671875 24.4228515625 c 0
 17.005859375 24.6298828125 13.8525390625 24.9091796875 11.96875 25.3798828125 c 0
 9.5263671875 25.9912109375 9.0439453125 26.50390625 8.689453125 27.1005859375 c 0
 8.3359375 27.6982421875 7.9990234375 29.2216796875 7.9990234375 32 c 1
 7.9990234375 31.8330078125 8.197265625 33.05078125 8.8681640625 34.5703125 c 0
 9.5400390625 36.08984375 10.58203125 38.0400390625 11.8701171875 40.1982421875 c 0
 14.4482421875 44.5146484375 18.0126953125 49.6845703125 21.69921875 54.599609375 c 0
 25.384765625 59.513671875 29.2080078125 64.1953125 32.2685546875 67.5556640625 c 0
 33.7998046875 69.236328125 35.15234375 70.59375 36.1025390625 71.4208984375 c 0
 36.3515625 71.6376953125 36.4501953125 71.6962890625 36.626953125 71.8310546875 c 2
 36.6279296875 71.8310546875 l 2
EndSplineSet
EndChar

StartChar: five
Encoding: 21 53 6
Width: 56
VWidth: 104
Flags: HW
LayerCount: 2
Fore
SplineSet
16.27734375 80 m 1
 16.0107421875 76.2861328125 l 2
 15.3935546875 67.68359375 11.962890625 62.6005859375 8.095703125 56.4345703125 c 0
 4.228515625 50.2685546875 0 42.974609375 0 32 c 2
 6.828125 29.1708984375 l 2
 11.771484375 34.1142578125 13.77734375 40 24 40 c 0
 29.111328125 40 32.9794921875 38.36328125 35.671875 35.671875 c 0
 38.36328125 32.9794921875 40 29.111328125 40 24 c 0
 40 19.333984375 37.767578125 15.552734375 34.044921875 12.6572265625 c 0
 30.3212890625 9.76171875 25.111328125 8 20.0009765625 8 c 0
 14.4443359375 8 11.3818359375 9.0166015625 9.9990234375 10.123046875 c 0
 8.6162109375 11.2294921875 8 12.666015625 8 16 c 1
 0 16 l 1
 0 11.3330078125 1.3837890625 6.7705078125 5.0009765625 3.8759765625 c 0
 8.6181640625 0.982421875 13.5556640625 -0.0009765625 20.0009765625 -0.0009765625 c 0
 26.8896484375 -0.0009765625 33.6796875 2.23828125 38.9560546875 6.3427734375 c 0
 44.2333984375 10.447265625 48 16.6669921875 48 24 c 0
 48 30.8896484375 45.63671875 37.0205078125 41.328125 41.328125 c 0
 37.0205078125 45.63671875 30.888671875 48 24 48 c 0
 18.109375 48 13.7060546875 46.1201171875 10.2822265625 43.7646484375 c 1
 11.50390625 46.6943359375 13.0947265625 49.34765625 14.873046875 52.18359375 c 0
 18.1982421875 57.4853515625 22.123046875 63.466796875 23.5458984375 71.9990234375 c 2
 48 71.9990234375 l 1
 48 80 l 1
 16.27734375 80 l 1
EndSplineSet
EndChar

StartChar: six
Encoding: 22 54 7
Width: 56
VWidth: 104
Flags: HW
LayerCount: 2
Fore
SplineSet
32 80 m 0
 23.3330078125 80 15.9619140625 72.69921875 10.0869140625 63.0859375 c 0
 4.2119140625 53.47265625 0 40.888671875 0 28 c 0
 0 19.3330078125 2.16015625 12.453125 5.7998046875 7.599609375 c 0
 9.4404296875 2.74609375 14.666015625 -0.0009765625 20 -0.0009765625 c 0
 27.3330078125 -0.0009765625 34.2001953125 3.54296875 39.328125 8.671875 c 0
 44.45703125 13.7998046875 48 20.666015625 48 28 c 0
 48 34.888671875 45.5 40.2890625 41.5595703125 43.572265625 c 0
 37.6201171875 46.8564453125 32.666015625 48 27.9990234375 48 c 0
 19.9150390625 48 13.55859375 42.2041015625 8.7890625 36.9453125 c 1
 10.1474609375 45.017578125 13.1630859375 52.779296875 16.9130859375 58.9140625 c 0
 22.0380859375 67.30078125 28.666015625 71.9990234375 32 71.9990234375 c 0
 35.3330078125 71.9990234375 37.1142578125 71.228515625 38.171875 70.171875 c 0
 39.228515625 69.1142578125 39.9990234375 67.3330078125 39.9990234375 64 c 1
 48 64 l 1
 48 68.666015625 46.771484375 72.8857421875 43.828125 75.828125 c 0
 40.8857421875 78.771484375 36.666015625 80 32 80 c 0
27.9990234375 40 m 0
 31.3330078125 40 34.3798828125 39.1435546875 36.439453125 37.4267578125 c 0
 38.4990234375 35.7109375 39.9990234375 33.111328125 39.9990234375 28 c 0
 39.9990234375 23.3330078125 37.54296875 18.2001953125 33.671875 14.328125 c 0
 29.80078125 10.45703125 24.6669921875 8 20 8 c 0
 17.3330078125 8 14.5595703125 9.2529296875 12.19921875 12.3994140625 c 0
 10.388671875 14.8134765625 8.904296875 18.4150390625 8.3017578125 23.2587890625 c 0
 9.2314453125 24.7119140625 11.2109375 27.69921875 14.47265625 31.32421875 c 0
 18.677734375 35.9951171875 24.2216796875 40 27.9990234375 40 c 0
EndSplineSet
EndChar

StartChar: seven
Encoding: 23 55 8
Width: 56
VWidth: 104
Flags: HW
LayerCount: 2
Fore
SplineSet
32 80 m 2
 20.93359375 80 13.6728515625 75.283203125 8.8427734375 70.9892578125 c 0
 6.427734375 68.8427734375 4.5234375 66.83203125 3.0126953125 65.58203125 c 0
 1.501953125 64.3310546875 0.6669921875 64 0 64 c 1
 0 56 l 1
 3.3330078125 56 5.9990234375 57.6689453125 8.1123046875 59.4189453125 c 0
 10.2265625 61.16796875 12.072265625 63.1572265625 14.1572265625 65.0107421875 c 0
 18.3271484375 68.716796875 23.06640625 71.9990234375 32 71.9990234375 c 0
 37.1103515625 71.9990234375 38.296875 70.7314453125 39.0703125 69.44140625 c 0
 39.84375 68.15234375 40 66 40 64 c 1
 40 64.666015625 39.900390625 63.6962890625 38.98828125 62.373046875 c 0
 38.0751953125 61.0498046875 36.5966796875 59.2705078125 34.7705078125 57.23046875 c 0
 31.1171875 53.1513671875 26.076171875 47.982421875 20.9814453125 42.1240234375 c 0
 10.79296875 30.4072265625 0 15.904296875 0 -0.0009765625 c 1
 8 -0.0009765625 l 1
 8 12.0947265625 17.20703125 25.5908203125 27.0185546875 36.8740234375 c 0
 31.923828125 42.515625 36.8828125 47.59765625 40.7294921875 51.8935546875 c 0
 42.6533203125 54.041015625 44.2998046875 55.9814453125 45.57421875 57.830078125 c 0
 46.849609375 59.6787109375 48 61.33203125 48 63.9990234375 c 0
 48 65.9990234375 48.1552734375 69.8466796875 45.9296875 73.556640625 c 0
 43.703125 77.267578125 38.888671875 79.9990234375 32 79.9990234375 c 2
 32 80 l 2
EndSplineSet
EndChar

StartChar: eight
Encoding: 24 56 9
Width: 56
VWidth: 104
Flags: HW
LayerCount: 2
Fore
SplineSet
32.0009765625 80 m 1
 26.6669921875 80 21.041015625 77.6005859375 16.3662109375 73.509765625 c 0
 11.69140625 69.4189453125 8.0009765625 63.3330078125 8.0009765625 56 c 0
 8.0009765625 51.22265625 11.1357421875 47.658203125 14.55859375 45.01953125 c 0
 14.62890625 44.96484375 14.7080078125 44.9169921875 14.7783203125 44.86328125 c 1
 13.181640625 43.462890625 11.103515625 41.5126953125 9.0107421875 39.1572265625 c 0
 4.716796875 34.3271484375 0 27.77734375 0 20 c 0
 0 13.111328125 2.4990234375 7.7109375 6.439453125 4.4267578125 c 0
 10.3798828125 1.1435546875 15.333984375 -0.0009765625 20.0009765625 -0.0009765625 c 0
 26.8896484375 -0.0009765625 33.6787109375 2.23828125 38.9560546875 6.3427734375 c 0
 44.2333984375 10.447265625 48 16.666015625 48 23.9990234375 c 0
 48 29.3330078125 45.2109375 33.72265625 41.736328125 36.98046875 c 0
 39.185546875 39.3720703125 36.2080078125 41.2744140625 33.20703125 43.0537109375 c 1
 34.765625 44.357421875 36.7822265625 46.125 38.8291015625 48.171875 c 0
 40.9462890625 50.2890625 43.1015625 52.689453125 44.8291015625 55.28125 c 0
 46.556640625 57.8720703125 48 60.666015625 48 64 c 0
 48 68.666015625 46.771484375 72.8857421875 43.828125 75.828125 c 0
 40.8857421875 78.771484375 36.6669921875 80 32.0009765625 80 c 1
 32.0009765625 80 l 1
32.0009765625 71.9990234375 m 0
 35.333984375 71.9990234375 37.1142578125 71.228515625 38.171875 70.171875 c 0
 39.228515625 69.1142578125 40 67.333984375 40 64 c 0
 40 63.333984375 39.4443359375 61.6279296875 38.171875 59.71875 c 0
 36.8994140625 57.810546875 35.0537109375 55.7099609375 33.171875 53.828125 c 0
 29.5576171875 50.2138671875 26.07421875 47.5673828125 25.7890625 47.3515625 c 0
 23.361328125 48.736328125 21.0947265625 50.08203125 19.4423828125 51.35546875 c 0
 16.865234375 53.341796875 16 54.77734375 16 56 c 0
 16 60.6669921875 18.30859375 64.580078125 21.6337890625 67.490234375 c 0
 24.958984375 70.3994140625 29.333984375 71.9990234375 32.0009765625 71.9990234375 c 0
21.87109375 40.3623046875 m 0
 23.2607421875 39.576171875 24.654296875 38.7919921875 26.0400390625 38.013671875 c 0
 29.984375 35.7939453125 33.7392578125 33.51171875 36.2646484375 31.14453125 c 0
 38.7900390625 28.7763671875 40 26.6669921875 40 24 c 0
 40 19.3330078125 37.767578125 15.552734375 34.044921875 12.6572265625 c 0
 30.322265625 9.76171875 25.111328125 8 20.0009765625 8 c 0
 16.6669921875 8 13.6201171875 8.8564453125 11.560546875 10.572265625 c 0
 9.5009765625 12.2890625 8.0009765625 14.888671875 8.0009765625 20 c 0
 8.0009765625 24.2216796875 11.283203125 29.671875 14.9892578125 33.8427734375 c 0
 18.2724609375 37.5361328125 21.1640625 39.814453125 21.87109375 40.3623046875 c 0
EndSplineSet
EndChar

StartChar: nine
Encoding: 25 57 10
Width: 56
VWidth: 104
Flags: HW
LayerCount: 2
Fore
SplineSet
32 80 m 0
 26 80 20.5234375 76.234375 16.009765625 71.1572265625 c 0
 11.4970703125 66.080078125 8 59.3330078125 8 52 c 0
 8 45.5556640625 8.982421875 40.6181640625 11.8759765625 37.0009765625 c 0
 14.76953125 33.3837890625 19.3330078125 32 24 32 c 0
 27.6669921875 32 30.474609375 33.8974609375 33.060546875 36.0517578125 c 0
 35.5927734375 38.162109375 37.9140625 40.7646484375 39.9833984375 43.3388671875 c 1
 39.896484375 28.2587890625 36.9755859375 19.3017578125 33.2998046875 14.400390625 c 0
 29.5673828125 9.423828125 25.1103515625 8 20 8 c 0
 16.666015625 8 13.365234375 8.8974609375 11.21875 10.328125 c 0
 9.0712890625 11.759765625 8 13.3330078125 8 16 c 1
 0 16 l 1
 0 10.666015625 2.927734375 6.2412109375 6.78125 3.671875 c 0
 10.634765625 1.103515625 15.3330078125 -0.0009765625 20 -0.0009765625 c 0
 26.888671875 -0.0009765625 34.431640625 2.5751953125 39.7001953125 9.599609375 c 0
 44.9677734375 16.6240234375 48 27.5 48 44 c 0
 48 56.22265625 47.0888671875 64.5458984375 44.7138671875 70.4853515625 c 0
 43.525390625 73.455078125 41.888671875 75.8955078125 39.6494140625 77.5751953125 c 0
 37.41015625 79.2548828125 34.666015625 80 32 80 c 0
32 71.9990234375 m 0
 33.3330078125 71.9990234375 34.08984375 71.7451171875 34.849609375 71.1748046875 c 0
 35.6103515625 70.6044921875 36.4736328125 69.544921875 37.2861328125 67.5146484375 c 0
 38.2421875 65.1220703125 38.9755859375 61.30859375 39.4482421875 56.3095703125 c 0
 38.3720703125 54.615234375 36.56640625 51.861328125 33.8759765625 48.498046875 c 0
 31.9775390625 46.1259765625 29.853515625 43.7919921875 27.939453125 42.197265625 c 0
 26.0244140625 40.6025390625 24.3330078125 40 24 40 c 0
 20.6669921875 40 19.2294921875 40.6162109375 18.123046875 41.9990234375 c 0
 17.0166015625 43.3818359375 15.9990234375 46.4443359375 15.9990234375 52 c 0
 15.9990234375 56.666015625 18.501953125 61.919921875 21.9892578125 65.841796875 c 0
 25.4755859375 69.7646484375 30 71.9990234375 32 71.9990234375 c 0
EndSplineSet
EndChar

StartChar: exclam
Encoding: 1 33 11
Width: 40
VWidth: 104
Flags: HW
LayerCount: 2
Fore
SplineSet
8 0 m 1
 24 0 l 1
 24 16 l 1
 8 16 l 1
 8 0 l 1
24 80 m 1
 24 68.4443359375 22.181640625 63.1953125 20.1533203125 56.0986328125 c 0
 18.1259765625 49.001953125 16 40.3330078125 16 24 c 1
 24 24 l 1
 24 39.666015625 25.8740234375 46.998046875 27.8466796875 53.9013671875 c 0
 29.818359375 60.8037109375 32 67.5556640625 32 80 c 1
 24 80 l 1
EndSplineSet
EndChar

StartChar: quotedbl
Encoding: 2 34 12
Width: 48
VWidth: 112
Flags: HW
LayerCount: 2
Fore
SplineSet
0 56 m 1
 4 56 l 1
 4 56 16 64 16 88 c 1
 12 88 l 1
 12 88 0 80 0 56 c 1
24 56 m 1
 28 56 l 1
 28 56 40 64 40 88 c 1
 36 88 l 1
 36 88 24 80 24 56 c 1
EndSplineSet
EndChar

StartChar: numbersign
Encoding: 3 35 13
Width: 56
VWidth: 104
Flags: HW
LayerCount: 2
Fore
SplineSet
15.998046875 80 m 1
 15.998046875 70.1513671875 15.666015625 62.40234375 15.134765625 56 c 2
 0 56 l 1
 0 48 l 1
 14.296875 48 l 1
 13.642578125 42.8955078125 12.861328125 38.7119140625 12.076171875 34.78515625 c 0
 11.888671875 33.84765625 11.69921875 32.9208984375 11.51171875 32 c 2
 0 32 l 1
 0 24 l 1
 9.962890625 24 l 1
 8.841796875 17.576171875 7.998046875 10.3505859375 7.998046875 0 c 1
 15.998046875 0 l 1
 15.998046875 10.666015625 16.8798828125 17.5224609375 18.080078125 24 c 2
 25.9609375 24 l 1
 24.83984375 17.576171875 23.998046875 10.3505859375 23.998046875 0 c 1
 31.998046875 0 l 1
 31.998046875 10.666015625 32.8798828125 17.5224609375 34.080078125 24 c 2
 48 24 l 1
 48 32 l 1
 35.67578125 32 l 1
 35.7568359375 32.4013671875 35.837890625 32.8056640625 35.919921875 33.21484375 c 0
 36.7734375 37.484375 37.634765625 42.1767578125 38.34375 48 c 2
 48 48 l 1
 48 56 l 1
 39.146484375 56 l 1
 39.669921875 62.5224609375 39.998046875 70.322265625 39.998046875 80 c 1
 31.998046875 80 l 1
 31.998046875 70.1513671875 31.666015625 62.40234375 31.134765625 56 c 2
 23.146484375 56 l 1
 23.669921875 62.5224609375 23.998046875 70.322265625 23.998046875 80 c 2
 15.998046875 80 l 1
22.34375 48 m 2
 30.294921875 48 l 1
 29.640625 42.8955078125 28.861328125 38.7119140625 28.076171875 34.78515625 c 0
 27.888671875 33.84765625 27.69921875 32.9208984375 27.51171875 32 c 2
 19.67578125 32 l 1
 19.7568359375 32.4013671875 19.837890625 32.8056640625 19.919921875 33.21484375 c 0
 20.7734375 37.484375 21.634765625 42.1767578125 22.34375 48 c 2
EndSplineSet
EndChar

StartChar: dollar
Encoding: 4 36 14
Width: 56
VWidth: 104
Flags: HW
LayerCount: 2
Fore
SplineSet
24.005859375 80 m 1
 24.005859375 73.517578125 23.6796875 68.4423828125 23.154296875 64.00390625 c 0
 15.2939453125 63.9404296875 10.0341796875 62.9931640625 6.21484375 61.083984375 c 0
 2.259765625 59.1064453125 0 55.3359375 0 52 c 0
 0 49.1650390625 0.9970703125 46.4921875 2.6171875 44.501953125 c 0
 4.2373046875 42.51171875 6.333984375 41.1591796875 8.5625 40.119140625 c 0
 11.58203125 38.7099609375 14.9423828125 37.8125 18.3515625 37.068359375 c 0
 17.8056640625 33.4677734375 17.3095703125 29.427734375 16.916015625 24.712890625 c 1
 14.384765625 25.3330078125 12.78515625 26.296875 11.228515625 27.333984375 c 0
 8.5703125 29.1064453125 5.3408203125 32.005859375 0.005859375 32.005859375 c 1
 0.005859375 23.994140625 l 1
 2.669921875 23.994140625 3.44140625 22.8935546875 6.783203125 20.666015625 c 0
 9.00390625 19.185546875 12.05078125 17.609375 16.388671875 16.71875 c 0
 16.146484375 11.8349609375 16.005859375 6.3173828125 16.005859375 0 c 1
 24.005859375 0 l 1
 24.005859375 6.0703125 24.1318359375 11.3427734375 24.353515625 15.994140625 c 0
 32.4931640625 16.0205078125 37.8984375 16.9677734375 41.798828125 18.91796875 c 0
 45.7548828125 20.8955078125 48.01171875 24.6650390625 48.01171875 28 c 0
 48.01171875 30.8349609375 47.0146484375 33.5078125 45.39453125 35.498046875 c 0
 43.7744140625 37.48828125 41.6796875 38.8408203125 39.451171875 39.880859375 c 0
 35.814453125 41.578125 31.6796875 42.53515625 27.564453125 43.373046875 c 0
 27.685546875 43.9951171875 27.806640625 44.609375 27.927734375 45.216796875 c 0
 28.6220703125 48.689453125 29.3310546875 51.99609375 29.958984375 55.53125 c 1
 33.1708984375 54.9404296875 35.005859375 53.8505859375 36.783203125 52.666015625 c 0
 39.44140625 50.8935546875 42.669921875 47.994140625 48.005859375 47.994140625 c 1
 48.005859375 56.005859375 l 1
 45.3408203125 56.005859375 44.5703125 57.1064453125 41.228515625 59.333984375 c 0
 38.9228515625 60.87109375 35.7275390625 62.51171875 31.12109375 63.380859375 c 0
 31.662109375 68.048828125 32.005859375 73.3857421875 32.005859375 80 c 2
 24.005859375 80 l 1
21.91796875 55.966796875 m 2
 21.3564453125 52.94140625 20.7265625 49.998046875 20.083984375 46.78515625 c 0
 19.966796875 46.197265625 19.84765625 45.599609375 19.73046875 44.994140625 c 1
 16.6767578125 45.689453125 13.9384765625 46.453125 11.94921875 47.380859375 c 0
 10.427734375 48.0908203125 9.3994140625 48.86328125 8.83203125 49.560546875 c 0
 8.2646484375 50.2578125 8.01171875 50.8349609375 8.01171875 52 c 0
 8.01171875 52.6640625 7.7529296875 52.8935546875 9.796875 53.916015625 c 0
 11.6484375 54.841796875 15.5126953125 55.794921875 21.91796875 55.966796875 c 1
 21.91796875 55.966796875 l 2
26.19140625 35.462890625 m 1
 30.07421875 34.6416015625 33.626953125 33.7548828125 36.060546875 32.619140625 c 0
 37.58203125 31.9091796875 38.6123046875 31.13671875 39.1796875 30.439453125 c 0
 39.7470703125 29.7421875 40 29.1650390625 40 28 c 0
 40 27.3349609375 40.259765625 27.1064453125 38.21484375 26.083984375 c 0
 36.2490234375 25.1005859375 32.0126953125 24.087890625 24.87109375 24.01171875 c 1
 25.2333984375 28.375 25.6884765625 32.111328125 26.19140625 35.462890625 c 1
EndSplineSet
EndChar

StartChar: percent
Encoding: 5 37 15
Width: 56
VWidth: 104
Flags: HW
LayerCount: 2
Fore
SplineSet
12 80 m 0
 5.3515625 80 0 74.6474609375 0 68 c 2
 0 60 l 2
 0 53.3515625 5.3515625 48 12 48 c 0
 18.6474609375 48 24 53.3515625 24 60 c 2
 24 68 l 2
 24 74.6474609375 18.6474609375 80 12 80 c 0
12 72 m 0
 14.2158203125 72 16 70.2158203125 16 68 c 2
 16 60 l 2
 16 57.783203125 14.2158203125 56 12 56 c 0
 9.783203125 56 8 57.7841796875 8 60 c 2
 8 68 l 2
 8 70.216796875 9.7841796875 72 12 72 c 0
36 32 m 0
 29.3525390625 32 24.0009765625 26.6474609375 24.0009765625 20 c 2
 24.0009765625 12 l 2
 24.0009765625 5.3515625 29.3525390625 0 36 0 c 0
 42.6484375 0 48.0009765625 5.3515625 48.0009765625 12 c 2
 48.0009765625 20 l 2
 48.0009765625 26.6474609375 42.6484375 32 36 32 c 0
36 24 m 0
 38.216796875 24 40 22.2158203125 40 20 c 2
 40 12 l 2
 40 9.783203125 38.216796875 8 36 8 c 0
 33.7841796875 8 32 9.783203125 32 12 c 2
 32 20 l 2
 32 22.2158203125 33.7841796875 24 36 24 c 0
40.0009765625 80 m 1
 40.0009765625 70.2216796875 30.74609375 56.3251953125 20.74609375 42.3251953125 c 0
 10.74609375 28.3251953125 0 14.22265625 0 0 c 1
 8.0009765625 0 l 1
 8.0009765625 9.7783203125 17.2548828125 23.6748046875 27.2548828125 37.6748046875 c 0
 37.2548828125 51.6748046875 48 65.77734375 48 80 c 1
 40.0009765625 80 l 1
44.0009765625 80 m 0
 44 56 4.0009765625 24 4.0009765625 0 c 1024
EndSplineSet
EndChar

StartChar: ampersand
Encoding: 6 38 16
Width: 64
VWidth: 104
Flags: HW
LayerCount: 2
Fore
SplineSet
28 80 m 0
 24.6669921875 80 20.20703125 78.73046875 15.896484375 75.0361328125 c 0
 11.5869140625 71.341796875 8.0009765625 65 8.0009765625 56 c 0
 8.0009765625 51.2041015625 10.2685546875 46.4951171875 13.447265625 41.5009765625 c 0
 10.765625 39.0859375 8.142578125 36.6123046875 5.9189453125 33.9248046875 c 0
 2.611328125 29.9287109375 0 25.3330078125 0 20 c 0
 0 13.5556640625 0.9833984375 8.6181640625 3.876953125 5.0009765625 c 0
 6.7705078125 1.3837890625 11.333984375 -0.0009765625 16 -0.0009765625 c 0
 20.7783203125 -0.0009765625 24.650390625 2.7646484375 28.1796875 6.0869140625 c 0
 30.814453125 8.56640625 33.220703125 11.5625 35.490234375 14.626953125 c 1
 44.9423828125 4.7255859375 53.3095703125 -2.9599609375 53.3095703125 -2.9599609375 c 1
 58.69140625 2.9599609375 l 1
 58.69140625 2.9599609375 49.8125 11.11328125 40.1376953125 21.34765625 c 0
 43.41796875 26.4814453125 45.3447265625 29.994140625 46.390625 31.9990234375 c 2
 56.0009765625 31.9990234375 l 1
 56.0009765625 40 l 1
 41.5283203125 40 l 1
 40.4228515625 37.7880859375 l 1
 40.4228515625 37.7880859375 38.0634765625 33.1171875 34.556640625 27.4423828125 c 1
 30.755859375 31.703125 27.0791015625 36.05859375 24.0185546875 40.228515625 c 0
 27.5732421875 43.345703125 31.1572265625 46.541015625 34.08203125 50.07421875 c 0
 37.3896484375 54.0703125 40 58.666015625 40 64 c 0
 40 68.666015625 38.8408203125 72.5458984375 36.7001953125 75.3994140625 c 0
 34.560546875 78.2529296875 31.333984375 80 28 80 c 0
28 71.9990234375 m 0
 28.6669921875 71.9990234375 29.4404296875 71.74609375 30.30078125 70.599609375 c 0
 31.16015625 69.453125 32.0009765625 67.3330078125 32.0009765625 64 c 0
 32.0009765625 61.3330078125 30.6123046875 58.4287109375 27.9189453125 55.1748046875 c 0
 25.7333984375 52.533203125 22.7119140625 49.7705078125 19.5380859375 46.958984375 c 1
 17.2490234375 50.9775390625 16 54.3759765625 16 56 c 0
 16 63 18.4130859375 66.6572265625 21.103515625 68.962890625 c 0
 23.7939453125 71.2685546875 27.333984375 71.9990234375 28 71.9990234375 c 0
18.0322265625 34.859375 m 1
 21.59375 30.0673828125 25.7373046875 25.20703125 29.94140625 20.568359375 c 0
 27.607421875 17.32421875 25.1123046875 14.1865234375 22.6962890625 11.912109375 c 0
 19.8505859375 9.234375 17.22265625 8 16 8 c 0
 12.6669921875 8 11.2294921875 8.615234375 10.1240234375 9.998046875 c 0
 9.017578125 11.380859375 8 14.4443359375 8.0009765625 20 c 0
 8.0009765625 22.6669921875 9.388671875 25.5703125 12.08203125 28.82421875 c 0
 13.7001953125 30.7802734375 15.7939453125 32.8056640625 18.0322265625 34.859375 c 1
EndSplineSet
EndChar

StartChar: quotesingle
Encoding: 7 39 17
Width: 32
VWidth: 112
Flags: HW
LayerCount: 2
Fore
SplineSet
8 88 m 1
 8 76 0 56 0 56 c 1
 8 56 l 1
 8 56 24 68 24 80 c 2
 24 88 l 1
 8 88 l 1
EndSplineSet
EndChar

StartChar: parenleft
Encoding: 8 40 18
Width: 40
Flags: HW
LayerCount: 2
Fore
SplineSet
21.1708984375 90.828125 m 1
 20.1142578125 89.7705078125 14.0830078125 85.859375 9.134765625 78.1630859375 c 0
 4.1875 70.466796875 0 58.5927734375 -0 40 c 0
 -0 21.4072265625 4.1875 9.533203125 9.134765625 1.8369140625 c 0
 14.0830078125 -5.859375 20.1142578125 -9.771484375 21.1708984375 -10.8291015625 c 1
 26.828125 -5.171875 l 2
 23.884765625 -2.228515625 19.9169921875 -0.140625 15.8642578125 6.1630859375 c 0
 11.8125 12.466796875 8 22.5927734375 8 40 c 0
 8 57.4072265625 11.8125 67.533203125 15.8642578125 73.8369140625 c 0
 19.9169921875 80.140625 23.884765625 82.228515625 26.828125 85.1708984375 c 2
 21.1708984375 90.828125 l 1
EndSplineSet
EndChar

StartChar: parenright
Encoding: 9 41 19
Width: 40
Flags: HW
LayerCount: 2
Fore
SplineSet
10.8291015625 90.8291015625 m 2
 5.171875 85.171875 l 2
 8.115234375 82.2294921875 12.0830078125 80.1416015625 16.134765625 73.837890625 c 0
 20.1875 67.5341796875 24 57.408203125 24 40.0009765625 c 0
 24 22.59375 20.1884765625 12.4677734375 16.1357421875 6.1640625 c 0
 12.083984375 -0.1396484375 8.1142578125 -2.228515625 5.171875 -5.1708984375 c 1
 10.8291015625 -10.8271484375 l 2
 11.8857421875 -9.7705078125 17.91796875 -5.8583984375 22.865234375 1.837890625 c 0
 27.8125 9.5341796875 32 21.408203125 32 40.0009765625 c 0
 32 58.59375 27.8125 70.4677734375 22.8642578125 78.1640625 c 0
 17.9169921875 85.8603515625 11.88671875 89.771484375 10.8291015625 90.8291015625 c 2
EndSplineSet
EndChar

StartChar: asterisk
Encoding: 10 42 20
Width: 48
Flags: HW
LayerCount: 2
Fore
SplineSet
15.9970703125 88 m 1
 15.9970703125 76 l 1
 6.3974609375 83.19921875 l 1
 1.5966796875 76.798828125 l 1
 13.3291015625 67.998046875 l 1
 1.5966796875 59.19921875 l 1
 6.3974609375 52.798828125 l 1
 15.9970703125 59.998046875 l 1
 15.9970703125 48 l 1
 23.9970703125 48 l 1
 23.9970703125 59.998046875 l 1
 33.5966796875 52.798828125 l 1
 38.3974609375 59.19921875 l 1
 26.6650390625 68 l 1
 38.3974609375 76.798828125 l 1
 33.5966796875 83.19921875 l 1
 23.9970703125 76 l 1
 23.9970703125 88 l 1
 15.9970703125 88 l 1
EndSplineSet
EndChar

StartChar: plus
Encoding: 11 43 21
Width: 48
Flags: HW
LayerCount: 2
Fore
SplineSet
16.0009765625 56 m 1
 16.0009765625 40 l 1
 0.0009765625 40 l 1
 0.0009765625 32 l 1
 16.0009765625 32 l 1
 16.0009765625 16 l 1
 24.0009765625 16 l 1
 24.0009765625 32 l 1
 40.0009765625 32 l 1
 40.0009765625 40 l 1
 24.0009765625 40 l 1
 24.0009765625 56 l 1
 16.0009765625 56 l 1
EndSplineSet
EndChar

StartChar: comma
Encoding: 12 44 22
Width: 32
VWidth: 40
Flags: HW
LayerCount: 2
Fore
SplineSet
8 16 m 1
 8 4 0 -16 0 -16 c 1
 8 -16 l 1
 8 -16 24 -4 24 8 c 2
 24 16 l 1
 8 16 l 1
EndSplineSet
EndChar

StartChar: hyphen
Encoding: 13 45 23
Width: 40
VWidth: 56
Flags: HW
LayerCount: 2
Fore
SplineSet
8 24 m 1
 32 24 l 1
 32 32 l 1
 8 32 l 1
 8 24 l 1
EndSplineSet
EndChar

StartChar: period
Encoding: 14 46 24
Width: 32
VWidth: 40
Flags: HW
LayerCount: 2
Fore
SplineSet
8 0 m 1
 24 0 l 1
 24 16 l 1
 8 16 l 1
 8 0 l 1
EndSplineSet
EndChar

StartChar: slash
Encoding: 15 47 25
Width: 32
VWidth: 104
Flags: HW
LayerCount: 2
Fore
SplineSet
15.9990234375 80 m 1
 15.9990234375 57.77734375 0 33.3330078125 0 0 c 1
 8 0 l 1
 8 30.6669921875 24 54.22265625 24 80 c 1
 15.9990234375 80 l 1
EndSplineSet
EndChar

StartChar: braceleft
Encoding: 91 123 26
Width: 40
Flags: HW
LayerCount: 2
Fore
SplineSet
32.052734375 92 m 1
 25.802734375 92 21.193359375 91.4580078125 17.5712890625 90.2119140625 c 0
 13.94921875 88.9658203125 11.1171875 86.6865234375 9.9052734375 83.6845703125 c 0
 8.693359375 80.681640625 9.095703125 77.6611328125 9.841796875 74.923828125 c 0
 10.587890625 72.1875 11.75390625 69.5419921875 12.8759765625 66.9248046875 c 0
 15.1201171875 61.6884765625 16.927734375 56.642578125 16.306640625 53.291015625 c 0
 15.99609375 51.615234375 15.29296875 50.1953125 13.3564453125 48.578125 c 0
 11.4814453125 47.0126953125 8.3076171875 45.3740234375 3.4501953125 44 c 2
 0.1044921875 44 l 1
 0.0517578125 44 l 1
 0 36 l 1
 0 36 1.0537109375 35.986328125 2.09375 35.9794921875 c 0
 2.5595703125 35.9765625 3 35.9755859375 3.3818359375 35.9775390625 c 0
 7.0654296875 34.6708984375 9.3681640625 33.17578125 10.7099609375 31.75 c 0
 12.1279296875 30.2431640625 12.6865234375 28.8154296875 12.888671875 26.9951171875 c 0
 13.29296875 23.35546875 11.5439453125 18.123046875 9.7578125 12.7646484375 c 0
 8.8642578125 10.0859375 7.99609375 7.3671875 7.6259765625 4.5439453125 c 0
 7.2548828125 1.720703125 7.4072265625 -1.3916015625 9.0283203125 -4.19140625 c 0
 10.6484375 -6.9912109375 13.56640625 -9.0302734375 17.3193359375 -10.23828125 c 0
 21.072265625 -11.4453125 25.8017578125 -12 32.0517578125 -12 c 1
 32.0517578125 -4 l 2
 26.3017578125 -4 22.2822265625 -3.4306640625 19.76953125 -2.6220703125 c 0
 17.2568359375 -1.8134765625 16.3935546875 -0.9462890625 15.951171875 -0.18359375 c 0
 15.509765625 0.580078125 15.318359375 1.685546875 15.5576171875 3.5029296875 c 0
 15.7958984375 5.3203125 16.490234375 7.6640625 17.3466796875 10.2353515625 c 0
 19.060546875 15.376953125 21.560546875 21.39453125 20.83984375 27.87890625 c 0
 20.4794921875 31.12109375 19.1318359375 34.474609375 16.53515625 37.2333984375 c 0
 15.7705078125 38.0458984375 14.8798828125 38.791015625 13.921875 39.5009765625 c 1
 15.6357421875 40.39453125 17.185546875 41.353515625 18.482421875 42.4365234375 c 0
 21.6552734375 45.0849609375 23.5458984375 48.447265625 24.1728515625 51.833984375 c 0
 25.4267578125 58.607421875 22.484375 64.8115234375 20.228515625 70.0751953125 c 0
 19.1005859375 72.7080078125 18.078125 75.125 17.5595703125 77.029296875 c 0
 17.0400390625 78.93359375 17.09765625 80.130859375 17.32421875 80.6904296875 c 0
 17.5498046875 81.25 17.9365234375 81.876953125 20.173828125 82.646484375 c 0
 22.4111328125 83.416015625 26.3017578125 84 32.0517578125 84 c 2
 32.052734375 92 l 1
EndSplineSet
EndChar

StartChar: colon
Encoding: 26 58 27
Width: 32
Flags: HW
LayerCount: 2
Fore
SplineSet
8 40 m 1
 24 40 l 1
 24 56 l 1
 8 56 l 1
 8 40 l 1
8 0 m 1
 24 0 l 1
 24 16 l 1
 8 16 l 1
 8 0 l 1
EndSplineSet
EndChar

StartChar: semicolon
Encoding: 27 59 28
Width: 32
Flags: HW
LayerCount: 2
Fore
SplineSet
8 16 m 1
 8.0009765625 4 0 -16 0 -16 c 1
 8.0009765625 -16 l 1
 8.0009765625 -16 24 -4 24 8 c 2
 24 16 l 1
 8 16 l 1
8 40 m 1
 24 40 l 1
 24 56 l 1
 8 56 l 1
 8 40 l 1
EndSplineSet
EndChar

StartChar: less
Encoding: 28 60 29
Width: 48
Flags: HW
LayerCount: 2
Fore
SplineSet
40 56 m 1
 34 56 27.23046875 52.65625 20.015625 49.0849609375 c 0
 12.7998046875 45.5126953125 5.7099609375 41.4609375 2.1064453125 39.5224609375 c 2
 2.2119140625 32.421875 l 2
 6.0703125 30.4931640625 13.5498046875 26.455078125 20.861328125 22.90234375 c 0
 24.5166015625 21.1259765625 28.138671875 19.46484375 31.359375 18.2109375 c 0
 34.5791015625 16.9560546875 37.1513671875 16 40 16 c 1
 40 24 l 1
 39.6611328125 24 37.1396484375 24.5439453125 34.2626953125 25.6650390625 c 0
 31.384765625 26.78515625 27.904296875 28.3740234375 24.357421875 30.09765625 c 0
 20.1796875 32.126953125 16.15625 34.208984375 12.513671875 36.1044921875 c 1
 15.8798828125 37.9482421875 19.625 39.96484375 23.564453125 41.9150390625 c 0
 30.4892578125 45.34375 38 48 40 48 c 2
 40 56 l 1
EndSplineSet
EndChar

StartChar: equal
Encoding: 29 61 30
Width: 40
Flags: HW
LayerCount: 2
Fore
SplineSet
0 40 m 1
 31.9990234375 40 l 1
 31.9990234375 48 l 1
 0 48 l 1
 0 40 l 1
0.0009765625 16 m 1
 32 16 l 1
 32 24 l 1
 0.0009765625 24 l 1
 0.0009765625 16 l 1
EndSplineSet
EndChar

StartChar: greater
Encoding: 30 62 31
Width: 48
Flags: HW
LayerCount: 2
Fore
SplineSet
0.0009765625 56 m 1
 0.0009765625 48 l 1
 2.0009765625 48 9.51171875 45.34375 16.4365234375 41.9150390625 c 0
 20.3759765625 39.96484375 24.12109375 37.9482421875 27.4873046875 36.1044921875 c 1
 23.8447265625 34.208984375 19.8212890625 32.1279296875 15.6435546875 30.09765625 c 0
 12.0966796875 28.3740234375 8.6162109375 26.78515625 5.7392578125 25.6650390625 c 0
 2.861328125 24.5439453125 0.3408203125 24 0.0009765625 24 c 1
 0.0009765625 16 l 1
 2.849609375 16 5.421875 16.9560546875 8.642578125 18.2109375 c 0
 11.8623046875 19.46484375 15.484375 21.1259765625 19.1396484375 22.90234375 c 0
 26.451171875 26.455078125 33.9306640625 30.4931640625 37.7890625 32.421875 c 2
 37.89453125 39.5224609375 l 2
 34.291015625 41.4609375 27.201171875 45.5126953125 19.9853515625 49.0849609375 c 0
 12.7705078125 52.65625 6.0009765625 56 0.0009765625 56 c 1
 0.0009765625 56 l 1
EndSplineSet
EndChar

StartChar: question
Encoding: 31 63 32
Width: 56
Flags: HW
LayerCount: 2
Fore
SplineSet
16 0 m 1
 32 0 l 1
 32 16 l 1
 16 16 l 1
 16 0 l 1
32 80 m 0
 26 80 20.4052734375 76.1591796875 15.876953125 70.4990234375 c 0
 11.3486328125 64.8388671875 8 57 8 48 c 1
 16 48 l 1
 16 55 18.65234375 61.162109375 22.1240234375 65.501953125 c 0
 25.595703125 69.8408203125 30 72 32 72 c 0
 34.6669921875 72 36.2412109375 70.927734375 37.671875 68.78125 c 0
 39.1025390625 66.634765625 40 63.3330078125 40 60 c 0
 40 53.3330078125 37.107421875 50.767578125 33.009765625 46.1572265625 c 0
 28.912109375 41.546875 24 35.06640625 24 24 c 1
 32 24 l 1
 32 32.93359375 35.0869140625 36.4521484375 38.9892578125 40.8427734375 c 0
 42.8916015625 45.232421875 48 50.6669921875 48.0009765625 60 c 0
 48.0009765625 64.6669921875 46.8974609375 69.365234375 44.3291015625 73.21875 c 0
 41.759765625 77.072265625 37.333984375 80 32 80 c 0
EndSplineSet
EndChar

StartChar: at
Encoding: 32 64 33
Width: 72
Flags: HW
LayerCount: 2
Fore
SplineSet
47.9736328125 16 m 2
 47.951171875 21.53515625 47.873046875 26.4072265625 47.7080078125 30.5 c 2
 47.71484375 30.515625 l 1
 47.7080078125 30.5185546875 l 2
 47.4658203125 36.4892578125 47.0537109375 41.1865234375 46.299293518 44.9708731501 c 0
 45.671875 48.1181640625 44.7880859375 50.732421875 43.1913236233 52.6304851413 c 0
 41.263671875 54.921875 38.4384765625 56.0009765625 36.0009765625 56.0009765625 c 1
 36.0009765625 55.9990234375 l 1
 30.0009765625 55.9990234375 25.1279296875 51.900390625 21.7020376656 46.7615525922 c 0
 18.2177734375 41.53515625 16.0009765625 34.888671875 16.0009765625 26.9198942806 c 0
 16.0009765625 21.5546875 17.005859375 16.8828125 18.9368629087 13.6641688705 c 0
 21.1357421875 9.9990234375 24.6669921875 7.9990234375 28.1475565327 7.9990234375 c 0
 31.6669921875 7.9990234375 34.4521484375 10.0439453125 36.6230223444 12.2154347209 c 0
 37.896484375 13.4892578125 38.970703125 14.818359375 39.9677734375 16.1982421875 c 1
 39.974609375 14.767578125 40.001953125 13.541015625 40.001953125 11.9990234375 c 2
 40.001953125 7.9990234375 l 1
 47.998046875 7.9990234375 l 1
 47.998046875 7.9970703125 l 1
 51.88671875 7.9970703125 55.3359375 9.451171875 57.8098372238 11.8335774648 c 0
 60.0888671875 14.0283203125 61.45703125 16.9306640625 62.3359904331 19.8603104151 c 0
 64.0869140625 25.6962890625 64.001953125 31.9951171875 64.001953125 34.6364022584 c 0
 64.001953125 50.5673828125 60.9111328125 61.484375 55.2670492479 68.8210592353 c 0
 49.435546875 76.4013671875 41.001953125 79.9990234375 32.001953125 79.9990234375 c 2
 32 80 l 2
 20.6669921875 80 11.9677734375 73.8154296875 6.78246999302 64.0211927263 c 0
 1.9697265625 54.9306640625 0 42.3828125 0 26.6218489917 c 0
 0 18.853515625 0.478515625 11.5751953125 2.02838014239 5.71245811421 c 0
 3.669921875 -0.4970703125 6.5849609375 -5.3896484375 11.3737597056 -8.90134275037 c 0
 20.2216796875 -15.3896484375 33.876953125 -16 55.998046875 -16 c 1
 55.998046875 -8 l 1
 34.119140625 -8 21.7724609375 -6.6103515625 15.6375243551 -2.11121781502 c 0
 12.9091796875 -0.1103515625 11.08203125 2.7451171875 9.85359338566 7.39161307895 c 0
 8.5234375 12.4228515625 8.001953125 19.150390625 8.001953125 26.70830826 c 0
 8.001953125 41.62109375 10.0322265625 53.0732421875 14.2389772825 61.0195550559 c 0
 18.0341796875 68.1884765625 23.3330078125 71.998046875 32.0717710513 71.998046875 c 0
 39 71.998046875 44.5673828125 69.603515625 48.7298311674 64.1928095618 c 0
 53.0927734375 58.521484375 55.998046875 49.4248046875 55.998046875 34.4905658641 c 0
 55.998046875 31.99609375 55.9169921875 26.3046875 54.6708442889 22.1504273515 c 0
 54.046875 20.0703125 53.158203125 18.4677734375 52.0467171828 17.3965272017 c 0
 51.162109375 16.5439453125 50.107421875 16 47.99609375 16 c 2
 47.9736328125 16 l 2
36.421875 48.005859375 m 1
 36.7060546875 48.009765625 36.6484375 47.9794921875 36.826990173 47.7673330376 c 0
 37.2451171875 47.2705078125 37.958984375 45.8828125 38.5015288113 43.1604743257 c 0
 39.005859375 40.6298828125 39.3720703125 36.896484375 39.173095073 33.9181156782 c 0
 38.9375 30.3916015625 37.65234375 27.529296875 35.693235525 24.2639333202 c 0
 34.1708984375 21.7265625 32.544921875 19.451171875 31.1061008576 18.0123508576 c 0
 29.548828125 16.455078125 28.3330078125 16 28 16 c 0
 27.3330078125 16 26.865234375 16 26.1059531053 17.2649404035 c 0
 24.994140625 19.1171875 24 22.4443359375 24 27.0042519252 c 0
 24 33.111328125 25.783203125 38.4638671875 28.3022093892 42.2423765837 c 0
 30.873046875 46.0986328125 34 48 36.1001224327 48 c 0
 36.1953125 48 36.3271484375 48.00390625 36.421875 48.0078125 c 1
 36.421875 48.005859375 l 1
EndSplineSet
EndChar

StartChar: A
Encoding: 33 65 34
Width: 48
Flags: HW
LayerCount: 2
Fore
SplineSet
36.0009765625 80 m 2
 33.16796875 80 30.7802734375 78.6982421875 28.6689453125 76.99609375 c 0
 26.5576171875 75.2939453125 24.6142578125 73.0634765625 22.6943359375 70.40234375 c 0
 18.8544921875 65.080078125 15.1455078125 57.9970703125 11.8115234375 50.046875 c 0
 5.1435546875 34.146484375 0.0009765625 14.9521484375 0.0009765625 0 c 1
 8.0009765625 0 l 1
 8.0009765625 6.865234375 9.345703125 15.3251953125 11.5419921875 24 c 2
 32.0009765625 24 l 1
 32.0009765625 0 l 1
 39.9990234375 0 l 1
 39.9990234375 80 l 1
 36.0009765625 80 l 2
32.0009765625 69.126953125 m 1
 32.0009765625 32 l 1
 13.7880859375 32 l 1
 15.3759765625 37.154296875 17.2099609375 42.234375 19.1884765625 46.953125 c 0
 22.3544921875 54.5029296875 25.8974609375 61.169921875 29.1826171875 65.72265625 c 0
 30.169921875 67.0908203125 31.1083984375 68.18359375 32.0009765625 69.126953125 c 1
EndSplineSet
EndChar

StartChar: B
Encoding: 34 66 35
Width: 48
Flags: HW
LayerCount: 2
Fore
SplineSet
9.2919921875 80 m 1
 8.2861328125 77.4853515625 l 1
 8.2861328125 77.4853515625 6.1025390625 71.9365234375 4.0595703125 60.185546875 c 0
 2.015625 48.4345703125 -0 30.205078125 -0 4 c 2
 -0 0 l 1
 3.9990234375 0 l 2
 16.2216796875 0 24.6435546875 0.849609375 30.7880859375 3.921875 c 0
 36.93359375 6.9951171875 39.9990234375 13.111328125 39.9990234375 20 c 0
 39.9990234375 27.3330078125 35.9833984375 32.8525390625 31.1201171875 35.892578125 c 0
 30.1455078125 36.5009765625 29.1279296875 36.9765625 28.1083984375 37.4345703125 c 1
 28.7939453125 37.955078125 29.48046875 38.408203125 30.1572265625 39.0107421875 c 0
 35.26171875 43.5478515625 39.9990234375 50.6669921875 39.9990234375 60 c 0
 39.9990234375 65 37.9560546875 69.2001953125 35.078125 72.078125 c 0
 32.19921875 74.95703125 28.6435546875 76.6689453125 25.2646484375 77.794921875 c 0
 18.505859375 80.0478515625 12 80 12 80 c 1
 9.2919921875 80 l 1
14.8505859375 71.796875 m 0
 16.939453125 71.60546875 19.6904296875 71.220703125 22.734375 70.2060546875 c 0
 25.35546875 69.33203125 27.7998046875 68.04296875 29.4208984375 66.421875 c 0
 31.04296875 64.7998046875 32 63 32 60 c 0
 32 53.3330078125 28.7373046875 48.4521484375 24.841796875 44.990234375 c 0
 22.89453125 43.2587890625 20.8017578125 41.9404296875 19.0673828125 41.099609375 c 0
 17.3330078125 40.2587890625 15.6669921875 40 16 40 c 1
 16 32 l 1
 19.333984375 32 23.7431640625 31.068359375 26.8798828125 29.1083984375 c 0
 30.015625 27.1484375 32 24.6669921875 32 20 c 0
 32 14.888671875 31.06640625 13.0048828125 27.2109375 11.0771484375 c 0
 23.84375 9.3935546875 17.4423828125 8.35546875 8.078125 8.1064453125 c 1
 8.2861328125 31.5546875 10.0966796875 48.2119140625 11.94140625 58.814453125 c 0
 13.1650390625 65.8544921875 14.1474609375 69.5068359375 14.8505859375 71.796875 c 0
EndSplineSet
EndChar

StartChar: C
Encoding: 35 67 36
Width: 48
Flags: HW
LayerCount: 2
Fore
SplineSet
24 80 m 0
 16.22265625 80 9.7626953125 74.5205078125 5.875 66.19140625 c 0
 1.98828125 57.8623046875 0 46.380859375 0 32 c 0
 0 22.5224609375 0.947265625 15.12109375 3.3193359375 9.5439453125 c 0
 5.6904296875 3.9677734375 10.396484375 0 16.0009765625 0 c 0
 24.22265625 -0 30.107421875 6.388671875 33.955078125 12.9853515625 c 0
 37.8037109375 19.58203125 40.0009765625 26.666015625 40.0009765625 32 c 1
 32.0009765625 32 l 1
 32.0009765625 29.3330078125 30.197265625 22.4189453125 27.044921875 17.015625 c 0
 23.8935546875 11.6123046875 19.7783203125 8 16.0009765625 8 c 0
 13.6044921875 8 12.3095703125 8.845703125 10.6806640625 12.6748046875 c 0
 9.052734375 16.5048828125 8 23.1025390625 8 32 c 0
 8 45.619140625 10.01171875 56.1376953125 13.125 62.80859375 c 0
 16.23828125 69.4794921875 19.7783203125 72 24 72 c 0
 27.333984375 72 29.115234375 71.228515625 30.171875 70.171875 c 0
 31.2294921875 69.1142578125 32.0009765625 67.333984375 32.0009765625 64 c 1
 40.0009765625 64 l 1
 40.0009765625 68.6669921875 38.771484375 72.8857421875 35.8291015625 75.828125 c 0
 32.8857421875 78.771484375 28.6669921875 80 24 80 c 0
EndSplineSet
EndChar

StartChar: E
Encoding: 37 69 37
Width: 48
Flags: HW
LayerCount: 2
Fore
SplineSet
40.001953125 80 m 2
 28.001953125 80 17.951171875 80.33203125 10.439453125 74.072265625 c 0
 2.927734375 67.8134765625 0 56.400390625 0 36 c 0
 0 28 -0.0146484375 21.9541015625 0.45703125 17.11328125 c 0
 0.927734375 12.2724609375 1.8701171875 8.359375 4.490234375 5.365234375 c 0
 7.1103515625 2.37109375 10.9306640625 1.0869140625 15.30859375 0.53125 c 0
 19.6865234375 -0.0244140625 25 0 32 0 c 1
 32 8 l 1
 25 8 19.8134765625 8.0224609375 16.31640625 8.46875 c 0
 12.8193359375 8.9130859375 11.3916015625 9.626953125 10.51171875 10.6328125 c 0
 9.6318359375 11.638671875 8.82421875 13.7275390625 8.419921875 17.88671875 c 0
 8.1025390625 21.1572265625 8.0244140625 25.5380859375 8.005859375 31.150390625 c 0
 8.0830078125 31.2783203125 8.1865234375 31.443359375 8.328125 31.65625 c 0
 8.8505859375 32.4404296875 9.7841796875 33.5869140625 11.400390625 34.798828125 c 0
 14.6328125 37.22265625 20.6669921875 40 32 40 c 1
 32 48 l 1
 20.5908203125 48 12.9970703125 45.384765625 8.1171875 42.251953125 c 1
 8.7158203125 57.4853515625 11.5810546875 64.609375 15.560546875 67.92578125 c 0
 20.0498046875 71.666015625 28.001953125 72 40.001953125 72 c 1
 40.001953125 80 l 2
EndSplineSet
EndChar

StartChar: D
Encoding: 36 68 38
Width: 48
Flags: HW
LayerCount: 2
Fore
SplineSet
9.2919921875 80 m 1
 8.2861328125 77.4853515625 l 1
 8.2861328125 77.4853515625 6.1025390625 71.9365234375 4.0595703125 60.185546875 c 0
 2.015625 48.4345703125 -0 30.205078125 -0 4 c 2
 -0 0 l 1
 4 0 l 2
 11.779296875 0 20.3359375 4.6357421875 27.43359375 12.2783203125 c 0
 34.5302734375 19.9208984375 40.0029296875 30.888671875 40.0029296875 44 c 0
 40.0029296875 56.6669921875 36.8037109375 65.755859375 31.4755859375 71.67578125 c 0
 26.1474609375 77.595703125 18.8896484375 80 12 80 c 2
 9.2919921875 80 l 1
14.8408203125 71.763671875 m 0
 18.8525390625 71.248046875 22.5517578125 69.6328125 25.529296875 66.32421875 c 0
 29.2021484375 62.244140625 32.0029296875 55.3330078125 32.0029296875 44 c 0
 32.0029296875 33.111328125 27.474609375 24.0791015625 21.5712890625 17.7216796875 c 0
 17.2783203125 13.0986328125 12.1826171875 10.0810546875 8.0908203125 8.7666015625 c 1
 8.3291015625 31.84765625 10.115234375 48.3154296875 11.94140625 58.814453125 c 0
 13.15625 65.802734375 14.134765625 69.458984375 14.8408203125 71.763671875 c 0
EndSplineSet
EndChar

StartChar: F
Encoding: 38 70 39
Width: 48
Flags: HW
LayerCount: 2
Fore
SplineSet
31.490234375 80.03125 m 1
 28.75 79.9833984375 26.0947265625 79.8076171875 23.48828125 79.30078125 c 0
 18.2763671875 78.287109375 13.2216796875 75.5439453125 9.671875 70.21875 c 0
 2.572265625 59.5693359375 -0 40.2001953125 -0 0 c 1
 8 0 l 1
 8 13.00390625 8.365234375 23.7470703125 9.029296875 32.576171875 c 0
 9.5791015625 33.2294921875 10.34765625 33.9951171875 11.4140625 34.794921875 c 0
 14.646484375 37.2197265625 20.6904296875 39.9921875 32.0234375 39.9921875 c 1
 32.0234375 48.0234375 l 1
 22.0771484375 48.0234375 14.99609375 46.0048828125 10.10546875 43.40625 c 1
 11.583984375 54.9384765625 13.7529296875 61.91796875 16.328125 65.78125 c 0
 18.7783203125 69.4560546875 21.2255859375 70.712890625 25.013671875 71.44921875 c 0
 28.8017578125 72.185546875 33.888671875 72 40 72 c 1
 40 80 l 1
 37.0556640625 80 34.23046875 80.078125 31.490234375 80.0302734375 c 1
 31.490234375 80.03125 l 1
EndSplineSet
EndChar

StartChar: G
Encoding: 39 71 40
Width: 48
Flags: HW
LayerCount: 2
Fore
SplineSet
24 80 m 0
 16.22265625 80 9.76171875 74.5205078125 5.875 66.19140625 c 0
 1.98828125 57.8623046875 -0 46.380859375 -0 32 c 0
 -0 22.5224609375 0.947265625 15.12109375 3.3193359375 9.5439453125 c 0
 5.6904296875 3.9677734375 10.396484375 0 16 0 c 0
 22.888671875 -0 29.814453125 2.88671875 33.955078125 9.9853515625 c 0
 38.095703125 17.0830078125 40 27.6669921875 40 44 c 2
 40 48 l 1
 36 48 l 2
 21.3330078125 48 16.205078125 33.265625 16.205078125 33.265625 c 1
 23.794921875 30.7353515625 l 1
 23.794921875 30.7353515625 25.8505859375 37.1103515625 31.9189453125 39.2529296875 c 1
 31.53515625 26.4208984375 29.6005859375 18.396484375 27.044921875 14.015625 c 0
 24.185546875 9.11328125 21.111328125 8 16 8 c 0
 13.6044921875 8 12.3095703125 8.845703125 10.6806640625 12.6748046875 c 0
 9.0517578125 16.5048828125 8 23.1025390625 8 32 c 0
 8 45.619140625 10.01171875 56.1376953125 13.125 62.80859375 c 0
 16.23828125 69.4794921875 19.77734375 72 24 72 c 0
 27.3330078125 72 29.115234375 71.228515625 30.171875 70.171875 c 0
 31.2294921875 69.1142578125 32 67.333984375 32 64 c 1
 40 64 l 1
 40 68.6669921875 38.771484375 72.8857421875 35.8291015625 75.828125 c 0
 32.8857421875 78.771484375 28.6669921875 80 24 80 c 0
EndSplineSet
EndChar

StartChar: H
Encoding: 40 72 41
Width: 48
Flags: HW
LayerCount: 2
Fore
SplineSet
32 80.00390625 m 1
 32 66.6787109375 31.650390625 56.1845703125 31.095703125 47.763671875 c 0
 22.77734375 46.94921875 16.4921875 44.1591796875 11.943359375 41.4296875 c 0
 11.296875 41.0419921875 10.681640625 40.6552734375 10.1015625 40.27734375 c 1
 10.6650390625 44.54296875 11.2939453125 48.07421875 11.921875 51.21484375 c 0
 13.8818359375 61.013671875 16 67.5556640625 16 80 c 1
 8 80 l 1
 8 68.4443359375 6.1181640625 62.986328125 4.078125 52.78515625 c 0
 2.0380859375 42.583984375 -0 28.1904296875 -0 0 c 1
 8 0 l 1
 8 12.4609375 8.39453125 22.0703125 9.005859375 29.763671875 c 0
 9.38671875 30.03515625 9.76171875 30.3154296875 10.15234375 30.5859375 c 0
 11.8828125 31.7841796875 13.7607421875 33.19140625 16.05859375 34.5703125 c 0
 19.6611328125 36.7314453125 24.21484375 38.841796875 30.4453125 39.65234375 c 1
 28.1181640625 15.4365234375 24 12.4375 24 0.00390625 c 1
 32 0.00390625 l 1
 32 14.6669921875 40 15.6669921875 40 80.00390625 c 1
 32 80.00390625 l 1
EndSplineSet
EndChar

StartChar: I
Encoding: 41 73 42
Width: 40
Flags: HW
LayerCount: 2
Fore
SplineSet
8.001953125 80 m 1
 8.001953125 72 l 1
 15.943359375 72 l 1
 15.6123046875 61.03125 13.9130859375 55.0478515625 12.095703125 46.8671875 c 0
 10.193359375 38.30859375 8.255859375 27.654296875 8.0234375 8 c 1
 0 8 l 1
 0 0 l 1
 24 0 l 1
 24 8 l 1
 16.0234375 8 l 1
 16.2451171875 27.080078125 18.056640625 36.8173828125 19.904296875 45.1328125 c 0
 21.685546875 53.1494140625 23.5908203125 60.130859375 23.943359375 72 c 2
 32.001953125 72 l 1
 32.001953125 80 l 1
 8.001953125 80 l 1
EndSplineSet
EndChar

StartChar: J
Encoding: 42 74 43
Width: 48
Flags: HW
LayerCount: 2
Fore
SplineSet
24.0009765625 80 m 1
 24.0009765625 72 l 1
 31.8720703125 72 l 1
 31.560546875 60.5078125 29.970703125 44.9892578125 27.0390625 31.873046875 c 0
 25.4052734375 24.564453125 23.34765625 18.044921875 21.1240234375 13.6962890625 c 0
 20.01171875 11.5224609375 18.8515625 9.9130859375 17.90625 9.025390625 c 0
 16.9599609375 8.1376953125 16.43359375 8 16.0009765625 8 c 0
 11.3349609375 8 10.3623046875 9.4306640625 9.2470703125 12.404296875 c 0
 8.1318359375 15.37890625 8.001953125 20 8.001953125 24 c 1
 0.001953125 24 l 1
 0.001953125 20 -0.1279296875 14.6220703125 1.7568359375 9.595703125 c 0
 3.6416015625 4.5693359375 8.66796875 0 16.0009765625 0 c 0
 18.8623046875 0 21.4326171875 1.36328125 23.3818359375 3.193359375 c 0
 25.3310546875 5.0244140625 26.865234375 7.353515625 28.24609375 10.0546875 c 0
 31.0078125 15.4560546875 33.126953125 22.4365234375 34.845703125 30.1279296875 c 0
 38.2841796875 45.5107421875 40.0009765625 63.6201171875 40.0009765625 76 c 2
 40.0009765625 80 l 1
 24.0009765625 80 l 1
EndSplineSet
EndChar

StartChar: K
Encoding: 43 75 44
Width: 48
Flags: HW
LayerCount: 2
Fore
SplineSet
8 80 m 2
 8 65.3330078125 -0 64.3330078125 0 0 c 1
 8 0 l 1
 8 10.1064453125 8.2021484375 18.5830078125 8.541015625 25.76171875 c 1
 8.912109375 25.3837890625 9.3076171875 24.98046875 9.72265625 24.5546875 c 0
 9.7236328125 24.5537109375 9.7236328125 24.5537109375 9.724609375 24.552734375 c 2
 9.7890625 24.421875 l 1
 9.8046875 24.4296875 9.8154296875 24.4375 9.830078125 24.4443359375 c 0
 12.400390625 21.8095703125 15.7412109375 18.345703125 19.076171875 14.7724609375 c 0
 22.5458984375 11.0556640625 26.009765625 7.21484375 28.537109375 4.1455078125 c 0
 29.80078125 2.611328125 30.8330078125 1.259765625 31.46875 0.3056640625 c 0
 31.740234375 -0.1015625 31.939453125 -0.4404296875 32.041015625 -0.6337890625 c 1
 32.0185546875 -0.5087890625 32 -0.3076171875 32 0.0009765625 c 1
 40 0.0009765625 l 1
 40 1.41796875 39.619140625 2.0751953125 39.2890625 2.7587890625 c 0
 38.958984375 3.443359375 38.572265625 4.072265625 38.125 4.7431640625 c 0
 37.2294921875 6.0869140625 36.07421875 7.5791015625 34.712890625 9.2314453125 c 0
 31.990234375 12.5380859375 28.4560546875 16.447265625 24.92578125 20.2294921875 c 0
 21.6650390625 23.7236328125 18.4091796875 27.10546875 15.849609375 29.7314453125 c 0
 16.875 31.0126953125 17.9013671875 32.4521484375 19.015625 34.0263671875 c 0
 22.1513671875 38.4599609375 25.4619140625 43.958984375 28.525390625 49.6689453125 c 0
 31.587890625 55.3798828125 34.3935546875 61.283203125 36.470703125 66.5322265625 c 0
 38.546875 71.78125 40.001953125 76.1044921875 40.001953125 80.0009765625 c 1
 32 80.0009765625 l 1
 32 78.6416015625 30.955078125 74.337890625 29.03125 69.4755859375 c 0
 27.1083984375 64.6142578125 24.412109375 58.9267578125 21.474609375 53.4501953125 c 0
 18.537109375 47.974609375 15.3486328125 42.6943359375 12.484375 38.6455078125 c 0
 11.3046875 36.9775390625 10.0947265625 35.5146484375 9.052734375 34.3583984375 c 1
 11.2236328125 64.16015625 16.001953125 66.6064453125 16.001953125 80.0009765625 c 1
 8 80 l 2
32.041015625 -0.634765625 m 1
 32.0400390625 -0.634765625 l 1
 32.056640625 -0.66796875 32.0712890625 -0.6982421875 32.0830078125 -0.720703125 c 0
 32.1015625 -0.7587890625 32.107421875 -0.7900390625 32.10546875 -0.8046875 c 2
 32.10546875 -0.806640625 l 1
 32.103515625 -0.80859375 l 1
 32.103515625 -0.810546875 l 1
 32.1015625 -0.810546875 l 1
 32.099609375 -0.810546875 l 1
 32.09765625 -0.810546875 l 1
 32.095703125 -0.810546875 l 1
 32.09375 -0.80859375 l 1
 32.09375 -0.806640625 l 2
 32.0810546875 -0.79296875 32.0595703125 -0.7421875 32.041015625 -0.634765625 c 1
EndSplineSet
EndChar

StartChar: L
Encoding: 44 76 45
Width: 40
Flags: HW
LayerCount: 2
Fore
SplineSet
16.0009765625 80 m 1
 16.0009765625 79.3330078125 15.2431640625 76.380859375 13.794921875 72.8193359375 c 0
 12.3466796875 69.2587890625 10.3427734375 64.8720703125 8.3134765625 60.052734375 c 0
 4.255859375 50.4140625 0 39.0673828125 0 28 c 0
 0 21.8896484375 0.2236328125 17.18359375 1.095703125 13.2578125 c 0
 1.96875 9.3310546875 3.7041015625 5.97265625 6.6005859375 3.80078125 c 0
 12.392578125 -0.5439453125 20.0009765625 0 32.0009765625 0 c 2
 32.0009765625 8 l 1
 20.0009765625 8 13.6083984375 8.5439453125 11.4013671875 10.2001953125 c 0
 10.296875 11.02734375 9.533203125 12.1689453125 8.90625 14.9931640625 c 0
 8.2783203125 17.81640625 8.001953125 22.111328125 8.001953125 28 c 0
 8.001953125 36.93359375 11.74609375 47.5869140625 15.6875 56.9482421875 c 0
 17.658203125 61.6279296875 19.6552734375 65.9912109375 21.2060546875 69.8056640625 c 0
 22.7578125 73.6201171875 24.0009765625 76.6669921875 24.0009765625 80 c 1
 16.0009765625 80 l 1
EndSplineSet
EndChar

StartChar: M
Encoding: 45 77 46
Width: 64
Flags: HW
LayerCount: 2
Fore
SplineSet
20 80 m 1
 16.333984375 80 13.123046875 77.6318359375 10.8203125 74.25390625 c 0
 8.517578125 70.8759765625 6.689453125 66.25 5.1201171875 59.970703125 c 0
 1.98046875 47.4130859375 0 28.1904296875 0 0 c 1
 8 0 l 1
 8 27.8095703125 10.0205078125 46.587890625 12.880859375 58.0302734375 c 0
 14.310546875 63.7509765625 15.9833984375 67.625 17.4296875 69.7470703125 c 0
 18.302734375 71.02734375 18.912109375 71.5439453125 19.3505859375 71.7841796875 c 0
 19.744140625 71.111328125 20.29296875 69.8076171875 20.765625 68.0732421875 c 0
 21.7724609375 64.3837890625 22.52734375 59.0185546875 23.0166015625 53.638671875 c 0
 23.9951171875 42.8779296875 24 32 24 32 c 1
 32 32 l 1
 32 32 32.01171875 42.8134765625 33.4638671875 53.4599609375 c 0
 34.189453125 58.783203125 35.3134765625 64.0625 36.7646484375 67.611328125 c 0
 37.490234375 69.384765625 38.3095703125 70.6953125 38.9326171875 71.34765625 c 0
 39.5556640625 72 39.72265625 72 40 72 c 0
 41.333984375 72 42.0263671875 71.763671875 42.767578125 71.1767578125 c 0
 43.5087890625 70.58984375 44.4072265625 69.42578125 45.2412109375 67.1328125 c 0
 46.9091796875 62.5478515625 48 53.8095703125 48 40 c 0
 48 24.333984375 46.0546875 15.8544921875 44.2412109375 10.8671875 c 0
 43.333984375 8.373046875 42.46875 6.75390625 41.7041015625 5.2880859375 c 0
 40.939453125 3.822265625 40 2.333984375 40 0 c 1
 48.0009765625 0 l 1
 48.0009765625 -0.3330078125 48.0615234375 0.177734375 48.796875 1.5869140625 c 0
 49.5322265625 2.9970703125 50.666015625 5.126953125 51.759765625 8.1328125 c 0
 53.9462890625 14.1455078125 56 23.6669921875 56 40 c 0
 56 54.1904296875 55.0927734375 63.4521484375 52.759765625 69.8671875 c 0
 51.59375 73.07421875 49.9921875 75.66015625 47.7333984375 77.44921875 c 0
 45.474609375 79.2373046875 42.6669921875 80 40 80 c 0
 37.2783203125 80 34.8203125 78.625 33.146484375 76.87109375 c 0
 31.47265625 75.1181640625 30.322265625 72.990234375 29.3603515625 70.6396484375 c 0
 29.142578125 70.10546875 28.96875 69.5166015625 28.7705078125 68.95703125 c 1
 28.671875 69.3583984375 28.58984375 69.7919921875 28.484375 70.177734375 c 0
 27.8623046875 72.4580078125 27.15234375 74.4716796875 26.015625 76.2578125 c 0
 24.8798828125 78.04296875 22.833984375 80 20 80 c 1
 20 80 l 1
EndSplineSet
EndChar

StartChar: N
Encoding: 46 78 47
Width: 64
Flags: HW
LayerCount: 2
Fore
SplineSet
20.0009765625 80 m 2
 17.833984375 80 16.5556640625 78.990234375 15.451171875 77.970703125 c 0
 14.3466796875 76.951171875 13.3828125 75.6875 12.4033203125 74.091796875 c 0
 10.4462890625 70.90234375 8.4833984375 66.3701171875 6.6611328125 60.1201171875 c 0
 3.0146484375 47.6201171875 0 28.28515625 0 -0 c 1
 8.0009765625 -0 l 1
 8.0009765625 27.7138671875 10.986328125 46.3798828125 14.33984375 57.8798828125 c 0
 16.017578125 63.6298828125 17.8046875 67.59765625 19.22265625 69.908203125 c 0
 19.2451171875 69.9423828125 19.2607421875 69.9609375 19.2822265625 69.9951171875 c 1
 20.0078125 68.189453125 20.7890625 65.6689453125 21.5615234375 62.6376953125 c 0
 23.19921875 56.2099609375 24.8251953125 47.73046875 26.5830078125 39.193359375 c 0
 28.3408203125 30.65625 30.220703125 22.0673828125 32.5146484375 15.12109375 c 0
 33.6611328125 11.6474609375 34.896484375 8.5849609375 36.4140625 6.033203125 c 0
 37.931640625 3.4814453125 39.7490234375 1.2001953125 42.7353515625 0.205078125 c 2
 43.3505859375 -0 l 1
 44 -0 l 2
 46 -0 48.0751953125 0.923828125 49.455078125 2.2900390625 c 0
 50.8349609375 3.6552734375 51.6923828125 5.310546875 52.3798828125 7.18359375 c 0
 53.7568359375 10.9287109375 54.474609375 15.7705078125 54.9873046875 22.1806640625 c 0
 56.013671875 35.001953125 56 54 56 80 c 1
 48 80 l 1
 48 54 47.98828125 34.9970703125 47.0126953125 22.818359375 c 0
 46.525390625 16.7294921875 45.7451171875 12.3203125 44.87109375 9.94140625 c 0
 44.681640625 9.4267578125 44.49609375 9.0625 44.326171875 8.751953125 c 1
 44.0087890625 9.1103515625 43.6787109375 9.46875 43.2890625 10.123046875 c 0
 42.2607421875 11.8525390625 41.1513671875 14.4775390625 40.111328125 17.62890625 c 0
 38.029296875 23.93359375 36.16015625 32.34375 34.41796875 40.806640625 c 0
 32.67578125 49.2705078125 31.0517578125 57.7900390625 29.314453125 64.6123046875 c 0
 28.4453125 68.0244140625 27.5595703125 71.0029296875 26.5244140625 73.470703125 c 0
 25.4892578125 75.9375 24.6376953125 78.154296875 21.7890625 79.578125 c 2
 20.9443359375 80 l 1
 20.0009765625 80 l 2
EndSplineSet
EndChar

StartChar: O
Encoding: 47 79 48
Width: 48
Flags: HW
LayerCount: 2
Fore
SplineSet
24 80 m 0
 19.888671875 80 16.095703125 78.205078125 13.099609375 75.439453125 c 0
 10.1025390625 72.6728515625 7.7431640625 68.9638671875 5.8349609375 64.603515625 c 0
 2.01953125 55.8828125 -0 44.4453125 -0 32 c 0
 -0 21.7333984375 0.9208984375 14.330078125 3.3447265625 8.8759765625 c 0
 5.7685546875 3.4208984375 10.666015625 -0 15.9990234375 -0 c 0
 21.3330078125 -0 27.5732421875 2.73828125 32.234375 9.1474609375 c 0
 36.8955078125 15.556640625 39.9990234375 25.4287109375 39.9990234375 40 c 0
 39.9990234375 54.1904296875 39.091796875 63.453125 36.7587890625 69.8671875 c 0
 35.5927734375 73.07421875 33.9912109375 75.66015625 31.732421875 77.4482421875 c 0
 29.4736328125 79.236328125 26.6669921875 80 24 80 c 0
24 72 m 0
 25.3330078125 72 26.025390625 71.763671875 26.7666015625 71.1767578125 c 0
 27.5078125 70.58984375 28.40625 69.42578125 29.240234375 67.1328125 c 0
 30.908203125 62.5478515625 32 53.8095703125 32 40 c 0
 32 26.5712890625 29.103515625 18.443359375 25.7646484375 13.8525390625 c 0
 22.4267578125 9.26171875 18.666015625 8 15.9990234375 8 c 0
 13.3330078125 8 12.23046875 8.5791015625 10.6552734375 12.125 c 0
 9.0791015625 15.669921875 8 22.267578125 8 32 c 0
 8 43.5556640625 9.9794921875 54.1171875 13.1640625 61.396484375 c 0
 14.7568359375 65.0361328125 16.6474609375 67.8271484375 18.525390625 69.560546875 c 0
 20.404296875 71.294921875 22.111328125 72 24 72 c 0
EndSplineSet
EndChar

StartChar: P
Encoding: 48 80 49
Width: 48
Flags: HW
LayerCount: 2
Fore
SplineSet
13.5283203125 80 m 1
 12.4228515625 77.7890625 l 2
 10.5419921875 74.02734375 7.1953125 68.3046875 4.599609375 56.88671875 c 0
 2.0048828125 45.4677734375 0 28.1904296875 0 -0 c 1
 8 -0 l 1
 8 12.9375 8.4443359375 23.3935546875 9.1484375 32.0302734375 c 0
 19.111328125 32.1806640625 26.8203125 34.2666015625 32.158203125 39.0107421875 c 0
 37.7021484375 43.9384765625 40.0009765625 51.3330078125 40.0009765625 60 c 0
 40 69 35.9814453125 74.9814453125 30.7890625 77.578125 c 0
 25.5966796875 80.173828125 20 80 16.0009765625 80 c 2
 13.5283203125 80 l 1
18.4287109375 71.9609375 m 0
 21.6962890625 71.8720703125 24.9638671875 71.5458984375 27.2109375 70.4228515625 c 0
 30.0185546875 69.0185546875 32 67 32 60 c 0
 32 52.6669921875 30.2978515625 48.060546875 26.8427734375 44.9892578125 c 0
 23.6328125 42.1357421875 18.25390625 40.2998046875 9.919921875 40.05078125 c 1
 10.6298828125 46.1396484375 11.484375 51.08203125 12.4013671875 55.1142578125 c 0
 14.3935546875 63.8818359375 16.5400390625 68.28515625 18.4287109375 71.9609375 c 0
EndSplineSet
EndChar

StartChar: Q
Encoding: 49 81 50
Width: 48
Flags: HW
LayerCount: 2
Fore
SplineSet
24.0009765625 80 m 0
 19.8896484375 80 16.095703125 78.2060546875 13.0986328125 75.439453125 c 0
 10.1015625 72.6728515625 7.7431640625 68.9638671875 5.8349609375 64.603515625 c 0
 2.01953125 55.8828125 0.0009765625 44.4443359375 0.0009765625 32 c 0
 0.0009765625 21.7333984375 0.9208984375 14.330078125 3.3447265625 8.875 c 0
 5.76953125 3.4208984375 10.666015625 0 15.9990234375 0 c 0
 20.150390625 0 24.8525390625 1.66015625 28.9306640625 5.41796875 c 2
 34.3310546875 0 l 1
 39.9990234375 5.609375 l 1
 33.9091796875 11.720703125 l 2
 37.6240234375 18.103515625 39.9990234375 27.2529296875 39.9990234375 40 c 0
 39.9990234375 54.1904296875 39.091796875 63.453125 36.7587890625 69.8671875 c 0
 35.5927734375 73.07421875 33.9921875 75.6611328125 31.7333984375 77.44921875 c 0
 29.474609375 79.2373046875 26.66796875 80 24.0009765625 80 c 0
24.0009765625 72 m 0
 25.333984375 72 26.025390625 71.7646484375 26.7666015625 71.177734375 c 0
 27.5078125 70.5908203125 28.4072265625 69.42578125 29.2412109375 67.1328125 c 0
 30.908203125 62.5478515625 32.0009765625 53.8095703125 32.0009765625 40 c 0
 32.0009765625 29.697265625 30.294921875 22.513671875 27.9931640625 17.654296875 c 1
 21.6689453125 24 l 1
 15.9990234375 18.390625 l 1
 23.2900390625 11.076171875 l 1
 20.671875 8.7255859375 18.0205078125 8 15.9990234375 8 c 0
 13.33203125 8 12.2314453125 8.580078125 10.6552734375 12.125 c 0
 9.080078125 15.6708984375 8.0009765625 22.2666015625 8.0009765625 32 c 0
 8.0009765625 43.5556640625 9.98046875 54.1171875 13.1650390625 61.396484375 c 0
 14.7578125 65.0361328125 16.6484375 67.8271484375 18.5263671875 69.560546875 c 0
 20.404296875 71.2939453125 22.1123046875 72 24.0009765625 72 c 0
EndSplineSet
EndChar

StartChar: R
Encoding: 50 82 51
Width: 48
Flags: HW
LayerCount: 2
Fore
SplineSet
13.5283203125 79.998046875 m 1
 12.4228515625 77.787109375 l 2
 10.5419921875 74.025390625 7.1953125 68.3037109375 4.6005859375 56.884765625 c 0
 2.0048828125 45.4658203125 0.0009765625 28.1884765625 0.0009765625 -0.001953125 c 1
 7.9990234375 -0.001953125 l 1
 7.9990234375 12.9365234375 8.443359375 23.390625 9.1474609375 32.02734375 c 0
 10.7216796875 32.0498046875 12.2392578125 32.123046875 13.7001953125 32.24609375 c 0
 17.546875 26.5419921875 22.0244140625 20.203125 25.5927734375 14.404296875 c 0
 29.484375 8.080078125 31.9990234375 2 31.9990234375 0 c 1
 39.9990234375 0 l 1
 39.9990234375 6 36.5146484375 11.9208984375 32.4072265625 18.595703125 c 0
 29.287109375 23.666015625 25.6357421875 28.943359375 22.3330078125 33.779296875 c 1
 26.1962890625 34.9130859375 29.4755859375 36.625 32.1572265625 39.0078125 c 0
 37.7021484375 43.9365234375 39.9990234375 51.3310546875 39.9990234375 59.998046875 c 0
 39.9990234375 68.998046875 35.98046875 74.9794921875 30.7880859375 77.576171875 c 0
 25.595703125 80.1728515625 20.0009765625 79.998046875 16.0009765625 79.998046875 c 2
 13.5283203125 79.998046875 l 1
18.4287109375 71.958984375 m 0
 21.6962890625 71.8701171875 24.9638671875 71.5439453125 27.2119140625 70.419921875 c 0
 30.01953125 69.0166015625 31.9990234375 66.998046875 31.9990234375 59.998046875 c 0
 31.9990234375 52.6650390625 30.2978515625 48.0595703125 26.8427734375 44.98828125 c 0
 23.6318359375 42.134765625 18.251953125 40.2958984375 9.9189453125 40.046875 c 1
 10.62890625 46.13671875 11.484375 51.0791015625 12.4013671875 55.111328125 c 0
 14.39453125 63.8798828125 16.5400390625 68.283203125 18.4287109375 71.958984375 c 0
EndSplineSet
EndChar

StartChar: S
Encoding: 51 83 52
Width: 48
Flags: HW
LayerCount: 2
Fore
SplineSet
28 80 m 1
 22 80 17.2490234375 75.998046875 13.80078125 71.400390625 c 0
 10.3525390625 66.802734375 8 61.333984375 8 56 c 1
 8 56 l 1
 8 51 10.0537109375 46.8505859375 12.7763671875 43.8251953125 c 0
 15.5 40.798828125 18.78125 38.6728515625 21.78125 36.6728515625 c 0
 24.78125 34.6728515625 27.5 32.7998046875 29.27734375 30.8251953125 c 0
 31.0546875 28.8505859375 32.0009765625 27.0009765625 32.0009765625 24.0009765625 c 0
 32.0009765625 19.333984375 29.69140625 15.4208984375 26.3662109375 12.51171875 c 0
 23.041015625 9.6025390625 18.6669921875 8.0009765625 16 8.0009765625 c 0
 12.6669921875 8.0009765625 10.8857421875 8.7724609375 9.828125 9.830078125 c 0
 8.771484375 10.88671875 8 12.66796875 8 16.0009765625 c 1
 0 16.0009765625 l 1
 0 11.333984375 1.228515625 7.115234375 4.171875 4.171875 c 0
 7.1142578125 1.2294921875 11.3330078125 0.0009765625 16 0.0009765625 c 0
 21.333984375 0.0009765625 26.9599609375 2.400390625 31.634765625 6.4912109375 c 0
 36.3095703125 10.5810546875 40 16.6669921875 40 24.0009765625 c 0
 40 29.0009765625 37.9462890625 33.1513671875 35.2236328125 36.1767578125 c 0
 32.5 39.203125 29.21875 41.3291015625 26.21875 43.3291015625 c 0
 23.21875 45.3291015625 20.5 47.2021484375 18.7236328125 49.1767578125 c 0
 16.9462890625 51.1513671875 16 53.0009765625 16 56.0009765625 c 0
 16 58.66796875 17.6474609375 63.1982421875 20.2001953125 66.6005859375 c 0
 22.751953125 70.00390625 26 72.0009765625 28 72.0009765625 c 0
 30.6669921875 72.0009765625 30.6953125 71.4912109375 31.2861328125 70.015625 c 0
 31.8759765625 68.5400390625 32.0009765625 66.0009765625 32.0009765625 64.0009765625 c 1
 40 64.0009765625 l 1
 40 66.0009765625 40.1240234375 69.4619140625 38.7138671875 72.986328125 c 0
 37.3046875 76.5107421875 33.333984375 80.0009765625 28 80.0009765625 c 1
 28 80 l 1
EndSplineSet
EndChar

StartChar: T
Encoding: 52 84 53
Width: 40
Flags: HW
LayerCount: 2
Fore
SplineSet
0.0009765625 80 m 1
 0.0009765625 72 l 1
 15.9990234375 72 l 1
 15.9990234375 60.4443359375 14.1357421875 55.05078125 12.0947265625 45.8671875 c 0
 10.0537109375 36.68359375 8.0009765625 24.22265625 8.0009765625 0 c 1
 15.9990234375 0 l 1
 15.9990234375 23.7783203125 17.9462890625 35.31640625 19.9052734375 44.1328125 c 0
 21.8642578125 52.94921875 23.9990234375 59.5556640625 23.9990234375 72 c 1
 39.9990234375 72 l 1
 39.9990234375 80 l 1
 0.0009765625 80 l 1
EndSplineSet
EndChar

StartChar: U
Encoding: 53 85 54
Width: 48
Flags: HW
LayerCount: 2
Fore
SplineSet
8 80 m 2
 8 68.4453125 6.09765625 59.8818359375 4.10546875 51.416015625 c 0
 2.1142578125 42.9501953125 0 34.533203125 0 24 c 0
 0 15.6669921875 0.875 9.9765625 3.671875 5.78125 c 0
 6.46875 1.5869140625 11.333984375 -0 16 -0 c 0
 19.4443359375 -0 23.263671875 0.640625 26.57421875 3.1025390625 c 0
 29.884765625 5.564453125 32.388671875 9.515625 34.294921875 15.2353515625 c 0
 38.1083984375 26.6748046875 40 45.84375 40 80 c 1
 32 80 l 1
 32 46.1572265625 29.8916015625 27.3251953125 26.705078125 17.765625 c 0
 25.111328125 12.9853515625 23.3642578125 10.685546875 21.7998046875 9.5224609375 c 0
 20.236328125 8.359375 18.5556640625 8 16 8 c 0
 12.6669921875 8 11.53125 8.4130859375 10.328125 10.21875 c 0
 9.1240234375 12.0244140625 8 16.3330078125 8 24 c 0
 8 33.466796875 9.8857421875 41.0498046875 11.8935546875 49.583984375 c 0
 13.9013671875 58.1181640625 16 67.5556640625 16 80 c 1
 8 80 l 2
EndSplineSet
EndChar

StartChar: V
Encoding: 54 86 55
Width: 48
Flags: HW
LayerCount: 2
Fore
SplineSet
8.0009765625 80 m 1
 8.0009765625 77.333984375 6.0908203125 70.87109375 4.0556640625 58.658203125 c 0
 2.01953125 46.4443359375 0 28.1904296875 0 -0 c 1
 8.0009765625 -0 l 1
 8.0009765625 -0 l 1
 8.0009765625 -0.3330078125 8.2275390625 1.033203125 9.015625 2.763671875 c 0
 9.8037109375 4.494140625 11.0146484375 6.7763671875 12.4931640625 9.4248046875 c 0
 15.4501953125 14.7236328125 19.4775390625 21.51953125 23.5302734375 29.1171875 c 0
 31.6337890625 44.3125 40.0009765625 62.666015625 40.0009765625 80 c 1
 32.0009765625 80 l 1
 32.0009765625 65.3330078125 24.3662109375 47.6865234375 16.470703125 32.8818359375 c 0
 13.60546875 27.5087890625 10.853515625 22.7099609375 8.3271484375 18.2841796875 c 1
 8.962890625 35.921875 10.453125 48.3857421875 11.9453125 57.341796875 c 0
 13.91015625 69.1279296875 16.0009765625 74.666015625 16.0009765625 80 c 2
 8.0009765625 80 l 1
EndSplineSet
EndChar

StartChar: W
Encoding: 55 87 56
Width: 64
Flags: HW
LayerCount: 2
Fore
SplineSet
16 80 m 1
 16 79.333984375 15.3388671875 77.1181640625 13.908203125 74.197265625 c 0
 12.4775390625 71.2763671875 10.4453125 67.5908203125 8.380859375 63.2041015625 c 0
 4.251953125 54.4306640625 0.0009765625 42.76171875 0.0009765625 28 c 0
 0.0009765625 22 -0.0673828125 15.8681640625 1.095703125 10.6328125 c 0
 1.6767578125 8.015625 2.5595703125 5.5341796875 4.337890625 3.4599609375 c 0
 6.1162109375 1.384765625 9 -0 12 -0 c 0
 14.72265625 -0 17.1376953125 1.31640625 18.8974609375 3 c 0
 20.6572265625 4.68359375 21.9794921875 6.763671875 23.140625 9.0859375 c 0
 25.2392578125 13.2841796875 26.7705078125 18.357421875 28 23.4775390625 c 1
 29.2294921875 18.357421875 30.7607421875 13.2841796875 32.859375 9.0859375 c 0
 34.021484375 6.763671875 35.341796875 4.6845703125 37.1025390625 3.0009765625 c 0
 38.8623046875 1.3173828125 41.2783203125 -0 44.0009765625 -0 c 0
 45.833984375 -0 47.8115234375 0.7041015625 49.244140625 1.931640625 c 0
 50.6767578125 3.16015625 51.609375 4.73046875 52.3271484375 6.4853515625 c 0
 53.763671875 9.99609375 54.4716796875 14.494140625 54.986328125 20.66796875 c 0
 56.015625 33.015625 56.0009765625 52 56.0009765625 80 c 1
 48 80 l 1
 48 52 47.9853515625 32.9833984375 47.013671875 21.33203125 c 0
 46.5283203125 15.505859375 45.7373046875 11.50390625 44.9228515625 9.5146484375 c 0
 44.5166015625 8.51953125 44.1357421875 8.0908203125 44.037109375 8.005859375 c 0
 43.9384765625 7.921875 44.1669921875 7.9990234375 44 7.9990234375 c 0
 43.7216796875 7.9990234375 43.3876953125 8.056640625 42.6318359375 8.779296875 c 0
 41.8759765625 9.5029296875 40.916015625 10.8603515625 40.0146484375 12.6630859375 c 0
 38.212890625 16.267578125 36.611328125 21.5537109375 35.3994140625 26.8857421875 c 0
 32.9765625 37.5478515625 31.9833984375 48.3603515625 31.9833984375 48.3603515625 c 1
 24.0166015625 48.3603515625 l 1
 24.0166015625 48.3603515625 23.0224609375 37.5478515625 20.5986328125 26.8857421875 c 0
 19.3876953125 21.5537109375 17.787109375 16.267578125 15.984375 12.6630859375 c 0
 15.0830078125 10.8603515625 14.123046875 9.5029296875 13.3681640625 8.779296875 c 0
 12.6123046875 8.056640625 12.27734375 7.9990234375 11.9990234375 7.9990234375 c 0
 10.9990234375 7.9990234375 10.8828125 8.11328125 10.4111328125 8.6640625 c 0
 9.939453125 9.2138671875 9.322265625 10.4833984375 8.904296875 12.3662109375 c 0
 8.0673828125 16.130859375 8 21.998046875 8 27.998046875 c 0
 8 41.236328125 11.7470703125 51.568359375 15.6181640625 59.794921875 c 0
 17.5537109375 63.908203125 19.5224609375 67.47265625 21.091796875 70.6767578125 c 0
 22.6611328125 73.880859375 23.9990234375 76.6650390625 23.9990234375 79.9990234375 c 2
 16 80 l 1
EndSplineSet
EndChar

StartChar: X
Encoding: 56 88 57
Width: 56
Flags: HW
LayerCount: 2
Fore
SplineSet
8 80 m 1
 8 72 l 1
 8.3330078125 72 9.90234375 71.4658203125 11.75390625 69.716796875 c 0
 13.60546875 67.9677734375 15.6796875 65.2490234375 17.52734375 62.015625 c 0
 20.3486328125 57.0771484375 22.63671875 50.9228515625 23.560546875 45.171875 c 0
 12.453125 33.751953125 0.001953125 18.8486328125 0.001953125 0 c 1
 8 0 l 1
 8 12.6943359375 15.486328125 24.095703125 24.125 33.9375 c 1
 24.4716796875 26.029296875 25.6123046875 18.7958984375 28.369140625 12.82421875 c 0
 31.81640625 5.35546875 38.66796875 0 48.001953125 0 c 1
 48.001953125 8 l 1
 41.3349609375 8 38.185546875 10.64453125 35.6328125 16.17578125 c 0
 33.0791015625 21.70703125 32 30.2666015625 32 40 c 0
 32 40.7509765625 31.9775390625 41.5048828125 31.935546875 42.259765625 c 0
 32.912109375 43.2509765625 33.8798828125 44.2216796875 34.830078125 45.171875 c 0
 43.7734375 54.1142578125 48.001953125 67.111328125 48.001953125 80 c 1
 40 80 l 1
 40 69.4921875 36.6279296875 59.080078125 30.29296875 52.01171875 c 1
 28.9365234375 56.9912109375 26.8740234375 61.78515625 24.474609375 65.984375 c 0
 22.322265625 69.751953125 19.896484375 73.0322265625 17.248046875 75.533203125 c 0
 14.599609375 78.0341796875 11.6669921875 80 8 80 c 2
 8 80 l 1
EndSplineSet
EndChar

StartChar: Y
Encoding: 57 89 58
Width: 48
Flags: HW
LayerCount: 2
Fore
SplineSet
-0 80 m 1
 -0 59.7333984375 1.99609375 48.3671875 4.20703125 41.734375 c 0
 5.3125 38.41796875 6.48046875 36.2763671875 7.55078125 34.849609375 c 0
 7.703125 34.646484375 7.8544921875 34.4580078125 8.001953125 34.283203125 c 2
 8.001953125 0 l 1
 16.001953125 0 l 1
 16.001953125 34.35546875 l 2
 27.9462890625 46.53515625 40.001953125 62.5703125 40.001953125 80 c 1
 32 80 l 1
 32 67.3662109375 22.9150390625 53.55078125 12.556640625 42.380859375 c 1
 12.3056640625 42.966796875 12.0673828125 43.447265625 11.794921875 44.263671875 c 0
 10.005859375 49.630859375 8.001953125 60.2666015625 8.001953125 80 c 1
 -0 80 l 1
EndSplineSet
EndChar

StartChar: Z
Encoding: 58 90 59
Width: 48
Flags: HW
LayerCount: 2
Fore
SplineSet
20 80 m 2
 15.408203125 80 10.9365234375 78.8935546875 7.2900390625 77.0830078125 c 0
 5.4658203125 76.177734375 3.837890625 75.1025390625 2.498046875 73.689453125 c 0
 1.158203125 72.27734375 0 70.36328125 0 68 c 1
 8 68 l 1
 8 67.63671875 7.8642578125 67.72265625 8.302734375 68.1845703125 c 0
 8.7421875 68.6474609375 9.6474609375 69.3212890625 10.8466796875 69.9169921875 c 0
 13.244140625 71.1064453125 16.7724609375 72 20.0009765625 72 c 0
 23.54296875 72 26.2470703125 71.984375 32.0009765625 69.404296875 c 2
 32.0009765625 69.3515625 l 2
 26.8359375 62.7705078125 19.3544921875 52.0751953125 12.845703125 41.3466796875 c 0
 9.4189453125 35.697265625 6.29296875 30.095703125 3.9736328125 25.1162109375 c 0
 1.654296875 20.13671875 0 16.0234375 0 12 c 2
 0 6.3427734375 l 1
 1.171875 5.171875 l 1
 1.171875 5.171875 2.734375 3.6611328125 5.2119140625 2.4228515625 c 0
 7.6884765625 1.18359375 11.333984375 -0 16 -0 c 0
 21.333984375 -0 25.1279296875 2.6083984375 28.4853515625 4.52734375 c 0
 31.8427734375 6.4453125 34.888671875 8 40 8 c 1
 40 16 l 1
 33.111328125 16 28.158203125 13.5537109375 24.515625 11.47265625 c 0
 20.8740234375 9.3916015625 18.6669921875 8 16 8 c 0
 12.6669921875 8 10.3115234375 8.81640625 8.7890625 9.578125 c 0
 8.40234375 9.771484375 8.2578125 9.8857421875 8.0009765625 10.041015625 c 2
 8.0009765625 12 l 2
 8.0009765625 13.2216796875 9.1005859375 17.1767578125 11.2255859375 21.73828125 c 0
 13.3505859375 26.30078125 16.357421875 31.712890625 19.685546875 37.1982421875 c 0
 26.3408203125 48.16796875 34.32421875 59.5107421875 39.1220703125 65.4990234375 c 2
 40 66.595703125 l 1
 40 74.4716796875 l 1
 37.7890625 75.578125 l 2
 29.3125 79.81640625 24.0009765625 80 20.0009765625 80 c 2
 20 80 l 2
EndSplineSet
EndChar

StartChar: bracketleft
Encoding: 59 91 60
Width: 40
Flags: HW
LayerCount: 2
Fore
SplineSet
-0 88 m 1
 -0 -8 l 1
 23.9990234375 -8 l 1
 23.9990234375 0 l 1
 8 0 l 1
 8 80 l 1
 23.9990234375 80 l 1
 23.9990234375 88 l 1
 -0 88 l 1
EndSplineSet
EndChar

StartChar: backslash
Encoding: 60 92 61
Width: 32
Flags: HW
LayerCount: 2
Fore
SplineSet
8 80 m 1
 8 57.77734375 24 33.3330078125 24 0 c 1
 16 0 l 1
 16 30.6669921875 0 54.2216796875 0 80 c 1
 8 80 l 1
EndSplineSet
EndChar

StartChar: bracketright
Encoding: 61 93 62
Width: 40
Flags: HW
LayerCount: 2
Fore
SplineSet
8.0009765625 88 m 1
 8.0009765625 80 l 1
 24 80 l 1
 24 0 l 1
 8.0009765625 0 l 1
 8.0009765625 -8 l 1
 32 -8 l 1
 32 88 l 1
 8.0009765625 88 l 1
EndSplineSet
EndChar

StartChar: asciicircum
Encoding: 62 94 63
Width: 40
Flags: HW
LayerCount: 2
Fore
SplineSet
16.802734375 74.3994140625 m 1
 4.802734375 58.3994140625 l 1
 11.203125 53.599609375 l 1
 20.0029296875 65.3330078125 l 1
 28.802734375 53.599609375 l 1
 35.203125 58.3994140625 l 1
 23.203125 74.3994140625 l 1
 16.802734375 74.3994140625 l 1
EndSplineSet
EndChar

StartChar: underscore
Encoding: 63 95 64
Width: 56
Flags: HW
LayerCount: 2
Fore
SplineSet
0 0 m 1
 47.9970703125 0 l 1
 47.9970703125 8 l 1
 0 8 l 1
 0 0 l 1
EndSplineSet
EndChar

StartChar: grave
Encoding: 64 96 65
Width: 32
Flags: HW
LayerCount: 2
Fore
SplineSet
8.0009765625 88 m 1
 8.0009765625 76 0.0009765625 56 0.0009765625 56 c 1
 8.0009765625 56 l 1
 8.0009765625 56 24.0009765625 68 24.0009765625 80 c 2
 24 88 l 1
 8.0009765625 88 l 1
EndSplineSet
EndChar

StartChar: a
Encoding: 65 97 66
Width: 48
Flags: HW
LayerCount: 2
Fore
SplineSet
20.0009765625 48 m 2
 14.0009765625 48 9.126953125 43.9013671875 5.671875 38.71875 c 0
 2.216796875 33.5361328125 0 26.888671875 0 20 c 0
 0 13.5556640625 1.0048828125 8.8837890625 3.0703125 5.4423828125 c 0
 5.134765625 2.0009765625 8.6669921875 0 12.0009765625 0 c 0
 15.6669921875 0 18.4521484375 2.044921875 20.7041015625 4.296875 c 0
 21.8974609375 5.4892578125 22.970703125 6.8203125 23.966796875 8.2001953125 c 1
 23.974609375 6.7685546875 24.0009765625 5.5419921875 24.0009765625 4 c 2
 24.0009765625 0 l 1
 40 0 l 1
 40 8 l 1
 31.9736328125 8 l 2
 31.951171875 13.53515625 31.8740234375 18.408203125 31.7080078125 22.5 c 0
 31.7158203125 22.515625 l 1
 31.7080078125 22.51953125 l 2
 31.466796875 28.490234375 31.0537109375 33.1884765625 30.3369140625 36.7841796875 c 0
 29.671875 40.1201171875 28.7890625 42.732421875 27.0263671875 44.8271484375 c 0
 25.2646484375 46.921875 22.4384765625 48.001953125 20.0009765625 48.001953125 c 2
 20.0009765625 48 l 2
20.0009765625 40 m 1
 20.7802734375 40 20.5634765625 40.080078125 20.904296875 39.6748046875 c 0
 21.2451171875 39.26953125 21.958984375 37.8828125 22.490234375 35.2177734375 c 0
 23.0068359375 32.62890625 23.3720703125 28.896484375 23.6171875 23.96875 c 0
 22.9375 22.3916015625 21.65234375 19.529296875 19.5703125 16.05859375 c 0
 18.1708984375 13.7265625 16.544921875 11.451171875 15.046875 9.953125 c 0
 13.5498046875 8.4560546875 12.333984375 8 12.0009765625 8 c 0
 11.333984375 8 10.865234375 8 9.9296875 9.55859375 c 0
 8.9951171875 11.1171875 8.0009765625 14.4443359375 8.0009765625 20 c 0
 8.0009765625 25.111328125 9.783203125 30.4638671875 12.328125 34.28125 c 0
 14.873046875 38.0986328125 18.0009765625 40 20.0009765625 40 c 1
 20.0009765625 40 l 1
EndSplineSet
EndChar

StartChar: b
Encoding: 66 98 67
Width: 40
Flags: HW
LayerCount: 2
Fore
SplineSet
15.9990234375 80 m 1
 15.9990234375 79.333984375 15.3427734375 77.1298828125 13.921875 74.2890625 c 0
 12.501953125 71.4482421875 10.4814453125 67.908203125 8.421875 63.7890625 c 0
 4.302734375 55.5498046875 -0 44.888671875 -0 32 c 0
 -0 19.7783203125 0.921875 12.4853515625 2.7548828125 7.595703125 c 0
 3.671875 5.1513671875 4.880859375 3.22265625 6.5634765625 1.876953125 c 0
 8.24609375 0.53125 10.3330078125 0 12 0 c 0
 15.3330078125 0 18.1689453125 1.5869140625 20.494140625 3.6015625 c 0
 22.8193359375 5.6171875 24.7685546875 8.1728515625 26.4296875 10.94140625 c 0
 29.7529296875 16.4794921875 32 22.6669921875 32 28 c 0
 32 34.4443359375 30.994140625 39.1171875 28.9296875 42.55859375 c 0
 26.8642578125 46 23.3330078125 48 20 48 c 0
 16.3330078125 48 13.548828125 45.955078125 11.296875 43.703125 c 0
 10.400390625 42.8076171875 9.5791015625 41.82421875 8.7958984375 40.8115234375 c 1
 10.08203125 48.1474609375 12.7705078125 54.5986328125 15.5771484375 60.2119140625 c 0
 17.517578125 64.091796875 19.498046875 67.552734375 21.0771484375 70.7119140625 c 0
 22.6572265625 73.8701171875 24 76.6669921875 24 80 c 1
 15.9990234375 80 l 1
20 40 m 1
 20.6669921875 40 21.134765625 40 22.0693359375 38.4423828125 c 0
 23.0048828125 36.8837890625 24 33.5556640625 24 28 c 0
 24 25.3330078125 22.2470703125 19.51953125 19.5703125 15.0576171875 c 0
 18.2314453125 12.8271484375 16.6806640625 10.8828125 15.255859375 9.6474609375 c 0
 13.830078125 8.4130859375 12.6669921875 8 12 8 c 0
 11.6669921875 8 11.7529296875 7.9697265625 11.560546875 8.123046875 c 0
 11.3681640625 8.27734375 10.828125 8.8486328125 10.2451171875 10.404296875 c 0
 9.390625 12.6826171875 8.591796875 16.947265625 8.2216796875 23.6640625 c 0
 8.7890625 25.005859375 10.173828125 28.18359375 12.4296875 31.9423828125 c 0
 13.8291015625 34.2744140625 15.455078125 36.548828125 16.953125 38.046875 c 0
 18.451171875 39.544921875 19.666015625 40 20 40 c 1
 20 40 l 1
EndSplineSet
EndChar

StartChar: c
Encoding: 67 99 68
Width: 40
Flags: HW
LayerCount: 2
Fore
SplineSet
20.0009765625 48 m 0
 14.0009765625 48 9.126953125 43.9013671875 5.671875 38.71875 c 0
 2.216796875 33.5361328125 0 26.888671875 0 20 c 0
 0 13.5556640625 0.9833984375 8.619140625 3.876953125 5.001953125 c 0
 6.7705078125 1.384765625 11.333984375 0 16 0 c 0
 22 0 25.986328125 4.26953125 28.328125 7.78125 c 0
 30.6689453125 11.2939453125 31.794921875 14.7353515625 31.794921875 14.7353515625 c 1
 24.205078125 17.265625 l 1
 24.205078125 17.265625 23.330078125 14.70703125 21.671875 12.21875 c 0
 20.0126953125 9.73046875 18 8 16 8 c 0
 12.6669921875 8 11.2294921875 8.6162109375 10.1240234375 9.9990234375 c 0
 9.017578125 11.3818359375 8 14.4443359375 8 20 c 0
 8 25.111328125 9.783203125 30.4638671875 12.328125 34.28125 c 0
 14.873046875 38.0986328125 18.0009765625 40 20.0009765625 40 c 0
 20.6669921875 40 21.4404296875 39.7470703125 22.2998046875 38.6005859375 c 0
 23.16015625 37.4541015625 24 35.333984375 24 32 c 1
 32 32 l 1
 32 36.6669921875 30.83984375 40.546875 28.7001953125 43.400390625 c 0
 26.560546875 46.2529296875 23.333984375 48 20.0009765625 48 c 0
EndSplineSet
EndChar

StartChar: d
Encoding: 68 100 69
Width: 48
Flags: HW
LayerCount: 2
Fore
SplineSet
32 80 m 1
 32 77.3330078125 30.1357421875 74.091796875 28.0703125 63.248046875 c 0
 27.447265625 59.9765625 26.828125 56.03125 26.26953125 51.177734375 c 0
 20.5400390625 49.5546875 15.09765625 45.6640625 10.55078125 40.703125 c 0
 4.5068359375 34.109375 0 25.3330078125 0 16 c 0
 0 11.3330078125 1.1591796875 7.453125 3.298828125 4.599609375 c 0
 5.4384765625 1.74609375 8.6650390625 0 11.998046875 0 c 0
 15.3310546875 0 18.091796875 1.5517578125 20.373046875 3.376953125 c 0
 21.7119140625 4.4482421875 22.9248046875 5.6572265625 24.02734375 6.912109375 c 1
 24.0087890625 4.68359375 23.998046875 2.3798828125 23.998046875 0 c 1
 32 0 l 1
 32 33.8427734375 33.9931640625 51.595703125 35.927734375 61.751953125 c 0
 37.8623046875 71.908203125 39.998046875 74.6669921875 39.998046875 80 c 2
 32 80 l 1
25.396484375 42.14453125 m 1
 24.931640625 36.345703125 24.552734375 29.55859375 24.306640625 21.564453125 c 0
 23.8583984375 20.70703125 22.14453125 17.5283203125 19.798828125 14.400390625 c 0
 18.4267578125 12.5712890625 16.84375 10.7978515625 15.375 9.623046875 c 0
 13.90625 8.4482421875 12.6650390625 8 11.998046875 8 c 0
 11.33203125 8 10.5595703125 8.25390625 9.69921875 9.400390625 c 0
 8.83984375 10.546875 8 12.6669921875 8 16 c 0
 8 22.6669921875 11.4912109375 29.890625 16.447265625 35.296875 c 0
 19.197265625 38.296875 22.3837890625 40.646484375 25.396484375 42.14453125 c 1
EndSplineSet
EndChar

StartChar: e
Encoding: 69 101 70
Width: 40
Flags: HW
LayerCount: 2
Fore
SplineSet
20 48 m 0
 14 48 9.126953125 43.9013671875 5.671875 38.71875 c 0
 2.216796875 33.5361328125 -0 26.888671875 -0 20 c 0
 -0 13.5556640625 1.1630859375 7.9912109375 5.4384765625 4.427734375 c 0
 9.71484375 0.8642578125 15.6669921875 0 24 0 c 1
 24 8 l 1
 16.3330078125 8 12.2841796875 9.1357421875 10.560546875 10.572265625 c 0
 9.3291015625 11.5986328125 8.5703125 13.189453125 8.2255859375 16.0068359375 c 1
 16.4267578125 16.0263671875 22.0654296875 16.90234375 26.21875 19.671875 c 0
 30.4140625 22.4677734375 32 27.333984375 32 32 c 0
 32 34 32.1240234375 37.4619140625 30.7138671875 40.986328125 c 0
 29.3037109375 44.5107421875 25.3330078125 48 20 48 c 0
20 40 m 0
 22.6669921875 40 22.6962890625 39.490234375 23.2861328125 38.0146484375 c 0
 23.8759765625 36.5390625 24 34 24 32 c 0
 24 28.6669921875 23.5859375 27.5322265625 21.78125 26.3291015625 c 0
 20.0068359375 25.146484375 15.775390625 24.0517578125 8.3564453125 24.013671875 c 1
 8.9921875 27.7958984375 10.4462890625 31.458984375 12.328125 34.28125 c 0
 14.873046875 38.0986328125 18 40 20 40 c 0
EndSplineSet
EndChar

StartChar: f
Encoding: 70 102 71
Width: 40
Flags: HW
LayerCount: 2
Fore
SplineSet
28.001953125 80 m 0
 25.3349609375 80 21.978515625 79.109375 19.345703125 76.564453125 c 0
 16.712890625 74.01953125 14.7646484375 70.236328125 13.154296875 64.599609375 c 0
 11.650390625 59.3359375 10.427734375 52.3515625 9.55078125 42.923828125 c 0
 5.39453125 41.2421875 2.3154296875 40 0 40 c 1
 0 32 l 1
 3.2119140625 32 6.05859375 32.853515625 8.869140625 33.955078125 c 1
 8.3037109375 24.69140625 8.001953125 13.5205078125 8.001953125 0 c 1
 16.001953125 0 l 1
 16.001953125 15.33203125 16.42578125 27.5830078125 17.1484375 37.302734375 c 0
 21.302734375 38.7998046875 25.986328125 40 32.001953125 40 c 1
 32.001953125 48 l 1
 26.564453125 48 21.921875 47.1279296875 17.939453125 45.966796875 c 1
 18.7373046875 53.15625 19.7353515625 58.5078125 20.84765625 62.400390625 c 0
 22.2373046875 67.263671875 23.7890625 69.732421875 24.90625 70.8125 c 0
 26.0234375 71.892578125 26.6689453125 72 28.001953125 72 c 0
 28.6689453125 72 29.4404296875 71.74609375 30.30078125 70.599609375 c 0
 31.1611328125 69.453125 32.001953125 67.3330078125 32.001953125 64 c 1
 40.001953125 64 l 1
 40.001953125 68.6669921875 38.8408203125 72.546875 36.701171875 75.400390625 c 0
 34.5615234375 78.25390625 31.3349609375 80 28.001953125 80 c 0
EndSplineSet
EndChar

StartChar: g
Encoding: 71 103 72
Width: 48
Flags: HW
LayerCount: 2
Fore
SplineSet
27.9990234375 48 m 2
 24.9990234375 48 23.3671875 46.6591796875 21.3564453125 45.0947265625 c 0
 19.3447265625 43.5302734375 17.28125 41.44921875 15.341796875 38.9560546875 c 0
 11.4638671875 33.970703125 7.9990234375 27.3330078125 7.9990234375 20 c 0
 7.9990234375 12.6669921875 12.015625 7.1484375 16.8798828125 4.1083984375 c 0
 19.6611328125 2.3701171875 22.669921875 1.330078125 25.6181640625 0.712890625 c 1
 24.2939453125 -1.6943359375 22.828125 -3.7646484375 21.3583984375 -5.234375 c 0
 19.404296875 -7.1884765625 17.666015625 -7.9990234375 16 -7.9990234375 c 1
 16 -7.9990234375 l 1
 15.3330078125 -7.9990234375 12.7880859375 -7.3076171875 10.9990234375 -5.8759765625 c 0
 9.2099609375 -4.4453125 8 -2.666015625 8 0 c 1
 0 0 l 1
 0 -5.3330078125 2.7900390625 -9.5537109375 6.0009765625 -12.123046875 c 0
 9.2119140625 -14.69140625 12.6669921875 -16 16 -16 c 0
 20.3330078125 -16 24.0947265625 -13.8115234375 27.015625 -10.890625 c 0
 29.9365234375 -7.9697265625 32.23828125 -4.232421875 34.125 -0.19140625 c 0
 37.896484375 7.890625 40 17.111328125 40 24 c 0
 40 30.0009765625 40.123046875 35.1318359375 38.845703125 39.5986328125 c 0
 38.2080078125 41.8330078125 37.1162109375 44.0263671875 35.185546875 45.6357421875 c 0
 33.25390625 47.2451171875 30.666015625 48 28 48 c 2
 27.9990234375 48 l 2
27.9990234375 40 m 1
 29.33203125 40 29.7451171875 39.755859375 30.0634765625 39.490234375 c 0
 30.3828125 39.2236328125 30.7919921875 38.66796875 31.1533203125 37.4013671875 c 0
 31.876953125 34.869140625 31.9990234375 30 31.9990234375 24 c 0
 31.9990234375 20.0771484375 30.865234375 14.005859375 28.8857421875 8.2607421875 c 0
 26.2138671875 8.6494140625 23.34765625 9.4990234375 21.119140625 10.892578125 c 0
 17.9833984375 12.8525390625 15.9990234375 15.3330078125 15.9990234375 20 c 0
 15.9990234375 24.6669921875 18.5341796875 30.0302734375 21.65625 34.0439453125 c 0
 23.2177734375 36.0517578125 24.9033203125 37.7197265625 26.267578125 38.7802734375 c 0
 27.630859375 39.8408203125 28.9990234375 40 27.9990234375 40 c 1
EndSplineSet
EndChar

StartChar: h
Encoding: 72 104 73
Width: 40
Flags: HW
LayerCount: 2
Fore
SplineSet
16.005859375 80.0234375 m 1
 16.005859375 79.35546875 15.546875 78.2578125 14.056640625 75.712890625 c 0
 12.56640625 73.1669921875 10.380859375 69.4482421875 8.267578125 63.90234375 c 0
 5.328125 56.1875 2.478515625 44.890625 1.015625 27.181640625 c 2
 1.015625 27.1796875 l 2
 0.375 19.4287109375 0 10.44921875 0 0.00390625 c 1
 8.033203125 0.00390625 l 1
 8.033203125 9.66015625 8.3564453125 17.984375 8.91015625 25.1796875 c 0
 9.74609375 26.98828125 10.9814453125 29.486328125 12.4609375 31.951171875 c 0
 13.861328125 34.2822265625 15.451171875 36.537109375 16.94921875 38.03515625 c 0
 18.4462890625 39.5322265625 19.6875 39.984375 20.021484375 39.984375 c 0
 21.3544921875 39.984375 21.3046875 39.923828125 21.61328125 39.5703125 c 0
 21.921875 39.2109375 22.5810546875 37.8193359375 23.03125 34.904296875 c 0
 23.9296875 29.0751953125 23.974609375 18.00390625 23.974609375 0.00390625 c 1
 32.0078125 0.00390625 l 1
 32.0078125 18.00390625 32.0380859375 28.9150390625 30.943359375 36.0859375 c 0
 30.392578125 39.6708984375 29.5771484375 42.501953125 27.63671875 44.767578125 c 0
 25.6962890625 47.03125 22.6875 48.0146484375 20.021484375 48.015625 c 2
 20.01953125 48.015625 l 1
 20.017578125 48.015625 l 2
 16.3525390625 48.0146484375 13.5322265625 45.9560546875 11.28125 43.705078125 c 0
 11.2392578125 43.6630859375 11.197265625 43.6201171875 11.15625 43.578125 c 1
 12.5126953125 51.2333984375 14.15625 56.837890625 15.767578125 61.06640625 c 0
 17.654296875 66.0205078125 19.455078125 69.0595703125 20.96484375 71.638671875 c 0
 22.4736328125 74.2177734375 23.9765625 76.6904296875 23.9765625 80.0234375 c 2
 16.005859375 80.0234375 l 1
EndSplineSet
EndChar

StartChar: i
Encoding: 73 105 74
Width: 32
Flags: HW
LayerCount: 2
Fore
SplineSet
8.0009765625 72 m 1
 8.0009765625 64 l 1
 24 64 l 1
 24 72 l 1
 8.0009765625 72 l 1
8.0009765625 48 m 1
 8.0009765625 42.8896484375 6.3896484375 39.7255859375 4.3447265625 35.125 c 0
 2.30078125 30.5244140625 -0 24.666015625 0 16 c 0
 0 11.3330078125 1.16015625 7.453125 3.30078125 4.599609375 c 0
 5.4404296875 1.7470703125 8.6669921875 0 12 0 c 0
 15.3330078125 0 18.560546875 1.7470703125 20.7001953125 4.599609375 c 0
 22.8408203125 7.453125 24 11.3330078125 24 16 c 1
 16 16 l 1
 16 12.666015625 15.16015625 10.546875 14.2998046875 9.3994140625 c 0
 13.4404296875 8.2529296875 12.6669921875 8 12 8 c 0
 11.3330078125 8 10.560546875 8.2529296875 9.7001953125 9.3994140625 c 0
 8.8408203125 10.546875 8.0009765625 12.666015625 8.0009765625 16 c 1
 8.0009765625 16 l 1
 8 23.3330078125 9.7001953125 27.4755859375 11.6552734375 31.875 c 0
 13.6103515625 36.2744140625 16 41.1103515625 16 48 c 2
 8.0009765625 48 l 1
EndSplineSet
EndChar

StartChar: j
Encoding: 74 106 75
Width: 40
Flags: HW
LayerCount: 2
Fore
SplineSet
23.9990234375 48 m 1
 23.9990234375 40.333984375 23.0009765625 25.3896484375 20.572265625 12.755859375 c 0
 19.357421875 6.4384765625 17.7509765625 0.6630859375 15.9443359375 -3.1689453125 c 0
 15.041015625 -5.0849609375 14.078125 -6.4892578125 13.3310546875 -7.22265625 c 0
 12.5830078125 -7.9560546875 12.27734375 -7.9990234375 11.9990234375 -7.9990234375 c 0
 11.3330078125 -7.9990234375 10.5595703125 -7.74609375 9.7001953125 -6.599609375 c 0
 8.83984375 -5.453125 8 -3.3330078125 8 0 c 1
 -0 0 l 1
 -0 -4.666015625 1.16015625 -8.5458984375 3.2998046875 -11.3994140625 c 0
 5.439453125 -14.2529296875 8.666015625 -16 11.9990234375 -16 c 0
 14.7216796875 -16 17.166015625 -14.66796875 18.93359375 -12.9326171875 c 0
 20.7021484375 -11.197265625 22.0205078125 -9.0390625 23.1796875 -6.580078125 c 0
 25.498046875 -1.6630859375 27.142578125 4.5615234375 28.427734375 11.244140625 c 0
 30.998046875 24.6103515625 32 39.6669921875 32 48 c 2
 23.9990234375 48 l 1
16 72 m 1
 16 64 l 1
 32 64 l 1
 32 72 l 1
 16 72 l 1
EndSplineSet
EndChar

StartChar: k
Encoding: 75 107 76
Width: 40
Flags: HW
LayerCount: 2
Fore
SplineSet
16.0146484375 80 m 1
 16.0146484375 79.33203125 15.5537109375 78.234375 14.0634765625 75.689453125 c 0
 12.572265625 73.1435546875 10.388671875 69.4248046875 8.2763671875 63.87890625 c 0
 4.05078125 52.787109375 0.0087890625 34.2939453125 0.0087890625 -0.01953125 c 1
 8.0400390625 -0.01953125 l 1
 8.0400390625 6.7392578125 8.2001953125 12.845703125 8.4853515625 18.369140625 c 1
 10.306640625 16.791015625 12.744140625 14.5986328125 15.1708984375 12.171875 c 0
 17.576171875 9.7666015625 19.9541015625 7.1328125 21.6201171875 4.80078125 c 0
 23.28515625 2.46875 24.0009765625 0.3330078125 24.0009765625 0 c 1
 31.9990234375 0 l 1
 31.9990234375 3.6669921875 30.2138671875 6.53125 28.1298828125 9.44921875 c 0
 26.044921875 12.3671875 23.4208984375 15.234375 20.8271484375 17.828125 c 0
 18.41796875 20.2373046875 16.0693359375 22.3603515625 14.1904296875 24 c 1
 16.0693359375 25.6396484375 18.41796875 27.7626953125 20.8271484375 30.171875 c 0
 23.4208984375 32.7666015625 26.044921875 35.6328125 28.1298828125 38.55078125 c 0
 30.2138671875 41.46875 31.9990234375 44.3330078125 31.9990234375 48 c 1
 24.0009765625 48 l 1
 24.0009765625 47.6669921875 23.28515625 45.53125 21.6201171875 43.19921875 c 0
 19.9541015625 40.8671875 17.576171875 38.234375 15.1708984375 35.828125 c 0
 13.1240234375 33.78125 11.068359375 31.9013671875 9.3818359375 30.416015625 c 1
 10.8623046875 45.24609375 13.3583984375 54.6953125 15.7763671875 61.04296875 c 0
 17.6630859375 65.9970703125 19.4638671875 69.0361328125 20.9736328125 71.615234375 c 0
 22.482421875 74.1943359375 23.9853515625 76.6669921875 23.9853515625 80 c 1
 16.0146484375 80 l 1
EndSplineSet
EndChar

StartChar: l
Encoding: 76 108 77
Width: 24
Flags: HW
LayerCount: 2
Fore
SplineSet
16.0146484375 80 m 1
 16.0146484375 79.33203125 15.5546875 78.234375 14.064453125 75.6884765625 c 0
 12.5732421875 73.142578125 10.3896484375 69.423828125 8.2763671875 63.8779296875 c 0
 4.05078125 52.7861328125 0.0087890625 34.2939453125 0.0087890625 -0.01953125 c 1
 8.0400390625 -0.01953125 l 1
 8.0400390625 33.6669921875 12.001953125 51.1357421875 15.7763671875 61.04296875 c 0
 17.6630859375 65.9970703125 19.4638671875 69.03515625 20.9736328125 71.6142578125 c 0
 22.482421875 74.193359375 23.984375 76.6669921875 23.984375 80 c 1
 16.0146484375 80 l 1
EndSplineSet
EndChar

StartChar: m
Encoding: 77 109 78
Width: 56
Flags: HW
LayerCount: 2
Fore
SplineSet
0 48 m 1
 0 40 l 1
 2.375 40 3.5224609375 38.900390625 4.423828125 36.779296875 c 0
 5.072265625 35.2529296875 5.2373046875 33.2626953125 4.939453125 31.544921875 c 0
 4.73828125 30.9833984375 4.5869140625 30.3232421875 4.396484375 29.740234375 c 0
 4.392578125 29.728515625 4.388671875 29.7177734375 4.3818359375 29.7060546875 c 2
 4.3837890625 29.7041015625 l 2
 1.69921875 21.486328125 -0.0009765625 11.220703125 -0.0009765625 0.0009765625 c 1
 8.0009765625 0.0009765625 l 1
 8.0009765625 9.9638671875 9.4580078125 19.232421875 11.6435546875 26.3525390625 c 0
 12.1376953125 27.4140625 12.5107421875 28.5146484375 12.7607421875 29.6357421875 c 0
 14.1484375 33.326171875 15.7568359375 36.2119140625 17.1982421875 37.9404296875 c 0
 18.6435546875 39.67578125 19.6669921875 40.0009765625 20.0009765625 40.0009765625 c 0
 20.6669921875 40.0009765625 21.439453125 39.748046875 22.2998046875 38.6005859375 c 0
 23.1591796875 37.4541015625 23.9990234375 35.333984375 23.9990234375 32.0009765625 c 0
 23.998046875 26.890625 22.388671875 23.7265625 20.3447265625 19.1259765625 c 0
 18.2998046875 14.525390625 15.9990234375 8.66796875 15.9990234375 0.0009765625 c 1
 24.0009765625 0.0009765625 l 1
 24.0009765625 7.3349609375 25.69921875 11.4765625 27.6552734375 15.8759765625 c 0
 29.5634765625 20.169921875 31.8837890625 24.8818359375 31.9951171875 31.5087890625 c 0
 32.06640625 31.7841796875 32.181640625 32.2021484375 32.3359375 32.7060546875 c 0
 32.646484375 33.71484375 33.1171875 35.0732421875 33.697265625 36.3544921875 c 0
 34.2783203125 37.6357421875 34.998046875 38.8369140625 35.564453125 39.4775390625 c 0
 35.8466796875 39.796875 36.01953125 39.9267578125 36.08984375 39.9775390625 c 0
 36.7373046875 39.955078125 37.4755859375 39.69921875 38.298828125 38.6005859375 c 0
 39.1591796875 37.4541015625 39.998046875 35.333984375 39.998046875 32.0009765625 c 0
 39.9990234375 22.5341796875 38.4443359375 19.8427734375 36.525390625 16.4853515625 c 0
 34.607421875 13.1279296875 31.998046875 8.66796875 31.998046875 0.0009765625 c 1
 39.998046875 0.0009765625 l 1
 39.998046875 7.3349609375 41.3896484375 8.8720703125 43.470703125 12.5146484375 c 0
 45.552734375 16.1572265625 47.9990234375 21.4677734375 47.998046875 32.0009765625 c 0
 47.998046875 36.66796875 46.83984375 40.5458984375 44.69921875 43.3994140625 c 0
 42.5595703125 46.2529296875 39.33203125 48.0009765625 35.998046875 48.0009765625 c 0
 33.16015625 48.0009765625 30.9931640625 46.384765625 29.572265625 44.7783203125 c 0
 29.2177734375 44.3779296875 28.8916015625 43.96484375 28.58984375 43.5439453125 c 1
 26.4501953125 46.3134765625 23.2783203125 48.0009765625 20 48.0009765625 c 0
 16.333984375 48.0009765625 13.35546875 45.8271484375 11.05078125 43.0615234375 c 0
 10.849609375 42.8203125 10.65234375 42.572265625 10.45703125 42.3173828125 c 1
 8.2373046875 45.5390625 4.541015625 48.0009765625 -0.001953125 48.0009765625 c 1
 0 48 l 1
31.9921875 32.1796875 m 1
 31.994140625 32.1796875 l 2
 31.994140625 32.1357421875 32.001953125 32.09765625 32.001953125 32.0546875 c 1
 32.0009765625 32.0810546875 32.0009765625 32.111328125 32 32.1416015625 c 0
 31.99609375 32.1533203125 31.99609375 32.1650390625 31.9921875 32.1796875 c 1
EndSplineSet
EndChar

StartChar: n
Encoding: 78 110 79
Width: 40
Flags: HW
LayerCount: 2
Fore
SplineSet
0.0009765625 48 m 1
 0.0009765625 40 l 1
 2.3759765625 40 3.521484375 38.900390625 4.4228515625 36.779296875 c 0
 5.0712890625 35.2529296875 5.23828125 33.26171875 4.9404296875 31.544921875 c 0
 4.7421875 30.9892578125 4.5927734375 30.3359375 4.4033203125 29.759765625 c 0
 4.3955078125 29.740234375 4.3896484375 29.7216796875 4.3818359375 29.705078125 c 2
 4.3857421875 29.703125 l 2
 1.701171875 21.484375 0.0009765625 11.2197265625 0.0009765625 -0 c 1
 8.0009765625 -0 l 1
 8.0009765625 9.9599609375 9.458984375 19.2275390625 11.6435546875 26.34765625 c 0
 12.140625 27.4111328125 12.5107421875 28.5146484375 12.7607421875 29.638671875 c 0
 14.1484375 33.3271484375 15.7578125 36.2109375 17.1982421875 37.939453125 c 0
 18.64453125 39.673828125 19.66796875 40 20.0009765625 40 c 0
 20.66796875 40 21.439453125 39.74609375 22.2998046875 38.599609375 c 0
 23.16015625 37.4521484375 24.0009765625 35.3330078125 24.0009765625 32 c 0
 24.0009765625 26.888671875 22.3896484375 23.7255859375 20.3447265625 19.125 c 0
 18.2998046875 14.5244140625 16.0009765625 8.666015625 16.0009765625 -0 c 1
 24.0009765625 -0 l 1
 24.0009765625 7.3330078125 25.7001953125 11.4755859375 27.6552734375 15.875 c 0
 29.6103515625 20.2744140625 32.0009765625 25.111328125 32.0009765625 32 c 0
 32.0009765625 36.666015625 30.83984375 40.546875 28.7001953125 43.400390625 c 0
 26.560546875 46.2529296875 23.3349609375 48 20.0009765625 48 c 0
 16.333984375 48 13.3564453125 45.8251953125 11.0517578125 43.060546875 c 0
 10.8505859375 42.818359375 10.6533203125 42.5703125 10.4580078125 42.31640625 c 1
 8.23828125 45.537109375 4.5439453125 48 0.0009765625 48 c 1
EndSplineSet
EndChar

StartChar: o
Encoding: 79 111 80
Width: 40
Flags: HW
LayerCount: 2
Fore
SplineSet
20 48 m 0
 16.666015625 48 13.830078125 46.412109375 11.5048828125 44.3974609375 c 0
 9.1796875 42.3828125 7.2314453125 39.8271484375 5.5693359375 37.0576171875 c 0
 2.2470703125 31.51953125 -0 25.3330078125 -0 20 c 0
 -0 13.5556640625 1.0048828125 8.8837890625 3.0703125 5.44140625 c 0
 5.134765625 2 8.6669921875 -0 12 -0 c 0
 15.3330078125 -0 18.1689453125 1.5869140625 20.494140625 3.6025390625 c 0
 22.8193359375 5.6171875 24.7685546875 8.1728515625 26.4296875 10.9423828125 c 0
 29.7529296875 16.48046875 32 22.6669921875 32 28 c 0
 32 34.4443359375 30.994140625 39.1162109375 28.9296875 42.5576171875 c 0
 26.8642578125 45.9990234375 23.3330078125 48 20 48 c 0
20 40 m 0
 20.6669921875 40 21.134765625 40 22.0693359375 38.44140625 c 0
 23.0048828125 36.8837890625 24 33.5556640625 24 28 c 0
 24 25.3330078125 22.2470703125 19.51953125 19.5703125 15.0576171875 c 0
 18.2314453125 12.826171875 16.6806640625 10.8818359375 15.255859375 9.6474609375 c 0
 13.830078125 8.412109375 12.6669921875 8 12 8 c 0
 11.3330078125 8 10.865234375 7.9990234375 9.9296875 9.5576171875 c 0
 8.9951171875 11.1162109375 8 14.4443359375 8 20 c 0
 8 22.666015625 9.7529296875 28.4794921875 12.4296875 32.94140625 c 0
 13.7685546875 35.1728515625 15.3193359375 37.1171875 16.744140625 38.3515625 c 0
 18.1689453125 39.5869140625 19.3330078125 40 20 40 c 0
EndSplineSet
EndChar

StartChar: p
Encoding: 80 112 81
Width: 40
Flags: HW
LayerCount: 2
Fore
SplineSet
20.0009765625 48 m 2
 17.6669921875 48 14.6689453125 47.669921875 11.90625 45.828125 c 0
 9.1435546875 43.986328125 6.94140625 40.900390625 5.2548828125 36.404296875 c 0
 1.8828125 27.412109375 0 12.1904296875 0 -16 c 1
 8 -16 l 1
 8 -10.931640625 8.091796875 -6.4375 8.22265625 -2.203125 c 0
 10.5146484375 -0.9228515625 14.11328125 1.220703125 18.5615234375 4.927734375 c 0
 24.9638671875 10.2626953125 32 17.9990234375 32 27.9990234375 c 0
 32 34.443359375 30.9951171875 39.1162109375 28.9306640625 42.5576171875 c 0
 26.865234375 46 23.333984375 48 20.0009765625 48 c 2
 20.0009765625 48 l 2
20.0009765625 40 m 0
 20.6669921875 40 21.1357421875 40 22.0703125 38.44140625 c 0
 23.005859375 36.8828125 24 33.5546875 24 27.9990234375 c 0
 24 21.9990234375 19.0361328125 15.7373046875 13.439453125 11.072265625 c 0
 11.7822265625 9.69140625 10.1767578125 8.533203125 8.66015625 7.5 c 1
 9.4814453125 20.6611328125 10.9921875 28.9189453125 12.7451171875 33.595703125 c 0
 14.0595703125 37.099609375 15.3564453125 38.513671875 16.3447265625 39.171875 c 0
 17.33203125 39.830078125 18.333984375 40 20.0009765625 40 c 0
EndSplineSet
EndChar

StartChar: q
Encoding: 81 113 82
Width: 48
Flags: HW
LayerCount: 2
Fore
SplineSet
28 48 m 2
 18.6669921875 48 11.4462890625 43.208984375 6.876953125 37.498046875 c 0
 2.3076171875 31.787109375 0 25.3330078125 0 20 c 0
 0 13.5546875 1.0048828125 8.8837890625 3.0703125 5.44140625 c 0
 5.134765625 2 8.6669921875 -0 12 -0 c 0
 14.0107421875 -0 15.8291015625 0.427734375 17.4423828125 1.1201171875 c 1
 16.59765625 -3.1064453125 16 -7.341796875 16 -12 c 2
 16 -16 l 1
 20.0009765625 -16 l 2
 24.6669921875 -16 29.3662109375 -14.8974609375 33.2197265625 -12.328125 c 0
 37.072265625 -9.759765625 40 -5.3330078125 40 -0 c 1
 32.0009765625 -0 l 1
 32.0009765625 -2.6669921875 30.927734375 -4.240234375 28.78125 -5.671875 c 0
 27.5830078125 -6.470703125 26.0087890625 -7.078125 24.2861328125 -7.48046875 c 1
 24.97265625 -0.826171875 26.9521484375 5.888671875 28.765625 14.2548828125 c 0
 28.7734375 14.2626953125 28.77734375 14.2744140625 28.7841796875 14.28515625 c 2
 28.7734375 14.29296875 l 2
 30.4794921875 22.1728515625 32 31.5126953125 32 44.0009765625 c 2
 32 48.0009765625 l 1
 28 48 l 2
23.8388671875 39.5244140625 m 1
 23.5302734375 30.6591796875 22.4375 23.4453125 21.0927734375 17.1884765625 c 0
 19.4130859375 14.6044921875 18.224609375 12.205078125 17.048828125 10.6572265625 c 0
 15.59375 8.7421875 14.8203125 8 12 8 c 0
 11.3330078125 8 10.865234375 7.9990234375 9.9296875 9.5576171875 c 0
 8.9951171875 11.1162109375 8.0009765625 14.4443359375 8.0009765625 20 c 0
 8.0009765625 22.666015625 9.6923828125 28.2119140625 13.1240234375 32.5009765625 c 0
 15.791015625 35.8359375 19.2880859375 38.4951171875 23.8388671875 39.5244140625 c 1
EndSplineSet
EndChar

StartChar: r
Encoding: 82 114 83
Width: 40
Flags: HW
LayerCount: 2
Fore
SplineSet
0 48 m 1
 0 16 l 1
 0 -0 l 1
 7.998046875 -0 l 1
 7.998046875 16 l 2
 7.998046875 20.666015625 10.1435546875 24.3173828125 14.29296875 27.22265625 c 0
 18.4423828125 30.126953125 24.6650390625 32 31.998046875 32 c 1
 31.998046875 40 l 1
 23.3310546875 40 15.5556640625 37.8720703125 9.705078125 33.77734375 c 0
 9.115234375 33.3642578125 8.544921875 32.927734375 7.998046875 32.470703125 c 1
 7.998046875 48 l 1
 0 48 l 1
EndSplineSet
EndChar

StartChar: s
Encoding: 83 115 84
Width: 40
Flags: HW
LayerCount: 2
Fore
SplineSet
32.0009765625 48 m 2
 23.333984375 48 15.681640625 45.8740234375 9.9423828125 42.4306640625 c 0
 4.2021484375 38.986328125 0 34 0 28 c 0
 0 23.6669921875 2.86328125 20.0966796875 5.9609375 18.5478515625 c 0
 9.05859375 16.9990234375 12.3427734375 16.5537109375 15.3427734375 16.0537109375 c 0
 18.3427734375 15.5537109375 21.0595703125 14.998046875 22.4619140625 14.296875 c 0
 23.86328125 13.595703125 24 13.666015625 24 12 c 0
 24 10.6669921875 23.8037109375 10.4111328125 23.5302734375 10.12109375 c 0
 23.255859375 9.8310546875 22.4541015625 9.3095703125 20.6328125 8.904296875 c 0
 16.990234375 8.0947265625 10 8 0 8 c 1
 0 -0 l 1
 10 -0 17.0107421875 -0.0947265625 22.3681640625 1.095703125 c 0
 25.046875 1.6904296875 27.4951171875 2.66796875 29.345703125 4.6279296875 c 0
 31.197265625 6.587890625 32.0009765625 9.3330078125 32.0009765625 12 c 0
 32 16.3330078125 29.13671875 19.9033203125 26.0390625 21.4521484375 c 0
 22.9404296875 23.0009765625 19.658203125 23.4453125 16.658203125 23.9453125 c 0
 13.658203125 24.4453125 10.9404296875 25.001953125 9.5390625 25.703125 c 0
 8.13671875 26.404296875 8 26.3330078125 8 28 c 0
 8 30 9.7978515625 33.013671875 14.0576171875 35.5703125 c 0
 18.318359375 38.1259765625 24.6669921875 40 32.0009765625 40 c 1
 32.0009765625 48 l 2
EndSplineSet
EndChar

StartChar: t
Encoding: 84 116 85
Width: 40
Flags: HW
LayerCount: 2
Fore
SplineSet
15.998046875 80 m 2
 15.998046875 77.3330078125 14.2607421875 73.451171875 12.17578125 66.67578125 c 0
 10.4267578125 60.990234375 8.671875 53.373046875 8.15234375 42.572265625 c 0
 4.9951171875 41.0732421875 2.2001953125 40 0 40 c 1
 0 32 l 1
 2.908203125 32 5.5537109375 32.7197265625 8.0078125 33.69921875 c 1
 8.1044921875 20.908203125 9.0224609375 13.283203125 10.705078125 8.236328125 c 0
 11.595703125 5.564453125 12.7470703125 3.5068359375 14.44140625 2.0390625 c 0
 16.1357421875 0.5703125 18.333984375 -0 20 -0 c 0
 23.333984375 -0 26.5595703125 1.74609375 28.69921875 4.599609375 c 0
 30.83984375 7.453125 32 11.3330078125 32 16 c 1
 24 16 l 1
 24 12.666015625 23.1591796875 10.546875 22.298828125 9.400390625 c 0
 21.439453125 8.25390625 20.6669921875 8 20 8 c 0
 19.84375 8 19.80078125 7.984375 19.783203125 7.984375 c 2
 19.78125 7.984375 l 1
 19.779296875 7.984375 l 1
 19.779296875 7.986328125 l 1
 19.77734375 7.986328125 l 1
 19.775390625 7.98828125 l 1
 19.7734375 7.990234375 l 2
 19.7626953125 8.001953125 19.7509765625 8.0283203125 19.681640625 8.0859375 c 0
 19.5009765625 8.2421875 18.90234375 8.9375 18.29296875 10.765625 c 0
 17.07421875 14.4228515625 15.998046875 22.1904296875 15.998046875 36 c 0
 15.998046875 36.5087890625 16.0009765625 37.009765625 16.005859375 37.50390625 c 0
 19.0966796875 38.962890625 21.837890625 40 24 40 c 1
 24 48 l 1
 21.2607421875 48 18.7529296875 47.3603515625 16.419921875 46.46875 c 1
 17.0869140625 54.2744140625 18.453125 59.875 19.822265625 64.32421875 c 0
 21.7373046875 70.548828125 24 74.666015625 24 80 c 1
 15.998046875 80 l 2
EndSplineSet
EndChar

StartChar: u
Encoding: 85 117 86
Width: 40
Flags: HW
LayerCount: 2
Fore
SplineSet
7.998046875 48 m 1
 7.998046875 45.3330078125 6.388671875 41.7255859375 4.34375 37.125 c 0
 2.298828125 32.5244140625 -0 26.888671875 -0 20 c 0
 -0 13.5556640625 1.00390625 8.8828125 3.068359375 5.44140625 c 0
 5.1328125 2 8.6669921875 -0 12 -0 c 0
 15.6669921875 -0 18.451171875 2.044921875 20.703125 4.296875 c 0
 21.904296875 5.498046875 22.998046875 6.83203125 24 8.22265625 c 1
 24 -0 l 1
 31.998046875 -0 l 1
 31.998046875 48 l 1
 24 48 l 1
 24 24.802734375 l 2
 23.3671875 23.322265625 21.7294921875 19.6611328125 19.568359375 16.05859375 c 0
 18.1689453125 13.7265625 16.54296875 11.451171875 15.044921875 9.953125 c 0
 13.546875 8.455078125 12.3330078125 8 12 8 c 0
 11.3330078125 8 10.8642578125 8.0009765625 9.9296875 9.55859375 c 0
 8.9951171875 11.1171875 7.998046875 14.4443359375 7.998046875 20 c 0
 7.998046875 25.111328125 9.69921875 29.4755859375 11.654296875 33.875 c 0
 13.609375 38.2744140625 16 42.666015625 16 48 c 1
 7.998046875 48 l 1
EndSplineSet
EndChar

StartChar: v
Encoding: 86 118 87
Width: 40
Flags: HW
LayerCount: 2
Fore
SplineSet
0 48 m 1
 0 -0 l 1
 8 -0 l 1
 8 -0 8.9228515625 2.669921875 11.05859375 5.814453125 c 0
 13.1953125 8.958984375 16.2041015625 12.8525390625 19.2685546875 17.193359375 c 0
 25.396484375 25.8740234375 32.0009765625 36.400390625 32.0009765625 48 c 1
 24 48 l 1
 24 39.599609375 18.6044921875 30.1259765625 12.732421875 21.806640625 c 0
 11.056640625 19.4326171875 9.5849609375 17.408203125 8 15.2451171875 c 1
 8 48 l 1
 0 48 l 1
EndSplineSet
EndChar

StartChar: w
Encoding: 87 119 88
Width: 56
Flags: HW
LayerCount: 2
Fore
SplineSet
16 48.001953125 m 1
 8 48 l 2
 8 40.666015625 6.607421875 39.126953125 4.525390625 35.484375 c 0
 2.4443359375 31.841796875 0 26.533203125 0 16 c 0
 0 11.3330078125 1.1591796875 7.453125 3.298828125 4.599609375 c 0
 5.439453125 1.74609375 8.6669921875 -0 12 -0 c 0
 14.8388671875 -0 17.0048828125 1.6162109375 18.42578125 3.22265625 c 0
 18.865234375 3.71875 19.259765625 4.234375 19.619140625 4.759765625 c 1
 19.7958984375 4.55859375 19.9794921875 4.3623046875 20.169921875 4.171875 c 0
 23.11328125 1.228515625 27.333984375 -0 32 -0 c 0
 36.111328125 -0 39.8525390625 2.052734375 42.13671875 5.099609375 c 0
 44.421875 8.1455078125 45.619140625 11.9375 46.4296875 16.263671875 c 0
 48.052734375 24.916015625 48 36 48 48 c 1
 39.998046875 48 l 1
 39.998046875 36 39.9462890625 25.0849609375 38.568359375 17.73828125 c 0
 37.8798828125 14.064453125 36.8271484375 11.353515625 35.736328125 9.900390625 c 0
 34.646484375 8.4462890625 33.888671875 8 32 8 c 0
 28.6669921875 8 26.8857421875 8.7705078125 25.828125 9.828125 c 0
 24.7783203125 10.8779296875 24.0107421875 12.642578125 24 15.931640625 c 0
 24 15.9541015625 24 15.9765625 24 16 c 0
 24 18.666015625 25.5205078125 21.0732421875 27.654296875 25.875 c 0
 29.7890625 30.67578125 32 37.466796875 32 48 c 1
 23.998046875 48 l 1
 23.998046875 38.533203125 22.2099609375 33.3232421875 20.34375 29.125 c 0
 18.537109375 25.05859375 16.154296875 21.560546875 16.005859375 16.498046875 c 0
 16.005859375 16.49609375 16.0048828125 16.494140625 16.00390625 16.490234375 c 0
 15.9326171875 16.2158203125 15.8193359375 15.796875 15.6640625 15.29296875 c 0
 15.3544921875 14.2841796875 14.8818359375 12.92578125 14.30078125 11.64453125 c 0
 13.720703125 10.36328125 13.0009765625 9.1630859375 12.43359375 8.521484375 c 0
 12.1513671875 8.2021484375 11.978515625 8.072265625 11.908203125 8.021484375 c 0
 11.26171875 8.0439453125 10.5224609375 8.30078125 9.69921875 9.3984375 c 0
 8.83984375 10.544921875 8 12.6669921875 8 16 c 0
 8 25.466796875 9.5546875 28.158203125 11.47265625 31.515625 c 0
 13.3916015625 34.873046875 16 39.3330078125 16 48 c 2
 16 48.001953125 l 1
15.998046875 15.947265625 m 2
 15.998046875 15.9482421875 l 1
 15.9990234375 15.919921875 16.0009765625 15.888671875 16.001953125 15.8583984375 c 0
 16.001953125 15.8505859375 16.0029296875 15.8388671875 16.005859375 15.828125 c 1
 16.005859375 15.8681640625 15.998046875 15.90625 15.998046875 15.947265625 c 2
EndSplineSet
EndChar

StartChar: x
Encoding: 88 120 89
Width: 56
Flags: HW
LayerCount: 2
Fore
SplineSet
31.990234375 48.076171875 m 1
 31.990234375 48.07421875 l 1
 31.98828125 48.07421875 l 1
 31.986328125 48.072265625 l 2
 31.94140625 48.0166015625 31.767578125 47.3046875 31.19921875 46.361328125 c 0
 30.5 45.19921875 29.3525390625 43.6572265625 27.919921875 41.92578125 c 0
 25.6669921875 39.203125 22.71484375 35.9931640625 19.587890625 32.53125 c 1
 18.3828125 35.2724609375 17.0859375 38.28125 15.67578125 41.572265625 c 0
 14.4765625 44.375 11.8037109375 46.54296875 9.060546875 47.2890625 c 0
 6.31640625 48.03515625 3.5322265625 47.99609375 0.001953125 47.99609375 c 1
 0.001953125 40 l 1
 3.4638671875 40 5.86328125 39.87109375 6.962890625 39.572265625 c 0
 8.0625 39.2734375 7.888671875 39.443359375 8.322265625 38.4296875 c 2
 8.322265625 38.42578125 l 1
 8.322265625 38.421875 l 2
 10.3359375 33.7236328125 12.109375 29.5771484375 13.7421875 25.91015625 c 0
 10.8115234375 22.474609375 7.984375 18.9091796875 5.64453125 15.302734375 c 0
 2.44140625 10.365234375 0.001953125 5.3330078125 0.001953125 -0 c 1
 8 -0 l 1
 8 2.6669921875 9.560546875 6.634765625 12.357421875 10.947265625 c 0
 13.8193359375 13.201171875 15.5791015625 15.5458984375 17.490234375 17.904296875 c 1
 19.21875 14.458984375 20.8701171875 11.5849609375 22.611328125 9.162109375 c 0
 27.04296875 2.9970703125 32.951171875 -0.00390625 40 -0.00390625 c 1
 40 7.998046875 l 1
 34.67578125 7.998046875 32.5830078125 8.9970703125 29.107421875 13.83203125 c 0
 27.33203125 16.302734375 25.4296875 19.8369140625 23.193359375 24.5703125 c 0
 27.078125 28.9326171875 31.0009765625 33.1015625 34.08203125 36.82421875 c 0
 35.6494140625 38.7177734375 37.001953125 40.4873046875 38.052734375 42.232421875 c 0
 39.103515625 43.9775390625 40.001953125 45.6669921875 40.001953125 48 c 1
 32 48 l 1
 32 48.0380859375 31.9990234375 48.0615234375 31.99609375 48.072265625 c 2
 31.994140625 48.072265625 l 1
 31.994140625 48.07421875 l 1
 31.9921875 48.076171875 l 1
 31.990234375 48.076171875 l 1
0.001953125 47.99609375 m 1
 0 47.99609375 l 1
 0.001953125 48 l 1
 0.001953125 47.99609375 l 1
EndSplineSet
EndChar

StartChar: y
Encoding: 89 121 90
Width: 40
Flags: HW
LayerCount: 2
Fore
SplineSet
-0 48 m 1
 -0 40 l 1
 3.3330078125 40 5.1142578125 39.228515625 6.171875 38.171875 c 0
 7.2294921875 37.1142578125 8 35.3330078125 8 32 c 0
 8 29.3330078125 7.171875 28.828125 5.171875 26.828125 c 0
 3.171875 24.828125 -0 21.3330078125 -0 16 c 0
 -0 10.666015625 3.08984375 6.056640625 7.515625 3.52734375 c 0
 10.8916015625 1.59765625 14.9599609375 0.5595703125 19.560546875 0.17578125 c 1
 18.232421875 -2.345703125 16.5693359375 -4.025390625 14.24609375 -5.31640625 c 0
 11.17578125 -7.0224609375 6.619140625 -8 -0 -8 c 1
 -0 -16 l 1
 7.380859375 -16 13.326171875 -14.9775390625 18.130859375 -12.30859375 c 0
 22.935546875 -9.6396484375 26.267578125 -5.2734375 28.25390625 0.1171875 c 0
 32.2265625 10.8984375 32.001953125 26 32.001953125 48 c 1
 24 48 l 1
 24 30.005859375 23.8505859375 16.76171875 22.138671875 8.0390625 c 0
 17.4638671875 8.2353515625 13.765625 9.169921875 11.486328125 10.47265625 c 0
 8.912109375 11.943359375 8.001953125 13.3330078125 8.001953125 16 c 0
 8.001953125 18.666015625 8.830078125 19.171875 10.830078125 21.171875 c 0
 12.830078125 23.171875 16.001953125 26.666015625 16.001953125 32 c 0
 16.001953125 36.666015625 14.7724609375 40.884765625 11.830078125 43.828125 c 0
 8.8876953125 46.7705078125 4.6669921875 48 -0 48 c 1
EndSplineSet
EndChar

StartChar: z
Encoding: 90 122 91
Width: 40
Flags: HW
LayerCount: 2
Fore
SplineSet
8 48 m 1
 8 40 l 1
 15.298828125 40 20.6044921875 38.4990234375 23.56640625 37.439453125 c 1
 20.6435546875 34.91015625 15.9501953125 30.8916015625 11.2421875 26.119140625 c 0
 8.4677734375 23.306640625 5.8193359375 20.3583984375 3.755859375 17.408203125 c 0
 1.6923828125 14.458984375 0 11.576171875 0 8 c 2
 0 -0 l 1
 4 -0 l 2
 14.533203125 -0 20.5576171875 2.2822265625 24.4853515625 4.52734375 c 0
 26.44921875 5.6494140625 27.8427734375 6.6455078125 28.9150390625 7.205078125 c 0
 29.9873046875 7.763671875 30.6689453125 8.0009765625 32.001953125 8.0009765625 c 1
 32.001953125 16.0009765625 l 1
 29.3349609375 16.0009765625 27.0166015625 15.23828125 25.2138671875 14.296875 c 0
 23.41015625 13.3564453125 22.052734375 12.3515625 20.5166015625 11.4736328125 c 0
 17.951171875 10.0078125 14.5537109375 8.630859375 8.0625 8.1953125 c 1
 8.1357421875 8.767578125 8.765625 10.61328125 10.3115234375 12.8232421875 c 0
 11.9521484375 15.169921875 14.349609375 17.876953125 16.9375 20.5009765625 c 0
 22.1142578125 25.7490234375 27.9677734375 30.630859375 30.6513671875 33.00390625 c 2
 32 34.1982421875 l 1
 32 42.47265625 l 1
 29.7890625 43.5771484375 l 1
 29.7890625 43.5771484375 20.8896484375 48 8 48 c 1
EndSplineSet
EndChar

StartChar: braceright
Encoding: 93 125 92
Width: 40
Flags: HW
LayerCount: 2
Fore
SplineSet
7.9990234375 92 m 1
 14.2490234375 92 18.8583984375 91.4580078125 22.48046875 90.2119140625 c 0
 26.1025390625 88.9658203125 28.9345703125 86.6865234375 30.146484375 83.6845703125 c 0
 31.3583984375 80.681640625 30.9560546875 77.6611328125 30.2099609375 74.923828125 c 0
 29.4638671875 72.1875 28.2978515625 69.5419921875 27.17578125 66.9248046875 c 0
 24.931640625 61.6884765625 23.1240234375 56.642578125 23.7451171875 53.291015625 c 0
 24.0556640625 51.615234375 24.7587890625 50.1953125 26.6953125 48.578125 c 0
 28.5703125 47.0126953125 31.744140625 45.3740234375 36.6015625 44 c 2
 39.947265625 44 l 1
 40 44 l 1
 40.0517578125 36 l 1
 40.0517578125 36 38.998046875 35.986328125 37.9580078125 35.9794921875 c 0
 37.4921875 35.9765625 37.0517578125 35.9755859375 36.669921875 35.9775390625 c 0
 32.986328125 34.6708984375 30.68359375 33.17578125 29.341796875 31.75 c 0
 27.923828125 30.2431640625 27.365234375 28.8154296875 27.1630859375 26.9951171875 c 0
 26.7587890625 23.35546875 28.5078125 18.123046875 30.2939453125 12.7646484375 c 0
 31.1875 10.0859375 32.0556640625 7.3671875 32.42578125 4.5439453125 c 0
 32.796875 1.720703125 32.64453125 -1.3916015625 31.0234375 -4.19140625 c 0
 29.4033203125 -6.9912109375 26.4853515625 -9.0302734375 22.732421875 -10.23828125 c 0
 18.9794921875 -11.4453125 14.25 -12 8 -12 c 1
 8 -4 l 2
 13.75 -4 17.76953125 -3.4306640625 20.2822265625 -2.6220703125 c 0
 22.794921875 -1.8134765625 23.658203125 -0.9462890625 24.1005859375 -0.18359375 c 0
 24.5419921875 0.580078125 24.7333984375 1.685546875 24.494140625 3.5029296875 c 0
 24.255859375 5.3203125 23.5615234375 7.6640625 22.705078125 10.2353515625 c 0
 20.9912109375 15.376953125 18.4912109375 21.39453125 19.2119140625 27.87890625 c 0
 19.572265625 31.12109375 20.919921875 34.474609375 23.5166015625 37.2333984375 c 0
 24.28125 38.0458984375 25.171875 38.791015625 26.1298828125 39.5009765625 c 1
 24.416015625 40.39453125 22.8662109375 41.353515625 21.5693359375 42.4365234375 c 0
 18.396484375 45.0849609375 16.505859375 48.447265625 15.87890625 51.833984375 c 0
 14.625 58.607421875 17.5673828125 64.8115234375 19.8232421875 70.0751953125 c 0
 20.951171875 72.7080078125 21.9736328125 75.125 22.4921875 77.029296875 c 0
 23.01171875 78.93359375 22.9541015625 80.130859375 22.7275390625 80.6904296875 c 0
 22.501953125 81.25 22.115234375 81.876953125 19.8779296875 82.646484375 c 0
 17.640625 83.416015625 13.75 84 8 84 c 2
 7.9990234375 92 l 1
EndSplineSet
EndChar

StartChar: asciitilde
Encoding: 94 126 93
Width: 64
Flags: HW
LayerCount: 2
Fore
SplineSet
15.9990234375 48 m 0
 11.3330078125 48 7.1142578125 46.771484375 4.171875 43.8291015625 c 0
 1.228515625 40.8857421875 -0 36.6669921875 -0 32 c 1
 8 32 l 1
 8 35.3330078125 8.771484375 37.115234375 9.828125 38.171875 c 0
 10.8857421875 39.2294921875 12.666015625 40.0009765625 15.9990234375 40.0009765625 c 0
 16.666015625 40.0009765625 17.94140625 39.5439453125 19.599609375 38.30078125 c 0
 21.2587890625 37.056640625 23.171875 35.171875 25.171875 33.171875 c 0
 27.171875 31.171875 29.2587890625 29.0556640625 31.599609375 27.2998046875 c 0
 33.94140625 25.5439453125 36.666015625 24 39.9990234375 24 c 0
 44.666015625 24 48.8857421875 25.228515625 51.828125 28.171875 c 0
 54.771484375 31.1142578125 56 35.333984375 56 40.0009765625 c 1
 48 40.0009765625 l 1
 48 36.6669921875 47.228515625 34.8857421875 46.171875 33.828125 c 0
 45.1142578125 32.771484375 43.3330078125 32 39.9990234375 32 c 0
 39.3330078125 32 38.05859375 32.4560546875 36.400390625 33.7001953125 c 0
 34.7412109375 34.9443359375 32.828125 36.828125 30.828125 38.828125 c 0
 28.828125 40.828125 26.7412109375 42.943359375 24.400390625 44.7001953125 c 0
 22.05859375 46.4560546875 19.3330078125 48 15.9990234375 48 c 0
EndSplineSet
EndChar

StartChar: bar
Encoding: 92 124 94
Width: 24
Flags: HW
LayerCount: 2
Fore
SplineSet
8 -0 m 1
 16 -0 l 1
 16 80 l 1
 8 80 l 1
 8 -0 l 1
EndSplineSet
EndChar

StartChar: agrave
Encoding: 124 224 95
Width: 48
Flags: HW
LayerCount: 2
Fore
SplineSet
20.0009765625 48 m 2
 14.0009765625 48 9.126953125 43.9013671875 5.671875 38.71875 c 0
 2.216796875 33.5361328125 0 26.888671875 0 20 c 0
 0 13.5556640625 1.0048828125 8.8837890625 3.0703125 5.4423828125 c 0
 5.134765625 2.0009765625 8.6669921875 0 12.0009765625 0 c 0
 15.6669921875 0 18.4521484375 2.0439453125 20.7041015625 4.296875 c 0
 21.8974609375 5.4892578125 22.970703125 6.8203125 23.966796875 8.2001953125 c 1
 23.974609375 6.7685546875 24.0009765625 5.5419921875 24.0009765625 4 c 2
 24.0009765625 0 l 1
 40 0 l 1
 40 8 l 1
 31.9736328125 8 l 2
 31.951171875 13.53515625 31.8740234375 18.408203125 31.7080078125 22.5 c 0
 31.7158203125 22.515625 l 1
 31.7080078125 22.51953125 l 2
 31.466796875 28.490234375 31.0537109375 33.1884765625 30.3369140625 36.7841796875 c 0
 29.671875 40.119140625 28.7890625 42.732421875 27.0263671875 44.8271484375 c 0
 25.2646484375 46.921875 22.4384765625 48.001953125 20.0009765625 48.001953125 c 2
 20.0009765625 48 l 2
20.0009765625 40 m 1
 20.7802734375 40 20.5634765625 40.080078125 20.904296875 39.6748046875 c 0
 21.2451171875 39.26953125 21.958984375 37.8818359375 22.490234375 35.2177734375 c 0
 23.0068359375 32.62890625 23.3720703125 28.896484375 23.6171875 23.96875 c 0
 22.9375 22.3916015625 21.65234375 19.529296875 19.5703125 16.05859375 c 0
 18.1708984375 13.7265625 16.544921875 11.451171875 15.046875 9.953125 c 0
 13.5498046875 8.455078125 12.333984375 8 12.0009765625 8 c 0
 11.333984375 8 10.865234375 8 9.9296875 9.55859375 c 0
 8.9951171875 11.1171875 8.0009765625 14.4443359375 8.0009765625 20 c 0
 8.0009765625 25.111328125 9.783203125 30.4638671875 12.328125 34.28125 c 0
 14.873046875 38.0986328125 18.0009765625 40 20.0009765625 40 c 1
 20.0009765625 40 l 1
18.83203125 74.828125 m 1
 13.1748046875 69.1708984375 l 1
 29.1748046875 53.1708984375 l 1
 34.8310546875 58.828125 l 1
 18.83203125 74.828125 l 1
EndSplineSet
AlternateSubs2: "'salt' Stylistic Alternatives in Latin lookup 0-1" agrave.doublestory
EndChar

StartChar: aacute
Encoding: 125 225 96
Width: 48
Flags: HW
LayerCount: 2
Fore
SplineSet
20.0009765625 48 m 2
 14.0009765625 48 9.126953125 43.9013671875 5.671875 38.71875 c 0
 2.216796875 33.5361328125 0 26.888671875 0 20 c 0
 0 13.5556640625 1.0048828125 8.8837890625 3.0703125 5.4423828125 c 0
 5.134765625 2.0009765625 8.6669921875 0 12.0009765625 0 c 0
 15.6669921875 0 18.4521484375 2.0439453125 20.7041015625 4.296875 c 0
 21.8974609375 5.4892578125 22.970703125 6.8203125 23.966796875 8.2001953125 c 1
 23.974609375 6.7685546875 24.0009765625 5.5419921875 24.0009765625 4 c 2
 24.0009765625 0 l 1
 40 0 l 1
 40 8 l 1
 31.9736328125 8 l 2
 31.951171875 13.53515625 31.8740234375 18.408203125 31.7080078125 22.5 c 0
 31.7158203125 22.515625 l 1
 31.7080078125 22.51953125 l 2
 31.466796875 28.4892578125 31.0537109375 33.1875 30.3369140625 36.7841796875 c 0
 29.671875 40.119140625 28.7890625 42.732421875 27.0263671875 44.8271484375 c 0
 25.2646484375 46.921875 22.4384765625 48.001953125 20.0009765625 48.001953125 c 2
 20.0009765625 48 l 2
20.0009765625 40 m 1
 20.7802734375 40 20.5634765625 40.080078125 20.904296875 39.6748046875 c 0
 21.2451171875 39.26953125 21.958984375 37.8818359375 22.490234375 35.2177734375 c 0
 23.0068359375 32.62890625 23.3720703125 28.896484375 23.6171875 23.96875 c 0
 22.9375 22.3916015625 21.65234375 19.5283203125 19.5703125 16.05859375 c 0
 18.1708984375 13.7265625 16.544921875 11.451171875 15.046875 9.953125 c 0
 13.5498046875 8.455078125 12.333984375 8 12.0009765625 8 c 0
 11.333984375 8 10.865234375 8 9.9296875 9.55859375 c 0
 8.9951171875 11.1171875 8.0009765625 14.4443359375 8.0009765625 20 c 0
 8.0009765625 25.111328125 9.783203125 30.4638671875 12.328125 34.28125 c 0
 14.873046875 38.0986328125 18.0009765625 40 20.0009765625 40 c 1
 20.0009765625 40 l 1
29.1748046875 74.828125 m 1
 29.1748046875 74.828125 21.1748046875 66.8291015625 13.1748046875 58.8291015625 c 2
 18.83203125 53.1708984375 l 1
 26.83203125 61.171875 34.83203125 69.171875 34.83203125 69.171875 c 1
 29.1748046875 74.828125 l 1
EndSplineSet
AlternateSubs2: "'salt' Stylistic Alternatives in Latin lookup 0-1" aacute.doublestory
EndChar

StartChar: acircumflex
Encoding: 126 226 97
Width: 48
Flags: HW
LayerCount: 2
Fore
SplineSet
20.0009765625 48 m 2
 14.0009765625 48 9.126953125 43.9013671875 5.671875 38.71875 c 0
 2.216796875 33.5361328125 0 26.888671875 0 20 c 0
 0 13.5556640625 1.0048828125 8.8837890625 3.0703125 5.4423828125 c 0
 5.134765625 2.0009765625 8.6669921875 0 12.0009765625 0 c 0
 15.6669921875 0 18.4521484375 2.044921875 20.7041015625 4.296875 c 0
 21.8974609375 5.4892578125 22.970703125 6.8203125 23.966796875 8.2001953125 c 1
 23.974609375 6.7685546875 24.0009765625 5.5419921875 24.0009765625 4 c 2
 24.0009765625 0 l 1
 40 0 l 1
 40 8 l 1
 31.9736328125 8 l 2
 31.951171875 13.53515625 31.8740234375 18.408203125 31.7080078125 22.5 c 0
 31.7158203125 22.515625 l 1
 31.7080078125 22.51953125 l 2
 31.466796875 28.490234375 31.0537109375 33.1884765625 30.3369140625 36.7841796875 c 0
 29.671875 40.1201171875 28.7890625 42.732421875 27.0263671875 44.8271484375 c 0
 25.2646484375 46.921875 22.4384765625 48.001953125 20.0009765625 48.001953125 c 2
 20.0009765625 48 l 2
20.0009765625 40 m 1
 20.7802734375 40 20.5634765625 40.080078125 20.904296875 39.6748046875 c 0
 21.2451171875 39.26953125 21.958984375 37.8828125 22.490234375 35.2177734375 c 0
 23.0068359375 32.62890625 23.3720703125 28.896484375 23.6171875 23.96875 c 0
 22.9375 22.3916015625 21.65234375 19.529296875 19.5703125 16.05859375 c 0
 18.1708984375 13.7265625 16.544921875 11.451171875 15.046875 9.953125 c 0
 13.5498046875 8.4560546875 12.333984375 8 12.0009765625 8 c 0
 11.333984375 8 10.865234375 8 9.9296875 9.55859375 c 0
 8.9951171875 11.1171875 8.0009765625 14.4443359375 8.0009765625 20 c 0
 8.0009765625 25.111328125 9.783203125 30.4638671875 12.328125 34.28125 c 0
 14.873046875 38.0986328125 18.0009765625 40 20.0009765625 40 c 1
 20.0009765625 40 l 1
16.802734375 74.3994140625 m 1
 4.802734375 58.3994140625 l 1
 11.203125 53.599609375 l 1
 20.0029296875 65.3330078125 l 1
 28.802734375 53.599609375 l 1
 35.203125 58.3994140625 l 1
 23.203125 74.3994140625 l 1
 16.802734375 74.3994140625 l 1
EndSplineSet
AlternateSubs2: "'salt' Stylistic Alternatives in Latin lookup 0-1" acircumflex.doublestory
EndChar

StartChar: atilde
Encoding: 127 227 98
Width: 48
Flags: HW
LayerCount: 2
Fore
SplineSet
20 48 m 2
 14 48 9.126953125 43.9013671875 5.70131502268 38.762910034 c 0
 2.216796875 33.5361328125 -0 26.888671875 -0 18.9204779028 c 0
 -0 13.5556640625 1.0048828125 8.8837890625 2.9359323026 5.66552545261 c 0
 5.134765625 2.0009765625 8.6669921875 0 12.1484016099 0 c 0
 15.6669921875 0 18.4521484375 2.0439453125 20.6203235358 4.21212041083 c 0
 21.8974609375 5.4892578125 22.970703125 6.8203125 23.966796875 8.2001953125 c 1
 23.974609375 6.7685546875 24.0009765625 5.5419921875 24.0009765625 4 c 2
 24.0009765625 0 l 1
 40 0 l 1
 40 8 l 1
 31.9736328125 8 l 2
 31.951171875 13.53515625 31.8740234375 18.408203125 31.7427529574 21.6436343707 c 0
 31.7080078125 22.5 31.7158203125 22.515625 31.7158203125 22.515625 c 1
 31.7080078125 22.51953125 l 2
 31.466796875 28.4892578125 31.0537109375 33.1884765625 30.299052661 36.973501148 c 0
 29.671875 40.119140625 28.7890625 42.732421875 27.1923857862 44.6303833885 c 0
 25.2646484375 46.921875 22.4384765625 48.001953125 20.0009765625 48.001953125 c 2
 20 48 l 2
20 40 m 2
 20.7802734375 40 20.5625 40.080078125 20.8113482449 39.7845930845 c 0
 21.2451171875 39.26953125 21.958984375 37.8818359375 22.5015960879 35.159160188 c 0
 23.005859375 32.62890625 23.3720703125 28.896484375 23.1730959209 25.9181283697 c 0
 22.9375 22.3916015625 21.65234375 19.5283203125 19.6918385984 16.2611783474 c 0
 18.1708984375 13.7265625 16.544921875 11.451171875 15.1071113729 10.0128925726 c 0
 13.5498046875 8.455078125 12.333984375 8 12.0009765625 8 c 0
 11.333984375 8 10.865234375 8 10.1052998694 9.26668978682 c 0
 8.9951171875 11.1171875 8 14.4443359375 8 19.0055335847 c 0
 8 25.111328125 9.783203125 30.4638671875 12.3018753573 34.241875536 c 0
 14.873046875 38.0986328125 18.0009765625 40 20 40 c 2
 20 40 l 2
31.994140625 72 m 2
 31.994140625 68.66796875 30.7509765625 65.4169921875 30.089883873 64.7551616714 c 0
 29.8759765625 64.541015625 30.197265625 64.6533203125 29.9362718442 64.6969662319 c 0
 29.619140625 64.75 28.478515625 65.1875 26.5408383284 67.1247042309 c 0
 24.478515625 69.1865234375 22.119140625 70.75 19.6129324463 71.1676261152 c 0
 16.6982421875 71.6533203125 13.875 70.541015625 11.847280067 68.5129092388 c 0
 8.7509765625 65.416015625 7.994140625 60.66796875 7.994140625 56 c 1
 16.0068359375 56 l 1
 16.0068359375 59.33203125 17.2490234375 62.583984375 17.9102505078 63.2452114453 c 0
 18.1240234375 63.458984375 17.802734375 63.3466796875 18.0633075909 63.303104099 c 0
 18.380859375 63.25 19.521484375 62.8134765625 21.4583114555 60.876649482 c 0
 23.521484375 58.8134765625 25.8818359375 57.25 28.3877507328 56.8324227733 c 0
 31.302734375 56.3466796875 34.125 57.4599609375 36.151738919 59.4866998565 c 0
 39.2490234375 62.583984375 40.0068359375 67.3330078125 40.0068359375 72 c 1
 31.994140625 72 l 2
EndSplineSet
AlternateSubs2: "'salt' Stylistic Alternatives in Latin lookup 0-1" atilde.doublestory
EndChar

StartChar: adieresis
Encoding: 128 228 99
Width: 48
Flags: HW
LayerCount: 2
Fore
SplineSet
20.0009765625 48 m 2
 14.0009765625 48 9.126953125 43.9013671875 5.671875 38.71875 c 0
 2.216796875 33.5361328125 0 26.888671875 0 20 c 0
 0 13.5556640625 1.0048828125 8.8837890625 3.0703125 5.4423828125 c 0
 5.134765625 2.0009765625 8.6669921875 0 12.0009765625 0 c 0
 15.6669921875 0 18.4521484375 2.0439453125 20.7041015625 4.296875 c 0
 21.8974609375 5.4892578125 22.970703125 6.8203125 23.966796875 8.2001953125 c 1
 23.974609375 6.7685546875 24.0009765625 5.5419921875 24.0009765625 4 c 2
 24.0009765625 0 l 1
 40 0 l 1
 40 8 l 1
 31.9736328125 8 l 2
 31.951171875 13.53515625 31.8740234375 18.408203125 31.7080078125 22.5 c 0
 31.7158203125 22.515625 l 1
 31.7080078125 22.51953125 l 2
 31.466796875 28.490234375 31.0537109375 33.1884765625 30.3369140625 36.7841796875 c 0
 29.671875 40.119140625 28.7890625 42.732421875 27.0263671875 44.8271484375 c 0
 25.2646484375 46.921875 22.4384765625 48.001953125 20.0009765625 48.001953125 c 2
 20.0009765625 48 l 2
20.0009765625 40 m 1
 20.7802734375 40 20.5634765625 40.080078125 20.904296875 39.6748046875 c 0
 21.2451171875 39.26953125 21.958984375 37.8818359375 22.490234375 35.2177734375 c 0
 23.0068359375 32.62890625 23.3720703125 28.896484375 23.6171875 23.96875 c 0
 22.9375 22.3916015625 21.65234375 19.529296875 19.5703125 16.05859375 c 0
 18.1708984375 13.7265625 16.544921875 11.451171875 15.046875 9.953125 c 0
 13.5498046875 8.455078125 12.333984375 8 12.0009765625 8 c 0
 11.333984375 8 10.865234375 8 9.9296875 9.55859375 c 0
 8.9951171875 11.1171875 8.0009765625 14.4443359375 8.0009765625 20 c 0
 8.0009765625 25.111328125 9.783203125 30.4638671875 12.328125 34.28125 c 0
 14.873046875 38.0986328125 18.0009765625 40 20.0009765625 40 c 1
 20.0009765625 40 l 1
8.0029296875 56 m 1
 16.0029296875 56 l 1
 16.0029296875 64 l 1
 8.0029296875 64 l 1
 8.0029296875 56 l 1
24.0029296875 56 m 1
 32.0029296875 56 l 1
 32.0029296875 64 l 1
 24.0029296875 64 l 1
 24.0029296875 56 l 1
EndSplineSet
AlternateSubs2: "'salt' Stylistic Alternatives in Latin lookup 0-1" adiaresis.doublestory
EndChar

StartChar: aring
Encoding: 129 229 100
Width: 48
Flags: HW
LayerCount: 2
Fore
SplineSet
20.0009765625 48 m 2
 14.0009765625 48 9.126953125 43.9013671875 5.671875 38.71875 c 0
 2.216796875 33.5361328125 0 26.888671875 0 20 c 0
 0 13.5556640625 1.0048828125 8.8837890625 3.0703125 5.4423828125 c 0
 5.134765625 2.0009765625 8.6669921875 0 12.0009765625 0 c 0
 15.6669921875 0 18.4521484375 2.0439453125 20.7041015625 4.296875 c 0
 21.8974609375 5.4892578125 22.970703125 6.8203125 23.966796875 8.2001953125 c 1
 23.974609375 6.7685546875 24.0009765625 5.5419921875 24.0009765625 4 c 2
 24.0009765625 0 l 1
 40 0 l 1
 40 8 l 1
 31.9736328125 8 l 2
 31.951171875 13.53515625 31.8740234375 18.408203125 31.7080078125 22.5 c 0
 31.7158203125 22.515625 l 1
 31.7080078125 22.51953125 l 2
 31.466796875 28.490234375 31.0537109375 33.1884765625 30.3369140625 36.7841796875 c 0
 29.671875 40.119140625 28.7890625 42.732421875 27.0263671875 44.8271484375 c 0
 25.2646484375 46.921875 22.4384765625 48.001953125 20.0009765625 48.001953125 c 2
 20.0009765625 48 l 2
20.0009765625 40 m 1
 20.7802734375 40 20.5634765625 40.080078125 20.904296875 39.6748046875 c 0
 21.2451171875 39.26953125 21.958984375 37.8818359375 22.490234375 35.2177734375 c 0
 23.0068359375 32.62890625 23.3720703125 28.896484375 23.6171875 23.96875 c 0
 22.9375 22.3916015625 21.65234375 19.529296875 19.5703125 16.05859375 c 0
 18.1708984375 13.7265625 16.544921875 11.451171875 15.046875 9.953125 c 0
 13.5498046875 8.455078125 12.333984375 8 12.0009765625 8 c 0
 11.333984375 8 10.865234375 8 9.9296875 9.55859375 c 0
 8.9951171875 11.1171875 8.0009765625 14.4443359375 8.0009765625 20 c 0
 8.0009765625 25.111328125 9.783203125 30.4638671875 12.328125 34.28125 c 0
 14.873046875 38.0986328125 18.0009765625 40 20.0009765625 40 c 1
 20.0009765625 40 l 1
20 80 m 0
 13.376953125 80 8 74.623046875 8 68 c 0
 8 61.376953125 13.376953125 56 20 56 c 0
 26.623046875 56 32 61.376953125 32 68 c 0
 32 74.623046875 26.623046875 80 20 80 c 0
20 72 m 0
 22.2080078125 72 24 70.2080078125 24 68 c 0
 24 65.7919921875 22.2080078125 64 20 64 c 0
 17.79296875 64 16 65.7919921875 16 68 c 0
 16 70.2080078125 17.79296875 72 20 72 c 0
EndSplineSet
AlternateSubs2: "'salt' Stylistic Alternatives in Latin lookup 0-1" aring.doublestory
EndChar

StartChar: ccedilla
Encoding: 130 231 101
Width: 40
Flags: HW
LayerCount: 2
Fore
SplineSet
40.0009765625 -24 m 1
 0.0009765625 -24 l 1025
20.001953125 48 m 1
 14.001953125 48 9.12890625 43.9013671875 5.673828125 38.71875 c 0
 2.21875 33.5361328125 0 26.888671875 0 20 c 0
 0 13.5546875 0.9833984375 8.619140625 3.876953125 5.001953125 c 0
 6.7705078125 1.384765625 11.3349609375 -0 16.001953125 -0 c 0
 16.337890625 -0 16.6669921875 0.0107421875 16.990234375 0.0390625 c 0
 17.8623046875 -3.5703125 17.451171875 -5.28515625 16.87890625 -6 c 0
 16.1787109375 -6.875 13.5576171875 -8 8.001953125 -8 c 1
 8.001953125 -16 l 1
 14.4462890625 -16 19.8251953125 -15.1240234375 23.125 -10.998046875 c 0
 26.0830078125 -7.30078125 26.0205078125 -2.3935546875 24.4140625 3.26953125 c 0
 26.0361328125 4.6513671875 27.3310546875 6.28515625 28.328125 7.78125 c 0
 30.6689453125 11.29296875 31.794921875 14.734375 31.794921875 14.734375 c 1
 24.205078125 17.263671875 l 1
 24.205078125 17.263671875 23.330078125 14.7060546875 21.671875 12.21875 c 0
 20.013671875 9.73046875 18.001953125 8 16.001953125 8 c 0
 12.6689453125 8 11.2314453125 8.615234375 10.125 9.998046875 c 0
 9.0185546875 11.3798828125 8 14.4443359375 8 20 c 0
 8 25.1103515625 9.78515625 30.4638671875 12.330078125 34.28125 c 0
 14.875 38.09765625 18.001953125 40 20.001953125 40 c 0
 20.6689453125 40 21.4404296875 39.74609375 22.30078125 38.599609375 c 0
 23.1611328125 37.4521484375 24 35.3330078125 24 32 c 1
 32 32 l 1
 32 36.666015625 30.8408203125 40.546875 28.701171875 43.400390625 c 0
 26.5615234375 46.2529296875 23.3349609375 48 20.001953125 48 c 1
 20.001953125 48 l 1
EndSplineSet
EndChar

StartChar: egrave
Encoding: 131 232 102
Width: 40
Flags: HW
LayerCount: 2
Fore
SplineSet
20 48 m 0
 14 48 9.126953125 43.9013671875 5.671875 38.71875 c 0
 2.216796875 33.5361328125 -0 26.888671875 -0 20 c 0
 -0 13.5556640625 1.1630859375 7.9912109375 5.4384765625 4.427734375 c 0
 9.71484375 0.8642578125 15.6669921875 0 24 0 c 1
 24 8 l 1
 16.3330078125 8 12.2841796875 9.1357421875 10.560546875 10.572265625 c 0
 9.3291015625 11.5986328125 8.5703125 13.189453125 8.2255859375 16.0068359375 c 1
 16.4267578125 16.0263671875 22.0654296875 16.90234375 26.21875 19.671875 c 0
 30.4140625 22.4677734375 32 27.3330078125 32 32 c 0
 32 34 32.1240234375 37.4619140625 30.7138671875 40.986328125 c 0
 29.3037109375 44.5107421875 25.3330078125 48 20 48 c 0
20 40 m 0
 22.6669921875 40 22.6962890625 39.490234375 23.2861328125 38.0146484375 c 0
 23.8759765625 36.5390625 24 34 24 32 c 0
 24 28.6669921875 23.5859375 27.5322265625 21.78125 26.328125 c 0
 20.0068359375 25.146484375 15.775390625 24.0517578125 8.3564453125 24.013671875 c 1
 8.9921875 27.7958984375 10.4462890625 31.458984375 12.328125 34.28125 c 0
 14.873046875 38.0986328125 18 40 20 40 c 0
18.8330078125 74.828125 m 1
 13.17578125 69.171875 l 1
 29.17578125 53.1708984375 l 1
 34.83203125 58.8291015625 l 1
 18.8330078125 74.828125 l 1
EndSplineSet
EndChar

StartChar: eacute
Encoding: 132 233 103
Width: 40
Flags: HW
LayerCount: 2
Fore
SplineSet
20 48 m 0
 14 48 9.126953125 43.9013671875 5.671875 38.71875 c 0
 2.216796875 33.5361328125 -0 26.888671875 -0 20 c 0
 -0 13.5556640625 1.1630859375 7.9912109375 5.439453125 4.427734375 c 0
 9.71484375 0.8642578125 15.6669921875 0 24 0 c 1
 24 8 l 1
 16.3330078125 8 12.2841796875 9.1357421875 10.560546875 10.572265625 c 0
 9.3291015625 11.5986328125 8.5703125 13.189453125 8.2255859375 16.0068359375 c 1
 16.4267578125 16.0263671875 22.0654296875 16.90234375 26.21875 19.671875 c 0
 30.4140625 22.4677734375 32 27.3330078125 32 32 c 0
 32 34 32.1240234375 37.4619140625 30.7138671875 40.986328125 c 0
 29.3037109375 44.5107421875 25.3330078125 48 20 48 c 0
20 40 m 0
 22.6669921875 40 22.6962890625 39.490234375 23.2861328125 38.0146484375 c 0
 23.8759765625 36.5390625 24 34 24 32 c 0
 24 28.6669921875 23.5859375 27.5322265625 21.78125 26.328125 c 0
 20.0068359375 25.146484375 15.775390625 24.0517578125 8.3564453125 24.013671875 c 1
 8.9921875 27.7958984375 10.4462890625 31.458984375 12.328125 34.28125 c 0
 14.873046875 38.0986328125 18 40 20 40 c 0
29.17578125 74.828125 m 1
 29.17578125 74.828125 21.17578125 66.8291015625 13.17578125 58.8291015625 c 2
 18.83203125 53.1708984375 l 1
 26.83203125 61.171875 34.83203125 69.171875 34.83203125 69.171875 c 1
 29.17578125 74.828125 l 1
EndSplineSet
EndChar

StartChar: edieresis
Encoding: 134 235 104
Width: 40
Flags: HW
LayerCount: 2
Fore
SplineSet
20 48 m 0
 14 48 9.126953125 43.9013671875 5.671875 38.71875 c 0
 2.216796875 33.5361328125 0 26.888671875 0 20 c 0
 0 13.5556640625 1.1630859375 7.9912109375 5.439453125 4.427734375 c 0
 9.71484375 0.8642578125 15.6669921875 0 24 0 c 1
 24 8 l 1
 16.3330078125 8 12.2841796875 9.1357421875 10.560546875 10.572265625 c 0
 9.3291015625 11.5986328125 8.5703125 13.189453125 8.2255859375 16.0068359375 c 1
 16.4267578125 16.0263671875 22.0654296875 16.90234375 26.21875 19.671875 c 0
 30.4140625 22.4677734375 32 27.3330078125 32 32 c 0
 32 34 32.1240234375 37.4619140625 30.7138671875 40.986328125 c 0
 29.3037109375 44.5107421875 25.3330078125 48 20 48 c 0
20 40 m 0
 22.6669921875 40 22.6962890625 39.490234375 23.2861328125 38.0146484375 c 0
 23.8759765625 36.5390625 24 34 24 32 c 0
 24 28.6669921875 23.5859375 27.5322265625 21.78125 26.328125 c 0
 20.0068359375 25.146484375 15.775390625 24.0517578125 8.3564453125 24.013671875 c 1
 8.9921875 27.7958984375 10.4462890625 31.458984375 12.328125 34.28125 c 0
 14.873046875 38.0986328125 18 40 20 40 c 0
8.00390625 56 m 1
 16.00390625 56 l 1
 16.00390625 64 l 1
 8.00390625 64 l 1
 8.00390625 56 l 1
24.00390625 56 m 1
 32.00390625 56 l 1
 32.00390625 64 l 1
 24.00390625 64 l 1
 24.00390625 56 l 1
EndSplineSet
EndChar

StartChar: ecircumflex
Encoding: 133 234 105
Width: 40
Flags: HW
LayerCount: 2
Fore
SplineSet
20 48 m 0
 14 48 9.126953125 43.9013671875 5.671875 38.71875 c 0
 2.216796875 33.5361328125 -0 26.888671875 -0 20 c 0
 -0 13.5556640625 1.1630859375 7.9912109375 5.439453125 4.427734375 c 0
 9.71484375 0.8642578125 15.6669921875 0 24 0 c 1
 24 8 l 1
 16.3330078125 8 12.2841796875 9.1357421875 10.560546875 10.572265625 c 0
 9.3291015625 11.5986328125 8.5703125 13.189453125 8.2255859375 16.0068359375 c 1
 16.4267578125 16.0263671875 22.0654296875 16.90234375 26.21875 19.671875 c 0
 30.4140625 22.4677734375 32 27.3330078125 32 32 c 0
 32 34 32.1240234375 37.4619140625 30.7138671875 40.986328125 c 0
 29.3037109375 44.5107421875 25.3330078125 48 20 48 c 0
20 40 m 0
 22.6669921875 40 22.6962890625 39.490234375 23.2861328125 38.0146484375 c 0
 23.8759765625 36.5390625 24 34 24 32 c 0
 24 28.6669921875 23.5859375 27.5322265625 21.78125 26.328125 c 0
 20.0068359375 25.146484375 15.775390625 24.0517578125 8.3564453125 24.013671875 c 1
 8.9921875 27.7958984375 10.4462890625 31.458984375 12.328125 34.28125 c 0
 14.873046875 38.0986328125 18 40 20 40 c 0
16.8037109375 74.400390625 m 1
 4.8037109375 58.400390625 l 1
 11.2041015625 53.6005859375 l 1
 20.00390625 65.333984375 l 1
 28.8037109375 53.6005859375 l 1
 35.2041015625 58.400390625 l 1
 23.2041015625 74.400390625 l 1
 16.8037109375 74.400390625 l 1
EndSplineSet
EndChar

StartChar: idieresis
Encoding: 138 239 106
Width: 40
Flags: HW
LayerCount: 2
Fore
SplineSet
8 48 m 2
 8 42.888671875 6.3896484375 39.7255859375 4.3447265625 35.125 c 0
 2.2998046875 30.5244140625 0 24.6669921875 0 16 c 0
 0 11.333984375 1.16015625 7.453125 3.2998046875 4.599609375 c 0
 5.4404296875 1.74609375 8.666015625 0 12 0 c 0
 15.3330078125 0 18.5595703125 1.74609375 20.7001953125 4.599609375 c 0
 22.83984375 7.453125 24 11.333984375 24 16 c 1
 16 16 l 1
 16 12.6669921875 15.16015625 10.546875 14.2998046875 9.400390625 c 0
 13.439453125 8.25390625 12.6669921875 8 12 8 c 0
 11.3330078125 8 10.560546875 8.25390625 9.7001953125 9.400390625 c 0
 8.83984375 10.546875 8 12.6669921875 8 16 c 0
 8 23.333984375 9.69921875 27.4755859375 11.6552734375 31.875 c 0
 13.6103515625 36.2744140625 16 41.111328125 16 48 c 1
 8 48 l 2
8.0029296875 56 m 1
 16.0029296875 56 l 1
 16.0029296875 64 l 1
 8.0029296875 64 l 1
 8.0029296875 56 l 1
24.0029296875 56 m 1
 32.0029296875 56 l 1
 32.0029296875 64 l 1
 24.0029296875 64 l 1
 24.0029296875 56 l 1
EndSplineSet
EndChar

StartChar: icircumflex
Encoding: 137 238 107
Width: 40
Flags: HW
LayerCount: 2
Fore
SplineSet
8 48 m 2
 8 42.888671875 6.3896484375 39.7255859375 4.3447265625 35.125 c 0
 2.2998046875 30.5244140625 0 24.6669921875 0 16 c 0
 0 11.333984375 1.16015625 7.453125 3.2998046875 4.599609375 c 0
 5.4404296875 1.74609375 8.666015625 0 12 0 c 0
 15.3330078125 0 18.5595703125 1.74609375 20.7001953125 4.599609375 c 0
 22.83984375 7.453125 24 11.333984375 24 16 c 1
 16 16 l 1
 16 12.6669921875 15.16015625 10.546875 14.2998046875 9.400390625 c 0
 13.439453125 8.25390625 12.6669921875 8 12 8 c 0
 11.3330078125 8 10.560546875 8.25390625 9.7001953125 9.400390625 c 0
 8.83984375 10.546875 8 12.6669921875 8 16 c 0
 8 23.333984375 9.69921875 27.4755859375 11.6552734375 31.875 c 0
 13.6103515625 36.2744140625 16 41.111328125 16 48 c 1
 8 48 l 2
16.802734375 74.400390625 m 1
 4.802734375 58.400390625 l 1
 11.203125 53.6005859375 l 1
 20.0029296875 65.333984375 l 1
 28.802734375 53.6005859375 l 1
 35.203125 58.400390625 l 1
 23.203125 74.400390625 l 1
 16.802734375 74.400390625 l 1
EndSplineSet
EndChar

StartChar: iacute
Encoding: 136 237 108
Width: 40
Flags: HW
LayerCount: 2
Fore
SplineSet
8 48 m 2
 8 42.888671875 6.3896484375 39.7255859375 4.3447265625 35.125 c 0
 2.2998046875 30.5244140625 0 24.6669921875 0 16 c 0
 0 11.333984375 1.16015625 7.453125 3.2998046875 4.599609375 c 0
 5.4404296875 1.74609375 8.666015625 0 12 0 c 0
 15.3330078125 0 18.5595703125 1.74609375 20.7001953125 4.599609375 c 0
 22.83984375 7.453125 24 11.333984375 24 16 c 1
 16 16 l 1
 16 12.6669921875 15.16015625 10.546875 14.2998046875 9.400390625 c 0
 13.439453125 8.25390625 12.6669921875 8 12 8 c 0
 11.3330078125 8 10.560546875 8.25390625 9.7001953125 9.400390625 c 0
 8.83984375 10.546875 8 12.6669921875 8 16 c 0
 8 23.333984375 9.69921875 27.4755859375 11.6552734375 31.875 c 0
 13.6103515625 36.2744140625 16 41.111328125 16 48 c 1
 8 48 l 2
29.1748046875 74.828125 m 1
 29.1748046875 74.828125 21.1748046875 66.8291015625 13.1748046875 58.8291015625 c 2
 18.8310546875 53.1708984375 l 1
 26.8310546875 61.171875 34.8310546875 69.171875 34.8310546875 69.171875 c 1
 29.1748046875 74.828125 l 1
EndSplineSet
EndChar

StartChar: igrave
Encoding: 135 236 109
Width: 40
Flags: HW
LayerCount: 2
Fore
SplineSet
8 48 m 2
 8 42.888671875 6.3896484375 39.7255859375 4.3447265625 35.125 c 0
 2.2998046875 30.5244140625 0 24.6669921875 0 16 c 0
 0 11.333984375 1.16015625 7.453125 3.2998046875 4.599609375 c 0
 5.4404296875 1.74609375 8.666015625 0 12 0 c 0
 15.3330078125 0 18.5595703125 1.74609375 20.7001953125 4.599609375 c 0
 22.83984375 7.453125 24 11.333984375 24 16 c 1
 16 16 l 1
 16 12.6669921875 15.16015625 10.546875 14.2998046875 9.400390625 c 0
 13.439453125 8.25390625 12.6669921875 8 12 8 c 0
 11.3330078125 8 10.560546875 8.25390625 9.7001953125 9.400390625 c 0
 8.83984375 10.546875 8 12.6669921875 8 16 c 0
 8 23.333984375 9.69921875 27.4755859375 11.6552734375 31.875 c 0
 13.6103515625 36.2744140625 16 41.111328125 16 48 c 1
 8 48 l 2
18.83203125 74.828125 m 1
 13.1748046875 69.171875 l 1
 29.1748046875 53.1708984375 l 1
 34.8310546875 58.8291015625 l 1
 18.83203125 74.828125 l 1
EndSplineSet
EndChar

StartChar: ntilde
Encoding: 139 241 110
Width: 40
Flags: HW
LayerCount: 2
Fore
SplineSet
0.0009765625 48 m 1
 0.0009765625 40 l 1
 2.3759765625 40 3.521484375 38.900390625 4.4228515625 36.779296875 c 0
 5.0712890625 35.2529296875 5.23828125 33.26171875 4.9404296875 31.544921875 c 0
 4.7421875 30.9892578125 4.5927734375 30.3359375 4.4033203125 29.759765625 c 0
 4.3955078125 29.740234375 4.3896484375 29.7216796875 4.3818359375 29.705078125 c 2
 4.3857421875 29.703125 l 2
 1.701171875 21.484375 0.0009765625 11.2197265625 0.0009765625 -0 c 1
 8.0009765625 -0 l 1
 8.0009765625 9.9599609375 9.458984375 19.2275390625 11.6435546875 26.34765625 c 0
 12.140625 27.4111328125 12.5107421875 28.5146484375 12.7607421875 29.638671875 c 0
 14.1484375 33.3271484375 15.7578125 36.2109375 17.1982421875 37.939453125 c 0
 18.64453125 39.673828125 19.66796875 40 20.0009765625 40 c 0
 20.66796875 40 21.439453125 39.74609375 22.2998046875 38.599609375 c 0
 23.16015625 37.4521484375 24.0009765625 35.3330078125 24.0009765625 32 c 0
 24.0009765625 26.888671875 22.3896484375 23.7255859375 20.3447265625 19.125 c 0
 18.2998046875 14.5244140625 16.0009765625 8.666015625 16.0009765625 -0 c 1
 24.0009765625 -0 l 1
 24.0009765625 7.3330078125 25.7001953125 11.4755859375 27.6552734375 15.875 c 0
 29.6103515625 20.2744140625 32.0009765625 25.111328125 32.0009765625 32 c 0
 32.0009765625 36.666015625 30.83984375 40.546875 28.7001953125 43.400390625 c 0
 26.560546875 46.2529296875 23.3349609375 48 20.0009765625 48 c 0
 16.333984375 48 13.3564453125 45.8251953125 11.0517578125 43.060546875 c 0
 10.8505859375 42.818359375 10.6533203125 42.5703125 10.4580078125 42.31640625 c 1
 8.23828125 45.537109375 4.5439453125 48 0.0009765625 48 c 1
31.990234375 72 m 2
 31.990234375 68.66796875 30.7470703125 65.416015625 30.1640625 64.8330078125 c 0
 29.8720703125 64.541015625 30.1943359375 64.6533203125 29.9052734375 64.701171875 c 0
 29.615234375 64.75 28.474609375 65.1865234375 26.8291015625 66.83203125 c 0
 24.474609375 69.1865234375 22.115234375 70.7490234375 19.4052734375 71.201171875 c 0
 16.6943359375 71.65234375 13.8720703125 70.5400390625 12.1630859375 68.83203125 c 0
 8.7470703125 65.416015625 7.990234375 60.6669921875 7.990234375 55.9990234375 c 1
 16.0029296875 55.9990234375 l 1
 16.0029296875 59.33203125 17.24609375 62.5830078125 17.8291015625 63.1669921875 c 0
 18.12109375 63.4580078125 17.798828125 63.345703125 18.087890625 63.2978515625 c 0
 18.376953125 63.25 19.517578125 62.8125 21.1640625 61.1669921875 c 0
 23.517578125 58.8125 25.8779296875 57.2490234375 28.5888671875 56.7978515625 c 0
 31.298828125 56.345703125 34.12109375 57.458984375 35.8291015625 59.1669921875 c 0
 39.24609375 62.583984375 40.0029296875 67.33203125 40.0029296875 72 c 1
 31.990234375 72 l 2
EndSplineSet
EndChar

StartChar: otilde
Encoding: 143 245 111
Width: 40
Flags: HW
LayerCount: 2
Fore
SplineSet
20 48 m 0
 16.666015625 48 13.830078125 46.412109375 11.5048828125 44.3974609375 c 0
 9.1796875 42.3828125 7.2314453125 39.8271484375 5.5693359375 37.0576171875 c 0
 2.2470703125 31.51953125 -0 25.3330078125 -0 20 c 0
 -0 13.5556640625 1.0048828125 8.8837890625 3.0703125 5.44140625 c 0
 5.134765625 2 8.6669921875 -0 12 -0 c 0
 15.3330078125 -0 18.1689453125 1.5869140625 20.494140625 3.6025390625 c 0
 22.8193359375 5.6171875 24.7685546875 8.1728515625 26.4296875 10.9423828125 c 0
 29.7529296875 16.48046875 32 22.6669921875 32 28 c 0
 32 34.4443359375 30.994140625 39.1162109375 28.9296875 42.5576171875 c 0
 26.8642578125 45.9990234375 23.3330078125 48 20 48 c 0
20 40 m 0
 20.6669921875 40 21.134765625 40 22.0693359375 38.44140625 c 0
 23.0048828125 36.8837890625 24 33.5556640625 24 28 c 0
 24 25.3330078125 22.2470703125 19.51953125 19.5703125 15.0576171875 c 0
 18.2314453125 12.826171875 16.6806640625 10.8818359375 15.2548828125 9.6474609375 c 0
 13.830078125 8.412109375 12.6669921875 8 12 8 c 0
 11.3330078125 8 10.865234375 7.9990234375 9.9296875 9.5576171875 c 0
 8.9951171875 11.1162109375 8 14.4443359375 8 20 c 0
 8 22.666015625 9.7529296875 28.4794921875 12.4296875 32.94140625 c 0
 13.7685546875 35.1728515625 15.3193359375 37.1171875 16.744140625 38.3515625 c 0
 18.1689453125 39.5869140625 19.3330078125 40 20 40 c 0
31.994140625 72 m 2
 31.994140625 68.66796875 30.7509765625 65.4169921875 30.1669921875 64.8330078125 c 0
 29.875 64.541015625 30.197265625 64.6533203125 29.908203125 64.7021484375 c 0
 29.619140625 64.75 28.478515625 65.1875 26.8330078125 66.8330078125 c 0
 24.478515625 69.1865234375 22.119140625 70.75 19.408203125 71.201171875 c 0
 16.6982421875 71.6533203125 13.875 70.541015625 12.1669921875 68.8330078125 c 0
 8.7509765625 65.416015625 7.994140625 60.66796875 7.994140625 56 c 1
 16.0068359375 56 l 1
 16.0068359375 59.33203125 17.2490234375 62.583984375 17.8330078125 63.1669921875 c 0
 18.1240234375 63.458984375 17.802734375 63.3466796875 18.0908203125 63.298828125 c 0
 18.380859375 63.25 19.521484375 62.8134765625 21.1669921875 61.1669921875 c 0
 23.521484375 58.8134765625 25.8818359375 57.25 28.591796875 56.7978515625 c 0
 31.302734375 56.3466796875 34.125 57.4599609375 35.8330078125 59.16796875 c 0
 39.2490234375 62.583984375 40.0068359375 67.3330078125 40.0068359375 72 c 1
 31.994140625 72 l 2
EndSplineSet
EndChar

StartChar: odieresis
Encoding: 144 246 112
Width: 40
Flags: HW
LayerCount: 2
Fore
SplineSet
20 48 m 0
 16.666015625 48 13.830078125 46.412109375 11.5048828125 44.3974609375 c 0
 9.1796875 42.3828125 7.2314453125 39.8271484375 5.5693359375 37.0576171875 c 0
 2.2470703125 31.51953125 0 25.3330078125 0 20 c 0
 0 13.5556640625 1.0048828125 8.8837890625 3.0703125 5.44140625 c 0
 5.134765625 2 8.6669921875 -0 12 -0 c 0
 15.3330078125 -0 18.1689453125 1.5869140625 20.494140625 3.6025390625 c 0
 22.8193359375 5.6171875 24.7685546875 8.1728515625 26.4296875 10.9423828125 c 0
 29.7529296875 16.48046875 32 22.6669921875 32 28 c 0
 32 34.4443359375 30.994140625 39.1162109375 28.9296875 42.5576171875 c 0
 26.8642578125 45.9990234375 23.3330078125 48 20 48 c 0
20 40 m 0
 20.6669921875 40 21.134765625 40 22.0693359375 38.44140625 c 0
 23.0048828125 36.8837890625 24 33.5556640625 24 28 c 0
 24 25.3330078125 22.2470703125 19.51953125 19.5703125 15.0576171875 c 0
 18.2314453125 12.826171875 16.6806640625 10.8818359375 15.255859375 9.6474609375 c 0
 13.830078125 8.412109375 12.6669921875 8 12 8 c 0
 11.3330078125 8 10.865234375 7.9990234375 9.9296875 9.5576171875 c 0
 8.9951171875 11.1162109375 8 14.4443359375 8 20 c 0
 8 22.666015625 9.7529296875 28.4794921875 12.4296875 32.94140625 c 0
 13.7685546875 35.1728515625 15.3193359375 37.1171875 16.744140625 38.3515625 c 0
 18.1689453125 39.5869140625 19.3330078125 40 20 40 c 0
8.0029296875 56 m 1
 16.0029296875 56 l 1
 16.0029296875 64 l 1
 8.0029296875 64 l 1
 8.0029296875 56 l 1
24.0029296875 56 m 1
 32.0029296875 56 l 1
 32.0029296875 64 l 1
 24.0029296875 64 l 1
 24.0029296875 56 l 1
EndSplineSet
EndChar

StartChar: ocircumflex
Encoding: 142 244 113
Width: 40
Flags: HW
LayerCount: 2
Fore
SplineSet
20 48 m 0
 16.666015625 48 13.830078125 46.412109375 11.5048828125 44.3974609375 c 0
 9.1796875 42.3828125 7.2314453125 39.8271484375 5.5693359375 37.0576171875 c 0
 2.2470703125 31.51953125 0 25.3330078125 0 20 c 0
 0 13.5556640625 1.0048828125 8.8837890625 3.0703125 5.44140625 c 0
 5.134765625 2 8.6669921875 -0 12 -0 c 0
 15.3330078125 -0 18.1689453125 1.5869140625 20.494140625 3.6025390625 c 0
 22.8193359375 5.6171875 24.7685546875 8.1728515625 26.4296875 10.9423828125 c 0
 29.7529296875 16.48046875 32 22.6669921875 32 28 c 0
 32 34.4443359375 30.994140625 39.1162109375 28.9296875 42.5576171875 c 0
 26.8642578125 45.9990234375 23.3330078125 48 20 48 c 0
20 40 m 0
 20.6669921875 40 21.134765625 40 22.0693359375 38.44140625 c 0
 23.0048828125 36.8837890625 24 33.5556640625 24 28 c 0
 24 25.3330078125 22.2470703125 19.51953125 19.5703125 15.0576171875 c 0
 18.2314453125 12.826171875 16.6806640625 10.8818359375 15.255859375 9.6474609375 c 0
 13.830078125 8.412109375 12.6669921875 8 12 8 c 0
 11.3330078125 8 10.865234375 7.9990234375 9.9296875 9.5576171875 c 0
 8.9951171875 11.1162109375 8 14.4443359375 8 20 c 0
 8 22.666015625 9.7529296875 28.4794921875 12.4296875 32.94140625 c 0
 13.7685546875 35.1728515625 15.3193359375 37.1171875 16.744140625 38.3515625 c 0
 18.1689453125 39.5869140625 19.3330078125 40 20 40 c 0
16.802734375 74.400390625 m 1
 4.802734375 58.400390625 l 1
 11.203125 53.6005859375 l 1
 20.0029296875 65.333984375 l 1
 28.802734375 53.6005859375 l 1
 35.203125 58.400390625 l 1
 23.203125 74.400390625 l 1
 16.802734375 74.400390625 l 1
EndSplineSet
EndChar

StartChar: oacute
Encoding: 141 243 114
Width: 40
Flags: HW
LayerCount: 2
Fore
SplineSet
20 48 m 0
 16.666015625 48 13.830078125 46.412109375 11.5048828125 44.3974609375 c 0
 9.1796875 42.3828125 7.2314453125 39.8271484375 5.5693359375 37.0576171875 c 0
 2.2470703125 31.51953125 -0 25.3330078125 -0 20 c 0
 -0 13.5556640625 1.0048828125 8.8837890625 3.0703125 5.44140625 c 0
 5.134765625 2 8.6669921875 -0 12 -0 c 0
 15.3330078125 -0 18.1689453125 1.5869140625 20.494140625 3.6025390625 c 0
 22.8193359375 5.6171875 24.7685546875 8.1728515625 26.4296875 10.9423828125 c 0
 29.7529296875 16.48046875 32 22.6669921875 32 28 c 0
 32 34.4443359375 30.994140625 39.1162109375 28.9296875 42.5576171875 c 0
 26.8642578125 45.9990234375 23.3330078125 48 20 48 c 0
20 40 m 0
 20.6669921875 40 21.134765625 40 22.0693359375 38.44140625 c 0
 23.0048828125 36.8837890625 24 33.5556640625 24 28 c 0
 24 25.3330078125 22.2470703125 19.51953125 19.5703125 15.0576171875 c 0
 18.2314453125 12.826171875 16.6806640625 10.8818359375 15.255859375 9.6474609375 c 0
 13.830078125 8.412109375 12.6669921875 8 12 8 c 0
 11.3330078125 8 10.865234375 7.9990234375 9.9296875 9.5576171875 c 0
 8.9951171875 11.1162109375 8 14.4443359375 8 20 c 0
 8 22.666015625 9.7529296875 28.4794921875 12.4296875 32.94140625 c 0
 13.7685546875 35.1728515625 15.3193359375 37.1171875 16.744140625 38.3515625 c 0
 18.1689453125 39.5869140625 19.3330078125 40 20 40 c 0
29.1748046875 74.828125 m 1
 29.1748046875 74.828125 21.1748046875 66.8291015625 13.1748046875 58.8291015625 c 2
 18.8310546875 53.1708984375 l 1
 26.83203125 61.171875 34.83203125 69.171875 34.83203125 69.171875 c 1
 29.1748046875 74.828125 l 1
EndSplineSet
EndChar

StartChar: ograve
Encoding: 140 242 115
Width: 40
Flags: HW
LayerCount: 2
Fore
SplineSet
20 48 m 0
 16.666015625 48 13.830078125 46.412109375 11.5048828125 44.3974609375 c 0
 9.1796875 42.3828125 7.2314453125 39.8271484375 5.5693359375 37.0576171875 c 0
 2.2470703125 31.51953125 0 25.3330078125 0 20 c 0
 0 13.5556640625 1.0048828125 8.8837890625 3.0703125 5.44140625 c 0
 5.134765625 2 8.6669921875 -0 12 -0 c 0
 15.3330078125 -0 18.1689453125 1.5869140625 20.494140625 3.6025390625 c 0
 22.8193359375 5.6171875 24.7685546875 8.1728515625 26.4296875 10.9423828125 c 0
 29.7529296875 16.48046875 32 22.6669921875 32 28 c 0
 32 34.4443359375 30.994140625 39.1162109375 28.9296875 42.5576171875 c 0
 26.8642578125 45.9990234375 23.3330078125 48 20 48 c 0
20 40 m 0
 20.6669921875 40 21.134765625 40 22.0693359375 38.44140625 c 0
 23.0048828125 36.8837890625 24 33.5556640625 24 28 c 0
 24 25.3330078125 22.2470703125 19.51953125 19.5703125 15.0576171875 c 0
 18.2314453125 12.826171875 16.6806640625 10.8818359375 15.255859375 9.6474609375 c 0
 13.830078125 8.412109375 12.6669921875 8 12 8 c 0
 11.3330078125 8 10.865234375 7.9990234375 9.9296875 9.5576171875 c 0
 8.9951171875 11.1162109375 8 14.4443359375 8 20 c 0
 8 22.666015625 9.7529296875 28.4794921875 12.4296875 32.94140625 c 0
 13.7685546875 35.1728515625 15.3193359375 37.1171875 16.744140625 38.3515625 c 0
 18.1689453125 39.5869140625 19.3330078125 40 20 40 c 0
18.83203125 74.828125 m 1
 13.1748046875 69.171875 l 1
 29.1748046875 53.1708984375 l 1
 34.8310546875 58.8291015625 l 1
 18.83203125 74.828125 l 1
EndSplineSet
EndChar

StartChar: ydieresis
Encoding: 150 255 116
Width: 40
Flags: HW
LayerCount: 2
Fore
SplineSet
0 48 m 1
 0 40 l 1
 3.3330078125 40 5.1142578125 39.228515625 6.171875 38.171875 c 0
 7.2294921875 37.1142578125 8 35.3330078125 8 32 c 0
 8 29.3330078125 7.171875 28.828125 5.171875 26.828125 c 0
 3.171875 24.828125 0 21.3330078125 0 16 c 0
 0 10.666015625 3.08984375 6.056640625 7.515625 3.52734375 c 0
 10.8916015625 1.59765625 14.9599609375 0.5595703125 19.560546875 0.17578125 c 1
 18.232421875 -2.345703125 16.5693359375 -4.025390625 14.24609375 -5.31640625 c 0
 11.17578125 -7.0224609375 6.619140625 -8 0 -8 c 1
 0 -16 l 1
 7.380859375 -16 13.326171875 -14.978515625 18.130859375 -12.30859375 c 0
 22.935546875 -9.6396484375 26.267578125 -5.2744140625 28.25390625 0.1171875 c 0
 32.2265625 10.8984375 32.001953125 26 32.001953125 48 c 1
 24 48 l 1
 24 30.005859375 23.8505859375 16.76171875 22.138671875 8.0390625 c 0
 17.4638671875 8.2353515625 13.765625 9.169921875 11.486328125 10.47265625 c 0
 8.912109375 11.943359375 8.001953125 13.3330078125 8.001953125 16 c 0
 8.001953125 18.666015625 8.830078125 19.171875 10.830078125 21.171875 c 0
 12.830078125 23.171875 16.001953125 26.666015625 16.001953125 32 c 0
 16.001953125 36.666015625 14.7724609375 40.884765625 11.830078125 43.828125 c 0
 8.8876953125 46.7705078125 4.6669921875 48 0 48 c 1
8.00390625 56 m 1
 16.00390625 56 l 1
 16.00390625 64 l 1
 8.00390625 64 l 1
 8.00390625 56 l 1
24.00390625 56 m 1
 32.00390625 56 l 1
 32.00390625 64 l 1
 24.00390625 64 l 1
 24.00390625 56 l 1
EndSplineSet
EndChar

StartChar: udieresis
Encoding: 148 252 117
Width: 40
Flags: HW
LayerCount: 2
Fore
SplineSet
7.998046875 48 m 2
 7.998046875 45.3330078125 6.388671875 41.724609375 4.34375 37.125 c 0
 2.298828125 32.5244140625 -0 26.888671875 -0 20 c 0
 -0 13.5556640625 1.00390625 8.8828125 3.068359375 5.44140625 c 0
 5.1328125 1.9990234375 8.6669921875 -0 12 -0 c 0
 15.6669921875 -0.0009765625 18.451171875 2.0439453125 20.703125 4.296875 c 0
 21.904296875 5.498046875 22.998046875 6.83203125 24 8.22265625 c 1
 24 -0 l 1
 31.998046875 -0 l 1
 31.998046875 48 l 1
 24 48 l 1
 24 24.802734375 l 2
 23.3671875 23.322265625 21.7294921875 19.66015625 19.568359375 16.05859375 c 0
 18.1689453125 13.7265625 16.54296875 11.4501953125 15.044921875 9.953125 c 0
 13.546875 8.455078125 12.3330078125 8 12 8 c 0
 11.3330078125 8 10.8642578125 8.0009765625 9.9296875 9.55859375 c 0
 8.9951171875 11.1162109375 7.998046875 14.4443359375 7.998046875 20 c 0
 7.998046875 25.1103515625 9.69921875 29.474609375 11.654296875 33.875 c 0
 13.609375 38.2744140625 16 42.666015625 16 48 c 1
 7.998046875 48 l 2
8.0029296875 56 m 1
 16.0029296875 56 l 1
 16.0029296875 64 l 1
 8.0029296875 64 l 1
 8.0029296875 56 l 1
24.0029296875 56 m 1
 32.0029296875 56 l 1
 32.0029296875 64 l 1
 24.0029296875 64 l 1
 24.0029296875 56 l 1
EndSplineSet
EndChar

StartChar: ucircumflex
Encoding: 147 251 118
Width: 40
Flags: HW
LayerCount: 2
Fore
SplineSet
7.998046875 48 m 2
 7.998046875 45.3330078125 6.388671875 41.724609375 4.34375 37.125 c 0
 2.298828125 32.5244140625 -0 26.888671875 -0 20 c 0
 -0 13.5556640625 1.00390625 8.8828125 3.068359375 5.44140625 c 0
 5.1328125 1.9990234375 8.6669921875 -0 12 -0 c 0
 15.6669921875 -0.0009765625 18.451171875 2.0439453125 20.703125 4.296875 c 0
 21.904296875 5.498046875 22.998046875 6.83203125 24 8.22265625 c 1
 24 -0 l 1
 31.998046875 -0 l 1
 31.998046875 48 l 1
 24 48 l 1
 24 24.802734375 l 2
 23.3671875 23.322265625 21.7294921875 19.66015625 19.568359375 16.05859375 c 0
 18.1689453125 13.7265625 16.54296875 11.4501953125 15.044921875 9.953125 c 0
 13.546875 8.455078125 12.3330078125 8 12 8 c 0
 11.3330078125 8 10.8642578125 8.0009765625 9.9296875 9.55859375 c 0
 8.9951171875 11.1162109375 7.998046875 14.4443359375 7.998046875 20 c 0
 7.998046875 25.1103515625 9.69921875 29.474609375 11.654296875 33.875 c 0
 13.609375 38.2744140625 16 42.666015625 16 48 c 1
 7.998046875 48 l 2
16.802734375 74.400390625 m 1
 4.802734375 58.400390625 l 1
 11.203125 53.6005859375 l 1
 20.0029296875 65.333984375 l 1
 28.802734375 53.6005859375 l 1
 35.203125 58.400390625 l 1
 23.203125 74.400390625 l 1
 16.802734375 74.400390625 l 1
EndSplineSet
EndChar

StartChar: uacute
Encoding: 146 250 119
Width: 40
Flags: HW
LayerCount: 2
Fore
SplineSet
7.998046875 48 m 2
 7.998046875 45.3330078125 6.388671875 41.7255859375 4.34375 37.125 c 0
 2.298828125 32.5244140625 0 26.888671875 0 20 c 0
 0 13.5556640625 1.00390625 8.8828125 3.068359375 5.44140625 c 0
 5.1328125 2 8.6669921875 -0 12 -0 c 0
 15.6669921875 -0 18.451171875 2.044921875 20.703125 4.296875 c 0
 21.904296875 5.498046875 22.998046875 6.83203125 24 8.22265625 c 1
 24 -0 l 1
 31.998046875 -0 l 1
 31.998046875 48 l 1
 24 48 l 1
 24 24.802734375 l 2
 23.3671875 23.322265625 21.7294921875 19.66015625 19.568359375 16.05859375 c 0
 18.1689453125 13.7265625 16.54296875 11.4501953125 15.044921875 9.953125 c 0
 13.546875 8.455078125 12.3330078125 8 12 8 c 0
 11.3330078125 8 10.8642578125 8.0009765625 9.9296875 9.55859375 c 0
 8.9951171875 11.1162109375 7.998046875 14.4443359375 7.998046875 20 c 0
 7.998046875 25.111328125 9.69921875 29.4755859375 11.654296875 33.875 c 0
 13.609375 38.2744140625 16 42.666015625 16 48 c 1
 7.998046875 48 l 2
29.173828125 74.828125 m 1
 29.173828125 74.828125 21.173828125 66.8291015625 13.173828125 58.8291015625 c 2
 18.830078125 53.1708984375 l 1
 26.830078125 61.171875 34.830078125 69.171875 34.830078125 69.171875 c 1
 29.173828125 74.828125 l 1
EndSplineSet
EndChar

StartChar: ugrave
Encoding: 145 249 120
Width: 40
Flags: HW
LayerCount: 2
Fore
SplineSet
7.998046875 48 m 2
 7.998046875 45.3330078125 6.388671875 41.7255859375 4.34375 37.125 c 0
 2.298828125 32.5244140625 -0 26.888671875 -0 20 c 0
 -0 13.5556640625 1.00390625 8.8828125 3.068359375 5.44140625 c 0
 5.1328125 2 8.6669921875 -0 12 -0 c 0
 15.6669921875 -0 18.451171875 2.044921875 20.703125 4.296875 c 0
 21.904296875 5.498046875 22.998046875 6.83203125 24 8.22265625 c 1
 24 -0 l 1
 31.998046875 -0 l 1
 31.998046875 48 l 1
 24 48 l 1
 24 24.802734375 l 2
 23.3671875 23.322265625 21.7294921875 19.66015625 19.568359375 16.05859375 c 0
 18.1689453125 13.7265625 16.54296875 11.4501953125 15.044921875 9.953125 c 0
 13.546875 8.455078125 12.3330078125 8 12 8 c 0
 11.3330078125 8 10.8642578125 8.0009765625 9.9296875 9.55859375 c 0
 8.9951171875 11.1162109375 7.998046875 14.4443359375 7.998046875 20 c 0
 7.998046875 25.111328125 9.69921875 29.4755859375 11.654296875 33.875 c 0
 13.609375 38.2744140625 16 42.666015625 16 48 c 1
 7.998046875 48 l 2
18.8310546875 74.828125 m 1
 13.173828125 69.171875 l 1
 29.173828125 53.1708984375 l 1
 34.830078125 58.8291015625 l 1
 18.8310546875 74.828125 l 1
EndSplineSet
EndChar

StartChar: yacute
Encoding: 149 253 121
Width: 40
Flags: HW
LayerCount: 2
Fore
SplineSet
-0 48 m 1
 -0 40 l 1
 3.3330078125 40 5.1142578125 39.228515625 6.171875 38.171875 c 0
 7.2294921875 37.1142578125 8 35.3330078125 8 32 c 0
 8 29.3330078125 7.171875 28.828125 5.171875 26.828125 c 0
 3.171875 24.828125 -0 21.3330078125 -0 16 c 0
 -0 10.666015625 3.08984375 6.056640625 7.515625 3.52734375 c 0
 10.8916015625 1.59765625 14.9599609375 0.5595703125 19.560546875 0.17578125 c 1
 18.232421875 -2.345703125 16.5693359375 -4.025390625 14.24609375 -5.31640625 c 0
 11.17578125 -7.0224609375 6.619140625 -8 -0 -8 c 1
 -0 -16 l 1
 7.380859375 -16 13.326171875 -14.978515625 18.130859375 -12.30859375 c 0
 22.935546875 -9.6396484375 26.267578125 -5.2734375 28.25390625 0.1171875 c 0
 32.2265625 10.8984375 32.001953125 26 32.001953125 48 c 1
 24 48 l 1
 24 30.005859375 23.8505859375 16.76171875 22.138671875 8.0390625 c 0
 17.4638671875 8.2353515625 13.765625 9.169921875 11.486328125 10.47265625 c 0
 8.912109375 11.943359375 8.001953125 13.3330078125 8.001953125 16 c 0
 8.001953125 18.666015625 8.830078125 19.171875 10.830078125 21.171875 c 0
 12.830078125 23.171875 16.001953125 26.666015625 16.001953125 32 c 0
 16.001953125 36.666015625 14.7724609375 40.884765625 11.830078125 43.828125 c 0
 8.8876953125 46.7705078125 4.6669921875 48 -0 48 c 1
29.17578125 74.828125 m 1
 29.17578125 74.828125 21.17578125 66.8291015625 13.17578125 58.8291015625 c 2
 18.83203125 53.1708984375 l 1
 26.83203125 61.171875 34.83203125 69.171875 34.83203125 69.171875 c 1
 29.17578125 74.828125 l 1
EndSplineSet
EndChar

StartChar: germandbls
Encoding: 123 223 122
Width: 40
Flags: HW
LayerCount: 2
Fore
SplineSet
24 80 m 1
 21.5 80 19.5732421875 78.716796875 18.056640625 77.2431640625 c 0
 16.541015625 75.7705078125 15.2607421875 73.927734375 14.013671875 71.7109375 c 0
 11.51953125 67.2763671875 9.212890625 61.3037109375 7.154296875 54.0986328125 c 0
 3.037109375 39.6875 0 20.400390625 0 0 c 1
 8.0009765625 0 l 2
 8.0009765625 14.41015625 9.609375 28.3203125 12.0009765625 40.0869140625 c 1
 12.0009765625 40 l 1
 14.8310546875 40 20.5947265625 38.4384765625 25.005859375 35.900390625 c 0
 29.416015625 33.3623046875 32.0009765625 30.1142578125 32.0009765625 28 c 0
 32.0009765625 22.888671875 30.619140625 20.5 28.1748046875 18.7548828125 c 0
 25.73046875 17.0087890625 21.5556640625 16 16 16 c 1
 16 8 l 1
 22.4443359375 8 28.26953125 8.990234375 32.8251953125 12.244140625 c 0
 37.380859375 15.498046875 40 21.1103515625 40 28 c 0
 40 34.865234375 34.5849609375 39.6171875 28.9951171875 42.833984375 c 0
 28.3779296875 43.189453125 27.7314453125 43.4677734375 27.1005859375 43.791015625 c 1
 35.486328125 48.5185546875 40 56.8486328125 40 64 c 0
 40 68.666015625 38.771484375 72.8857421875 35.8291015625 75.828125 c 0
 32.8857421875 78.771484375 28.6669921875 80 24 80 c 1
 24 80 l 1
24.240234375 71.9853515625 m 0
 27.40234375 71.9453125 29.1435546875 71.2001953125 30.171875 70.171875 c 0
 31.2294921875 69.1142578125 32.0009765625 67.3330078125 32.0009765625 64 c 0
 32.0009765625 58.908203125 26.513671875 48.9794921875 13.837890625 48.0869140625 c 1
 14.1689453125 49.3818359375 14.4990234375 50.6845703125 14.8466796875 51.900390625 c 0
 16.7880859375 58.6953125 18.9814453125 64.2236328125 20.986328125 67.7890625 c 0
 21.9892578125 69.5712890625 22.9599609375 70.853515625 23.630859375 71.505859375 c 0
 23.958984375 71.82421875 24.1640625 71.9404296875 24.240234375 71.9853515625 c 0
EndSplineSet
EndChar

StartChar: periodcentered
Encoding: 95 183 123
Width: 32
Flags: HW
LayerCount: 2
Fore
SplineSet
0 40 m 0
 0 31.1630859375 7.1640625 24 16 24 c 0
 24.8369140625 24 32 31.1630859375 32 40 c 0
 32 48.8369140625 24.8369140625 56 16 56 c 0
 7.1640625 56 0 48.8369140625 0 40 c 0
EndSplineSet
EndChar

StartChar: Agrave
Encoding: 96 192 124
Width: 48
Flags: HW
LayerCount: 2
Fore
SplineSet
36.0009765625 80 m 2
 33.16796875 80 30.7802734375 78.6982421875 28.6689453125 76.99609375 c 0
 26.5576171875 75.2939453125 24.6142578125 73.0634765625 22.6943359375 70.40234375 c 0
 18.8544921875 65.080078125 15.1455078125 57.9970703125 11.8115234375 50.046875 c 0
 5.1435546875 34.146484375 0.0009765625 14.9521484375 0.0009765625 0 c 1
 8.0009765625 0 l 1
 8.0009765625 6.865234375 9.345703125 15.3251953125 11.5419921875 24 c 2
 32.0009765625 24 l 1
 32.0009765625 0 l 1
 39.9990234375 0 l 1
 39.9990234375 80 l 1
 36.0009765625 80 l 2
32.0009765625 69.126953125 m 1
 32.0009765625 32 l 1
 13.7880859375 32 l 1
 15.3759765625 37.154296875 17.2099609375 42.234375 19.1884765625 46.953125 c 0
 22.3544921875 54.5029296875 25.8974609375 61.169921875 29.1826171875 65.72265625 c 0
 30.169921875 67.0908203125 31.1083984375 68.18359375 32.0009765625 69.126953125 c 1
18.8310546875 104 m 1
 13.1748046875 98.3427734375 l 1
 29.173828125 82.3427734375 l 1
 34.8310546875 88 l 1
 18.8310546875 104 l 1
EndSplineSet
EndChar

StartChar: Aacute
Encoding: 97 193 125
Width: 48
Flags: HW
LayerCount: 2
Fore
SplineSet
36.0009765625 80 m 2
 33.16796875 80 30.7802734375 78.6982421875 28.6689453125 76.99609375 c 0
 26.5576171875 75.2939453125 24.6142578125 73.0634765625 22.6943359375 70.40234375 c 0
 18.8544921875 65.080078125 15.1455078125 57.9970703125 11.8115234375 50.046875 c 0
 5.1435546875 34.146484375 0.0009765625 14.9521484375 0.0009765625 0 c 1
 8.0009765625 0 l 1
 8.0009765625 6.865234375 9.345703125 15.3251953125 11.5419921875 24 c 2
 32.0009765625 24 l 1
 32.0009765625 0 l 1
 39.9990234375 0 l 1
 39.9990234375 80 l 1
 36.0009765625 80 l 2
32.0009765625 69.126953125 m 1
 32.0009765625 32 l 1
 13.7880859375 32 l 1
 15.3759765625 37.154296875 17.2099609375 42.234375 19.1884765625 46.953125 c 0
 22.3544921875 54.5029296875 25.8974609375 61.169921875 29.1826171875 65.72265625 c 0
 30.169921875 67.0908203125 31.1083984375 68.18359375 32.0009765625 69.126953125 c 1
29.173828125 104 m 1
 13.1748046875 88 l 1
 18.8310546875 82.3427734375 l 1
 34.8310546875 98.3427734375 l 1
 29.173828125 104 l 1
EndSplineSet
EndChar

StartChar: Acircumflex
Encoding: 98 194 126
Width: 48
Flags: HW
LayerCount: 2
Fore
SplineSet
36.0009765625 80 m 2
 33.16796875 80 30.7802734375 78.6982421875 28.6689453125 76.99609375 c 0
 26.5576171875 75.2939453125 24.6142578125 73.0634765625 22.6943359375 70.40234375 c 0
 18.8544921875 65.080078125 15.1455078125 57.9970703125 11.8115234375 50.046875 c 0
 5.1435546875 34.146484375 0.0009765625 14.9521484375 0.0009765625 0 c 1
 8.0009765625 0 l 1
 8.0009765625 6.865234375 9.345703125 15.3251953125 11.5419921875 24 c 2
 32.0009765625 24 l 1
 32.0009765625 0 l 1
 39.9990234375 0 l 1
 39.9990234375 80 l 1
 36.0009765625 80 l 2
32.0009765625 69.126953125 m 1
 32.0009765625 32 l 1
 13.7880859375 32 l 1
 15.3759765625 37.154296875 17.2099609375 42.234375 19.1884765625 46.953125 c 0
 22.3544921875 54.5029296875 25.8974609375 61.169921875 29.1826171875 65.72265625 c 0
 30.169921875 67.0908203125 31.1083984375 68.18359375 32.0009765625 69.126953125 c 1
16.802734375 104 m 1
 4.802734375 88 l 1
 11.203125 83.2001953125 l 1
 20.0029296875 94.93359375 l 1
 28.802734375 83.2001953125 l 1
 35.203125 88 l 1
 23.203125 104 l 1
 16.802734375 104 l 1
EndSplineSet
EndChar

StartChar: Atilde
Encoding: 99 195 127
Width: 48
Flags: HW
LayerCount: 2
Fore
SplineSet
36.0009765625 80 m 2
 33.16796875 80 30.7802734375 78.6982421875 28.6689453125 76.99609375 c 0
 26.5576171875 75.29296875 24.6142578125 73.0634765625 22.6943359375 70.40234375 c 0
 18.8544921875 65.080078125 15.1455078125 57.9970703125 11.8115234375 50.046875 c 0
 5.1435546875 34.146484375 0.0009765625 14.9521484375 0.0009765625 -0 c 1
 8.0009765625 -0 l 1
 8.0009765625 6.865234375 9.345703125 15.32421875 11.5419921875 24 c 2
 32.0009765625 24 l 1
 32.0009765625 -0 l 1
 39.9990234375 -0 l 1
 39.9990234375 80 l 1
 36.0009765625 80 l 2
32.0009765625 69.126953125 m 1
 32.0009765625 32 l 1
 13.7880859375 32 l 1
 15.3759765625 37.1533203125 17.2099609375 42.234375 19.1884765625 46.953125 c 0
 22.3544921875 54.501953125 25.8974609375 61.1689453125 29.1826171875 65.72265625 c 0
 30.169921875 67.0908203125 31.1083984375 68.18359375 32.0009765625 69.126953125 c 1
31.994140625 104 m 2
 31.994140625 100.66796875 30.7509765625 97.416015625 30.1669921875 96.8330078125 c 0
 29.875 96.541015625 30.197265625 96.6533203125 29.908203125 96.701171875 c 0
 29.619140625 96.75 28.478515625 97.1865234375 26.83203125 98.83203125 c 0
 24.478515625 101.186523438 22.119140625 102.749023438 19.408203125 103.201171875 c 0
 16.6982421875 103.653320312 13.875 102.540039062 12.1669921875 100.83203125 c 0
 8.75 97.416015625 7.994140625 92.6669921875 7.994140625 88 c 1
 16.005859375 88 l 1
 16.005859375 91.33203125 17.2490234375 94.5830078125 17.83203125 95.1669921875 c 0
 18.1240234375 95.4580078125 17.8017578125 95.3466796875 18.0908203125 95.2978515625 c 0
 18.380859375 95.25 19.521484375 94.8125 21.1669921875 93.1669921875 c 0
 23.521484375 90.8125 25.880859375 89.2490234375 28.591796875 88.7978515625 c 0
 31.3017578125 88.345703125 34.1240234375 89.458984375 35.8330078125 91.1669921875 c 0
 39.2490234375 94.583984375 40.005859375 99.33203125 40.005859375 104 c 1
 31.994140625 104 l 2
EndSplineSet
EndChar

StartChar: Adieresis
Encoding: 100 196 128
Width: 48
Flags: HW
LayerCount: 2
Fore
SplineSet
36.0009765625 80 m 2
 33.16796875 80 30.7802734375 78.6982421875 28.6689453125 76.99609375 c 0
 26.5576171875 75.2939453125 24.6142578125 73.0634765625 22.6943359375 70.40234375 c 0
 18.8544921875 65.080078125 15.1455078125 57.9970703125 11.8115234375 50.046875 c 0
 5.1435546875 34.146484375 0.0009765625 14.9521484375 0.0009765625 -0 c 1
 8.0009765625 -0 l 1
 8.0009765625 6.865234375 9.345703125 15.3251953125 11.5419921875 24 c 2
 32.0009765625 24 l 1
 32.0009765625 -0 l 1
 39.9990234375 -0 l 1
 39.9990234375 80 l 1
 36.0009765625 80 l 2
32.0009765625 69.126953125 m 1
 32.0009765625 32 l 1
 13.7880859375 32 l 1
 15.3759765625 37.1533203125 17.2099609375 42.234375 19.1884765625 46.953125 c 0
 22.3544921875 54.5029296875 25.8974609375 61.169921875 29.1826171875 65.72265625 c 0
 30.169921875 67.0908203125 31.1083984375 68.18359375 32.0009765625 69.126953125 c 1
8.0029296875 88 m 1
 16.0029296875 88 l 1
 16.0029296875 96 l 1
 8.0029296875 96 l 1
 8.0029296875 88 l 1
24.0029296875 88 m 1
 32.0029296875 88 l 1
 32.0029296875 96 l 1
 24.0029296875 96 l 1
 24.0029296875 88 l 1
EndSplineSet
EndChar

StartChar: Aring
Encoding: 101 197 129
Width: 48
Flags: HW
LayerCount: 2
Fore
SplineSet
36.0009765625 80 m 2
 33.16796875 80 30.7802734375 78.6982421875 28.6689453125 76.99609375 c 0
 26.5576171875 75.29296875 24.6142578125 73.0634765625 22.6943359375 70.40234375 c 0
 18.8544921875 65.080078125 15.1455078125 57.9970703125 11.8115234375 50.046875 c 0
 5.1435546875 34.146484375 0.0009765625 14.9521484375 0.0009765625 -0 c 1
 8.0009765625 -0 l 1
 8.0009765625 6.865234375 9.345703125 15.3251953125 11.5419921875 24 c 2
 32.0009765625 24 l 1
 32.0009765625 -0 l 1
 39.9990234375 -0 l 1
 39.9990234375 80 l 1
 36.0009765625 80 l 2
32.0009765625 69.126953125 m 1
 32.0009765625 32 l 1
 13.7880859375 32 l 1
 15.3759765625 37.1533203125 17.2099609375 42.234375 19.1884765625 46.953125 c 0
 22.3544921875 54.5029296875 25.8974609375 61.169921875 29.1826171875 65.72265625 c 0
 30.169921875 67.0908203125 31.1083984375 68.18359375 32.0009765625 69.126953125 c 1
20 104 m 0
 13.376953125 104 8 98.623046875 8 92 c 0
 8 85.376953125 13.376953125 80 20 80 c 0
 26.623046875 80 32 85.376953125 32 92 c 0
 32 98.623046875 26.623046875 104 20 104 c 0
20 96 m 0
 22.20703125 96 24 94.20703125 24 92 c 0
 24 89.7919921875 22.20703125 88 20 88 c 0
 17.7919921875 88 16 89.7919921875 16 92 c 0
 16 94.20703125 17.7919921875 96 20 96 c 0
EndSplineSet
EndChar

StartChar: Ccedilla
Encoding: 102 199 130
Width: 48
Flags: HW
LayerCount: 2
Fore
SplineSet
24.0009765625 80 m 1
 16.22265625 79.9990234375 9.7626953125 74.5205078125 5.8759765625 66.19140625 c 0
 1.9892578125 57.8623046875 0.0009765625 46.380859375 0.0009765625 32 c 0
 0.0009765625 22.521484375 0.947265625 15.119140625 3.3193359375 9.54296875 c 0
 5.6904296875 3.9658203125 10.396484375 -0 16.0009765625 -0 c 0
 16.3349609375 -0 16.6640625 0.0107421875 16.9912109375 0.0302734375 c 0
 17.8603515625 -3.57421875 17.4482421875 -5.2861328125 16.8759765625 -6.0009765625 c 0
 16.17578125 -6.8759765625 13.5546875 -8.0009765625 7.9990234375 -8.0009765625 c 1
 7.9990234375 -16.0009765625 l 1
 14.443359375 -16.0009765625 19.8232421875 -15.125 23.1240234375 -10.9990234375 c 0
 25.958984375 -7.455078125 26.0185546875 -2.7998046875 24.6044921875 2.5673828125 c 0
 28.5205078125 5.0341796875 31.615234375 8.9697265625 33.9560546875 12.9833984375 c 0
 37.8037109375 19.580078125 40.0009765625 26.6650390625 40.0009765625 31.9990234375 c 1
 31.9990234375 31.9990234375 l 1
 31.9990234375 29.33203125 30.197265625 22.41796875 27.0458984375 17.0146484375 c 0
 23.8935546875 11.611328125 19.7783203125 7.9990234375 16.0009765625 7.9990234375 c 0
 13.60546875 7.9990234375 12.30859375 8.8447265625 10.6806640625 12.6748046875 c 0
 9.0517578125 16.50390625 7.9990234375 23.1015625 7.9990234375 31.9990234375 c 0
 7.9990234375 45.6171875 10.0126953125 56.13671875 13.1259765625 62.8076171875 c 0
 16.2392578125 69.478515625 19.7783203125 71.9990234375 24.0009765625 71.9990234375 c 0
 27.333984375 71.9990234375 29.115234375 71.2275390625 30.1728515625 70.1708984375 c 0
 31.2294921875 69.11328125 31.9990234375 67.33203125 31.9990234375 63.9990234375 c 1
 40.0009765625 63.9990234375 l 1
 40.0009765625 68.6650390625 38.771484375 72.8837890625 35.8291015625 75.8271484375 c 0
 32.8857421875 78.76953125 28.66796875 79.9990234375 24.0009765625 79.9990234375 c 1
 24.0009765625 80 l 1
EndSplineSet
EndChar

StartChar: Egrave
Encoding: 103 200 131
Width: 48
Flags: HW
LayerCount: 2
Fore
SplineSet
40.001953125 80 m 2
 28.001953125 80 17.951171875 80.33203125 10.439453125 74.072265625 c 0
 2.927734375 67.8125 0 56.3994140625 0 36 c 0
 0 28 -0.0146484375 21.9541015625 0.45703125 17.11328125 c 0
 0.927734375 12.2724609375 1.8701171875 8.359375 4.490234375 5.365234375 c 0
 7.1103515625 2.3701171875 10.9306640625 1.0869140625 15.30859375 0.53125 c 0
 19.6865234375 -0.0244140625 25 -0 32 -0 c 1
 32 8 l 1
 25 8 19.8134765625 8.0224609375 16.31640625 8.46875 c 0
 12.8193359375 8.9130859375 11.3916015625 9.626953125 10.51171875 10.6328125 c 0
 9.6318359375 11.638671875 8.82421875 13.7275390625 8.419921875 17.88671875 c 0
 8.1025390625 21.1572265625 8.0244140625 25.5380859375 8.005859375 31.150390625 c 0
 8.0830078125 31.2783203125 8.1865234375 31.443359375 8.328125 31.65625 c 0
 8.8505859375 32.439453125 9.7841796875 33.5869140625 11.400390625 34.798828125 c 0
 14.6328125 37.22265625 20.6669921875 40 32 40 c 1
 32 48 l 1
 20.5908203125 48 12.9970703125 45.384765625 8.1171875 42.251953125 c 1
 8.7158203125 57.4853515625 11.5810546875 64.609375 15.560546875 67.92578125 c 0
 20.0498046875 71.666015625 28.001953125 72 40.001953125 72 c 1
 40.001953125 80 l 2
18.8330078125 104 m 1
 13.17578125 98.3427734375 l 1
 29.17578125 82.3427734375 l 1
 34.83203125 88 l 1
 18.8330078125 104 l 1
EndSplineSet
EndChar

StartChar: Eacute
Encoding: 104 201 132
Width: 48
Flags: HW
LayerCount: 2
Fore
SplineSet
40.001953125 80 m 2
 28.001953125 80 17.951171875 80.33203125 10.439453125 74.072265625 c 0
 2.927734375 67.8125 0 56.3994140625 0 36 c 0
 0 28 -0.0146484375 21.9541015625 0.45703125 17.11328125 c 0
 0.927734375 12.2724609375 1.8701171875 8.359375 4.490234375 5.365234375 c 0
 7.1103515625 2.3701171875 10.9306640625 1.0869140625 15.30859375 0.53125 c 0
 19.6865234375 -0.0244140625 25 -0 32 -0 c 1
 32 8 l 1
 25 8 19.8134765625 8.0224609375 16.31640625 8.46875 c 0
 12.8193359375 8.9130859375 11.3916015625 9.626953125 10.51171875 10.6328125 c 0
 9.6318359375 11.638671875 8.82421875 13.7275390625 8.419921875 17.88671875 c 0
 8.1025390625 21.1572265625 8.0244140625 25.5380859375 8.005859375 31.150390625 c 0
 8.0830078125 31.2783203125 8.1865234375 31.443359375 8.328125 31.65625 c 0
 8.8505859375 32.439453125 9.7841796875 33.5869140625 11.400390625 34.798828125 c 0
 14.6328125 37.22265625 20.6669921875 40 32 40 c 1
 32 48 l 1
 20.5908203125 48 12.9970703125 45.384765625 8.1171875 42.251953125 c 1
 8.7158203125 57.4853515625 11.5810546875 64.609375 15.560546875 67.92578125 c 0
 20.0498046875 71.666015625 28.001953125 72 40.001953125 72 c 1
 40.001953125 80 l 2
29.17578125 104 m 1
 13.17578125 88 l 1
 18.8330078125 82.3427734375 l 1
 34.83203125 98.3427734375 l 1
 29.17578125 104 l 1
EndSplineSet
EndChar

StartChar: Ecircumflex
Encoding: 105 202 133
Width: 48
Flags: HW
LayerCount: 2
Fore
SplineSet
40.001953125 80 m 2
 28.001953125 80 17.951171875 80.33203125 10.439453125 74.072265625 c 0
 2.927734375 67.8134765625 0 56.400390625 0 36 c 0
 0 28 -0.0146484375 21.9541015625 0.45703125 17.11328125 c 0
 0.927734375 12.2724609375 1.8701171875 8.359375 4.490234375 5.365234375 c 0
 7.1103515625 2.37109375 10.9306640625 1.0869140625 15.30859375 0.53125 c 0
 19.6865234375 -0.0244140625 25 0 32 0 c 1
 32 8 l 1
 25 8 19.8134765625 8.0224609375 16.31640625 8.46875 c 0
 12.8193359375 8.9130859375 11.3916015625 9.626953125 10.51171875 10.6328125 c 0
 9.6318359375 11.638671875 8.82421875 13.7275390625 8.419921875 17.88671875 c 0
 8.1025390625 21.1572265625 8.0244140625 25.5380859375 8.005859375 31.150390625 c 0
 8.0830078125 31.2783203125 8.1865234375 31.443359375 8.328125 31.65625 c 0
 8.8505859375 32.4404296875 9.7841796875 33.5869140625 11.400390625 34.798828125 c 0
 14.6328125 37.22265625 20.6669921875 40 32 40 c 1
 32 48 l 1
 20.5908203125 48 12.9970703125 45.384765625 8.1171875 42.251953125 c 1
 8.7158203125 57.4853515625 11.5810546875 64.609375 15.560546875 67.92578125 c 0
 20.0498046875 71.666015625 28.001953125 72 40.001953125 72 c 1
 40.001953125 80 l 2
16.8037109375 104 m 1
 4.8037109375 88 l 1
 11.2041015625 83.2001953125 l 1
 20.00390625 94.93359375 l 1
 28.8037109375 83.2001953125 l 1
 35.2041015625 88 l 1
 23.2041015625 104 l 1
 16.8037109375 104 l 1
EndSplineSet
EndChar

StartChar: Edieresis
Encoding: 106 203 134
Width: 48
Flags: HW
LayerCount: 2
Fore
SplineSet
40.001953125 80 m 2
 28.001953125 80 17.951171875 80.33203125 10.439453125 74.072265625 c 0
 2.927734375 67.8125 0 56.400390625 0 36 c 0
 0 28 -0.0146484375 21.9541015625 0.45703125 17.11328125 c 0
 0.927734375 12.2724609375 1.8701171875 8.359375 4.490234375 5.365234375 c 0
 7.1103515625 2.37109375 10.9306640625 1.0869140625 15.30859375 0.53125 c 0
 19.6865234375 -0.0244140625 25 0 32 0 c 1
 32 8 l 1
 25 8 19.8134765625 8.0224609375 16.31640625 8.46875 c 0
 12.8193359375 8.9130859375 11.3916015625 9.626953125 10.51171875 10.6328125 c 0
 9.6318359375 11.638671875 8.82421875 13.7275390625 8.419921875 17.88671875 c 0
 8.1025390625 21.1572265625 8.0244140625 25.5380859375 8.005859375 31.150390625 c 0
 8.0830078125 31.2783203125 8.1865234375 31.443359375 8.328125 31.65625 c 0
 8.8505859375 32.4404296875 9.7841796875 33.5869140625 11.400390625 34.798828125 c 0
 14.6328125 37.22265625 20.6669921875 40 32 40 c 1
 32 48 l 1
 20.5908203125 48 12.9970703125 45.384765625 8.1171875 42.251953125 c 1
 8.7158203125 57.4853515625 11.5810546875 64.609375 15.560546875 67.92578125 c 0
 20.0498046875 71.666015625 28.001953125 72 40.001953125 72 c 1
 40.001953125 80 l 2
8.00390625 88 m 1
 16.00390625 88 l 1
 16.00390625 96 l 1
 8.00390625 96 l 1
 8.00390625 88 l 1
24.00390625 88 m 1
 32.00390625 88 l 1
 32.00390625 96 l 1
 24.00390625 96 l 1
 24.00390625 88 l 1
EndSplineSet
EndChar

StartChar: Igrave
Encoding: 107 204 135
Width: 40
Flags: HW
LayerCount: 2
Fore
SplineSet
18.83203125 104 m 1
 13.1748046875 98.3427734375 l 1
 29.1748046875 82.3427734375 l 1
 34.8310546875 88 l 1
 18.83203125 104 l 1
8.001953125 80 m 1
 8.001953125 72 l 1
 15.943359375 72 l 1
 15.6123046875 61.03125 13.9130859375 55.0478515625 12.095703125 46.8671875 c 0
 10.193359375 38.30859375 8.255859375 27.654296875 8.0234375 8 c 1
 0 8 l 1
 0 0 l 1
 24 0 l 1
 24 8 l 1
 16.0234375 8 l 1
 16.2451171875 27.080078125 18.056640625 36.8173828125 19.904296875 45.1328125 c 0
 21.685546875 53.1494140625 23.5908203125 60.130859375 23.943359375 72 c 2
 32.001953125 72 l 1
 32.001953125 80 l 1
 8.001953125 80 l 1
EndSplineSet
EndChar

StartChar: Iacute
Encoding: 108 205 136
Width: 40
Flags: HW
LayerCount: 2
Fore
SplineSet
29.1748046875 104 m 1
 13.1748046875 88 l 1
 18.83203125 82.3427734375 l 1
 34.8310546875 98.3427734375 l 1
 29.1748046875 104 l 1
8.001953125 80 m 1
 8.001953125 72 l 1
 15.943359375 72 l 1
 15.6123046875 61.03125 13.9130859375 55.0478515625 12.095703125 46.8671875 c 0
 10.193359375 38.30859375 8.255859375 27.654296875 8.0234375 8 c 1
 0 8 l 1
 0 0 l 1
 24 0 l 1
 24 8 l 1
 16.0234375 8 l 1
 16.2451171875 27.080078125 18.056640625 36.8173828125 19.904296875 45.1328125 c 0
 21.685546875 53.1494140625 23.5908203125 60.130859375 23.943359375 72 c 2
 32.001953125 72 l 1
 32.001953125 80 l 1
 8.001953125 80 l 1
EndSplineSet
EndChar

StartChar: Icircumflex
Encoding: 109 206 137
Width: 40
Flags: HW
LayerCount: 2
Fore
SplineSet
16.802734375 104 m 1
 4.802734375 88 l 1
 11.203125 83.2001953125 l 1
 20.0029296875 94.93359375 l 1
 28.802734375 83.2001953125 l 1
 35.203125 88 l 1
 23.203125 104 l 1
 16.802734375 104 l 1
8.001953125 80 m 1
 8.001953125 72 l 1
 15.943359375 72 l 1
 15.6123046875 61.03125 13.9130859375 55.0478515625 12.095703125 46.8671875 c 0
 10.193359375 38.30859375 8.255859375 27.654296875 8.0234375 8 c 1
 -0 8 l 1
 -0 0 l 1
 24 0 l 1
 24 8 l 1
 16.0234375 8 l 1
 16.2451171875 27.080078125 18.056640625 36.8173828125 19.904296875 45.1328125 c 0
 21.685546875 53.1494140625 23.5908203125 60.130859375 23.943359375 72 c 2
 32.001953125 72 l 1
 32.001953125 80 l 1
 8.001953125 80 l 1
EndSplineSet
EndChar

StartChar: Idieresis
Encoding: 110 207 138
Width: 40
Flags: HW
LayerCount: 2
Fore
SplineSet
8.0029296875 88 m 1
 16.0029296875 88 l 1
 16.0029296875 96 l 1
 8.0029296875 96 l 1
 8.0029296875 88 l 1
24.0029296875 88 m 1
 32.0029296875 88 l 1
 32.0029296875 96 l 1
 24.0029296875 96 l 1
 24.0029296875 88 l 1
8.001953125 80 m 1
 8.001953125 72 l 1
 15.943359375 72 l 1
 15.6123046875 61.03125 13.9130859375 55.0478515625 12.095703125 46.8671875 c 0
 10.193359375 38.30859375 8.255859375 27.654296875 8.0234375 8 c 1
 0 8 l 1
 0 0 l 1
 24 0 l 1
 24 8 l 1
 16.0234375 8 l 1
 16.2451171875 27.080078125 18.056640625 36.8173828125 19.904296875 45.1328125 c 0
 21.685546875 53.1494140625 23.5908203125 60.130859375 23.943359375 72 c 2
 32.001953125 72 l 1
 32.001953125 80 l 1
 8.001953125 80 l 1
EndSplineSet
EndChar

StartChar: Ntilde
Encoding: 111 209 139
Width: 64
Flags: HW
LayerCount: 2
Fore
SplineSet
20.0009765625 80 m 2
 17.833984375 80 16.5556640625 78.990234375 15.451171875 77.970703125 c 0
 14.3466796875 76.951171875 13.3828125 75.6865234375 12.4033203125 74.091796875 c 0
 10.4462890625 70.90234375 8.4833984375 66.3701171875 6.6611328125 60.1201171875 c 0
 3.0146484375 47.6201171875 0 28.28515625 -0 -0 c 1
 8.0009765625 -0 l 1
 8.0009765625 27.7138671875 10.9853515625 46.3798828125 14.33984375 57.8798828125 c 0
 16.017578125 63.6298828125 17.8046875 67.59765625 19.22265625 69.908203125 c 0
 19.2451171875 69.9423828125 19.2607421875 69.9599609375 19.2822265625 69.9951171875 c 1
 20.0078125 68.189453125 20.7890625 65.6689453125 21.5615234375 62.6376953125 c 0
 23.19921875 56.2099609375 24.8251953125 47.73046875 26.5830078125 39.193359375 c 0
 28.3408203125 30.65625 30.220703125 22.0673828125 32.5146484375 15.12109375 c 0
 33.6611328125 11.6474609375 34.896484375 8.5849609375 36.4140625 6.033203125 c 0
 37.931640625 3.4814453125 39.7490234375 1.2001953125 42.7353515625 0.205078125 c 2
 43.3505859375 -0 l 1
 44 -0 l 2
 46 -0 48.0751953125 0.923828125 49.455078125 2.2900390625 c 0
 50.8349609375 3.6552734375 51.6923828125 5.310546875 52.3798828125 7.1826171875 c 0
 53.7568359375 10.9287109375 54.474609375 15.7705078125 54.9873046875 22.1806640625 c 0
 56.013671875 35.001953125 56 54 56 80 c 1
 48 80 l 1
 48 54 47.98828125 34.9970703125 47.0126953125 22.818359375 c 0
 46.525390625 16.7294921875 45.7451171875 12.3203125 44.87109375 9.94140625 c 0
 44.681640625 9.4267578125 44.49609375 9.0625 44.326171875 8.751953125 c 1
 44.0087890625 9.1103515625 43.6787109375 9.46875 43.2890625 10.123046875 c 0
 42.2607421875 11.8525390625 41.1513671875 14.4775390625 40.111328125 17.62890625 c 0
 38.029296875 23.93359375 36.16015625 32.34375 34.41796875 40.806640625 c 0
 32.67578125 49.26953125 31.0517578125 57.7900390625 29.314453125 64.6123046875 c 0
 28.4453125 68.0244140625 27.5595703125 71.0029296875 26.5244140625 73.4697265625 c 0
 25.4892578125 75.9375 24.6376953125 78.1533203125 21.7890625 79.578125 c 2
 20.9443359375 80 l 1
 20.0009765625 80 l 2
31.994140625 104 m 2
 31.994140625 100.66796875 30.7509765625 97.416015625 30.1669921875 96.8330078125 c 0
 29.8759765625 96.541015625 30.197265625 96.6533203125 29.9091796875 96.701171875 c 0
 29.619140625 96.75 28.478515625 97.1865234375 26.8330078125 98.83203125 c 0
 24.478515625 101.186523438 22.119140625 102.749023438 19.4091796875 103.201171875 c 0
 16.6982421875 103.653320312 13.875 102.540039062 12.1669921875 100.83203125 c 0
 8.7509765625 97.416015625 7.994140625 92.6669921875 7.994140625 88 c 1
 16.0068359375 88 l 1
 16.0068359375 91.33203125 17.2490234375 94.5830078125 17.8330078125 95.1669921875 c 0
 18.125 95.4580078125 17.802734375 95.3466796875 18.091796875 95.2978515625 c 0
 18.380859375 95.25 19.521484375 94.8125 21.1669921875 93.1669921875 c 0
 23.521484375 90.8125 25.8818359375 89.2490234375 28.591796875 88.7978515625 c 0
 31.302734375 88.345703125 34.125 89.458984375 35.8330078125 91.1669921875 c 0
 39.2490234375 94.583984375 40.0068359375 99.33203125 40.0068359375 104 c 1
 31.994140625 104 l 2
EndSplineSet
EndChar

StartChar: Oacute
Encoding: 113 211 140
Width: 48
Flags: HW
LayerCount: 2
Fore
SplineSet
24 80 m 0
 19.888671875 80 16.095703125 78.205078125 13.099609375 75.439453125 c 0
 10.1025390625 72.6728515625 7.7431640625 68.9638671875 5.8349609375 64.603515625 c 0
 2.01953125 55.8818359375 0 44.4443359375 0 32 c 0
 0 21.7333984375 0.9208984375 14.330078125 3.3447265625 8.8759765625 c 0
 5.7685546875 3.4208984375 10.666015625 -0 15.9990234375 -0 c 0
 21.3330078125 -0 27.5732421875 2.73828125 32.234375 9.1474609375 c 0
 36.8955078125 15.556640625 39.9990234375 25.4287109375 39.9990234375 40 c 0
 39.9990234375 54.1904296875 39.091796875 63.4521484375 36.7587890625 69.8671875 c 0
 35.5927734375 73.07421875 33.9912109375 75.66015625 31.732421875 77.4482421875 c 0
 29.4736328125 79.236328125 26.6669921875 80 24 80 c 0
24 72 m 0
 25.3330078125 72 26.025390625 71.763671875 26.7666015625 71.1767578125 c 0
 27.5078125 70.58984375 28.40625 69.42578125 29.240234375 67.1328125 c 0
 30.908203125 62.5478515625 32 53.8095703125 32 40 c 0
 32 26.5712890625 29.103515625 18.443359375 25.7646484375 13.8525390625 c 0
 22.4267578125 9.26171875 18.666015625 8 15.9990234375 8 c 0
 13.3330078125 8 12.23046875 8.5791015625 10.6552734375 12.125 c 0
 9.0791015625 15.669921875 8 22.2666015625 8 32 c 0
 8 43.5556640625 9.9794921875 54.1171875 13.1640625 61.396484375 c 0
 14.7568359375 65.0361328125 16.6474609375 67.8271484375 18.525390625 69.560546875 c 0
 20.404296875 71.294921875 22.111328125 72 24 72 c 0
29.1748046875 104 m 1
 13.1748046875 88 l 1
 18.83203125 82.3427734375 l 1
 34.8310546875 98.3427734375 l 1
 29.1748046875 104 l 1
EndSplineSet
EndChar

StartChar: Ograve
Encoding: 112 210 141
Width: 48
Flags: HW
LayerCount: 2
Fore
SplineSet
24 80 m 0
 19.888671875 80 16.095703125 78.205078125 13.099609375 75.439453125 c 0
 10.1025390625 72.6728515625 7.7431640625 68.9638671875 5.8349609375 64.603515625 c 0
 2.01953125 55.8818359375 0 44.4443359375 0 32 c 0
 0 21.7333984375 0.9208984375 14.330078125 3.3447265625 8.8759765625 c 0
 5.7685546875 3.4208984375 10.666015625 -0 15.9990234375 -0 c 0
 21.3330078125 -0 27.5732421875 2.73828125 32.234375 9.1474609375 c 0
 36.8955078125 15.556640625 39.9990234375 25.4287109375 39.9990234375 40 c 0
 39.9990234375 54.1904296875 39.091796875 63.4521484375 36.7587890625 69.8671875 c 0
 35.5927734375 73.07421875 33.9912109375 75.66015625 31.732421875 77.4482421875 c 0
 29.4736328125 79.236328125 26.6669921875 80 24 80 c 0
24 72 m 0
 25.3330078125 72 26.025390625 71.763671875 26.7666015625 71.1767578125 c 0
 27.5078125 70.58984375 28.40625 69.42578125 29.240234375 67.1328125 c 0
 30.908203125 62.5478515625 32 53.8095703125 32 40 c 0
 32 26.5712890625 29.103515625 18.443359375 25.7646484375 13.8525390625 c 0
 22.4267578125 9.26171875 18.666015625 8 15.9990234375 8 c 0
 13.3330078125 8 12.23046875 8.5791015625 10.6552734375 12.125 c 0
 9.0791015625 15.669921875 8 22.2666015625 8 32 c 0
 8 43.5556640625 9.9794921875 54.1171875 13.1640625 61.396484375 c 0
 14.7568359375 65.0361328125 16.6474609375 67.8271484375 18.525390625 69.560546875 c 0
 20.404296875 71.294921875 22.111328125 72 24 72 c 0
18.83203125 104 m 1
 13.1748046875 98.3427734375 l 1
 29.1748046875 82.3427734375 l 1
 34.8310546875 88 l 1
 18.83203125 104 l 1
EndSplineSet
EndChar

